<?xml version="1.0" standalone="no"?>
<!DOCTYPE svg PUBLIC "-//W3C//DTD SVG 20010904//EN"
 "http://www.w3.org/TR/2001/REC-SVG-20010904/DTD/svg10.dtd">
<svg version="1.0" xmlns="http://www.w3.org/2000/svg"
 width="220.000000pt" height="220.000000pt" viewBox="0 0 220.000000 220.000000"
 preserveAspectRatio="xMidYMid meet">
<metadata>
Created by potrace 1.11, written by Peter Selinger 2001-2013
</metadata>
<g transform="translate(0.000000,220.000000) scale(0.100000,-0.100000)"
fill="#000000" stroke="none">
<path d="M755 2153 c-66 -15 -122 -39 -162 -70 -32 -25 -48 -31 -53 -23 -8 14
-38 2 -59 -24 -7 -8 -33 -25 -57 -37 -72 -34 -123 -113 -155 -239 -10 -41 -12
-43 -25 -25 -8 10 -15 17 -17 14 -19 -22 -87 -134 -106 -173 -28 -58 -35 -166
-15 -232 7 -24 9 -46 4 -49 -4 -3 -11 8 -15 25 -4 20 -13 30 -25 30 -25 0 -28
-7 -52 -103 -24 -100 -19 -171 17 -235 30 -53 29 -50 8 -48 -25 2 -27 -28 -8
-121 21 -97 39 -124 106 -158 52 -27 66 -50 24 -39 -42 10 -42 -20 1 -103 50
-96 86 -127 179 -155 41 -12 70 -25 64 -29 -7 -4 -23 -4 -38 1 -34 9 -51 3
-51 -20 0 -33 50 -79 128 -117 61 -31 87 -38 134 -38 48 0 55 -2 42 -12 -28
-20 -9 -40 77 -84 73 -36 89 -41 134 -37 36 3 69 15 105 37 28 18 62 31 73 29
21 -3 20 -4 -8 -30 -16 -16 -36 -28 -45 -28 -12 0 -12 -2 2 -16 14 -15 18 -14
44 2 16 10 33 23 37 29 5 6 7 3 3 -7 -10 -31 31 -22 42 10 l10 27 7 -27 c7
-27 45 -41 45 -17 0 6 16 1 35 -11 31 -19 55 -20 55 -2 0 4 -16 17 -35 30 -19
12 -35 27 -35 32 0 19 31 10 94 -25 88 -49 131 -48 233 6 85 45 97 57 81 76
-11 14 -7 16 33 13 33 -2 146 41 199 76 34 23 70 68 70 88 0 14 -41 25 -63 17
-13 -5 -30 -6 -37 -1 -8 5 6 12 41 19 96 21 148 57 195 138 60 100 63 139 12
127 -30 -6 -31 -5 -18 11 7 9 33 26 57 37 55 26 77 63 99 167 17 81 17 84 -1
97 -10 7 -22 11 -27 8 -5 -4 1 11 15 32 43 68 53 133 33 214 -8 30 -17 72 -20
92 -4 23 -15 42 -27 48 -17 10 -22 6 -35 -26 -8 -20 -17 -35 -18 -33 -2 2 2
36 9 75 21 121 4 186 -82 322 -46 73 -42 70 -59 48 -10 -15 -14 -16 -17 -5
-31 107 -45 142 -73 184 -31 47 -87 95 -110 95 -6 0 -26 14 -44 30 -39 35 -46
36 -59 13 -9 -17 -10 -17 -16 -1 -16 40 -130 95 -222 105 -49 5 -53 4 -53 -15
0 -14 23 -40 63 -73 99 -83 106 -102 30 -80 -65 19 -51 -36 21 -82 23 -15 92
-43 152 -62 104 -35 146 -55 113 -55 -8 0 -24 7 -35 15 -10 8 -31 15 -46 15
-37 0 -36 -23 2 -83 16 -26 33 -59 36 -74 8 -30 86 -113 107 -113 11 0 14 -16
13 -67 -1 -57 4 -78 31 -133 17 -36 42 -78 55 -94 24 -28 24 -31 10 -60 -20
-40 -19 -157 2 -216 15 -44 15 -45 -8 -70 -38 -41 -58 -90 -64 -157 -2 -35 -9
-63 -13 -63 -16 0 -90 -73 -106 -103 -8 -17 -21 -49 -27 -71 -10 -34 -16 -41
-37 -42 -14 -1 -37 -4 -51 -7 -27 -7 -110 -85 -140 -132 -14 -22 -18 -25 -16
-10 3 18 -2 20 -45 18 -74 -2 -139 -47 -212 -146 -20 -28 -62 -47 -102 -47
-40 0 -77 26 -122 84 -49 63 -140 116 -199 116 -31 0 -34 -2 -29 -22 5 -22 5
-22 -11 2 -30 45 -95 111 -123 126 -16 8 -44 14 -63 14 -33 0 -36 3 -46 43
-18 66 -58 126 -103 155 -40 26 -42 29 -44 82 -2 63 -22 117 -58 156 -29 32
-29 26 -10 88 19 61 19 148 0 200 -13 37 -13 40 15 75 62 77 99 200 77 251 -5
10 7 24 41 46 39 26 55 46 95 123 26 51 47 101 47 112 0 23 -24 24 -60 4 -28
-16 -54 -20 -46 -6 3 4 31 16 63 26 154 47 240 91 264 137 15 28 -3 38 -47 25
-50 -15 -54 0 -9 39 93 82 116 106 112 117 -4 13 -48 18 -82 10z"/>
<path d="M960 1806 c-196 -42 -363 -159 -464 -324 -139 -228 -136 -523 6 -743
135 -210 351 -327 601 -327 288 0 549 179 652 447 26 69 30 84 41 156 62 406
-252 784 -666 800 -67 3 -129 -1 -170 -9z"/>
</g>
</svg>
