<?xml version="1.0" encoding="UTF-8"?>
<svg width="2880px" height="110px" viewBox="0 0 2880 110" version="1.1" xmlns="http://www.w3.org/2000/svg" xmlns:xlink="http://www.w3.org/1999/xlink">
    <!-- Generator: Sketch 52.5 (67469) - http://www.bohemiancoding.com/sketch -->
    <title>filled_layer</title>
    <desc>Created with Sketch.</desc>
    <g id="Page-1" stroke="none" stroke-width="1" fill="none" fill-rule="evenodd">
        <g id="Group-5" transform="translate(0.000000, -112.000000)" fill="#F8F8F6">
            <path d="M2879.97752,128.673958 C2878.62186,128.639166 2879.45192,128.954371 2877.89268,128.82799 C2876.31326,128.696378 2875.19305,128.507554 2874.65394,128.266417 C2871.58287,128.536782 2867.83527,128.664326 2865.63603,129.115876 L2860.55558,129.115876 C2857.70342,129.547165 2854.45217,129.860377 2849.94776,129.868182 C2848.58725,130.418462 2844.17908,130.441131 2841.72905,130.865861 C2839.54776,131.244007 2835.93555,131.4506 2832.9462,131.73367 C2831.78504,131.649887 2830.74352,131.518607 2829.32995,131.584704 C2826.9576,131.966337 2823.75638,132.112066 2820.42564,132.151176 C2817.97419,132.180072 2816.15447,132.317829 2814.52057,132.556142 C2812.63709,132.831241 2810.73142,133.103267 2808.83381,133.376539 C2808.69238,133.685931 2807.96501,133.957127 2806.14307,134.196104 L2803.1527,134.196104 C2802.38135,134.307124 2801.78998,134.392485 2801.16713,134.482164 C2799.85969,134.482164 2798.25767,134.416233 2797.25792,134.500016 C2796.17767,134.590443 2795.21323,134.659445 2794.09283,134.621664 C2792.62075,134.572009 2791.65288,134.710264 2790.35977,134.782588 C2788.15225,134.480088 2785.43407,134.690252 2783.41056,134.631296 C2781.86665,134.748958 2780.77934,134.83789 2779.65591,134.916193 C2775.92183,135.176511 2774.69026,135.185811 2769.76436,135.217531 C2767.28244,135.233391 2764.81909,135.350471 2762.38721,135.443721 C2761.95664,135.460162 2761.52809,135.495618 2760.9807,135.497113 C2759.36315,135.29409 2758.10494,135.008197 2755.73964,134.942017 C2754.32385,135.186392 2752.25717,134.982788 2750.60511,135.098955 C2749.63422,135.256973 2748.61732,135.418229 2746.86075,135.352049 C2745.15543,135.813231 2741.35699,135.786328 2738.76572,136.048639 C2738.11906,136.114237 2737.16975,136.270013 2735.77334,136.229657 C2733.71714,136.170037 2731.98801,136.335694 2730.6951,136.538468 C2729.85112,136.670911 2728.59472,136.636617 2727.78443,136.778858 C2727.18297,136.884313 2727.74368,137.166553 2725.77747,137.090492 C2725.13182,136.945511 2724.93651,136.74938 2723.85505,136.717494 C2721.53071,136.688182 2720.81989,137.041085 2718.91805,137.112413 C2718.08315,136.998156 2717.36607,136.899924 2717.13081,136.867955 C2714.71952,136.68594 2713.28638,136.945345 2711.53364,136.944514 C2706.97313,136.942106 2702.90453,137.165556 2698.9465,137.467226 C2697.58902,137.570855 2696.02171,137.625991 2694.56496,137.695659 C2691.49692,137.842466 2688.45228,137.78567 2685.44577,137.825693 C2684.59452,137.972667 2683.3464,137.999986 2682.65576,138.052298 C2680.06146,137.959298 2678.00002,137.778196 2675.47129,137.812905 C2673.20607,137.844127 2671.32784,137.652397 2669.23997,137.546111 C2667.82721,137.794555 2666.08698,137.995751 2663.87926,138.104196 C2662.60875,137.92243 2660.54126,138.015181 2659.24713,137.833914 C2657.6092,138.139486 2656.07679,137.847864 2654.31821,137.81058 C2653.54787,137.999238 2652.3405,137.999903 2651.08007,137.914293 C2649.57127,137.813404 2649.88037,137.528673 2648.33445,137.397974 L2642.68219,137.397974 C2639.95493,137.556241 2637.91084,137.864471 2635.1866,137.533489 C2632.67604,137.928326 2629.25006,137.788659 2626.00285,137.821956 C2623.00764,138.156426 2619.97228,138.495628 2616.96033,138.832173 C2615.47695,138.824035 2614.15215,138.77247 2612.75372,138.712684 C2610.80991,138.62998 2611.19367,138.318512 2609.80935,138.250672 C2608.15004,138.255737 2607.9515,138.549933 2606.38116,138.541962 C2605.45142,138.397147 2604.09798,138.419235 2602.90413,138.366673 C2601.11992,138.287872 2601.87291,137.99791 2601.45848,137.89644 C2599.52396,137.7028 2597.8717,137.622006 2595.89622,137.689846 C2594.63901,137.897602 2592.91634,138.072642 2592.00577,138.371904 C2591.575,138.513315 2589.75912,138.555497 2589.04426,138.693752 C2588.29732,138.838069 2587.81753,139.009455 2586.86297,139.14198 C2585.77768,139.292774 2584.36693,139.326819 2583.16885,139.418989 C2582.59079,139.358123 2582.08537,139.304731 2581.6312,139.256736 C2579.26711,139.433271 2577.17299,139.494967 2574.75039,139.276416 C2572.66555,139.088339 2571.65047,138.7826 2570.01596,138.563219 C2567.44406,138.67756 2565.07755,138.99401 2562.27463,138.682957 C2559.68335,138.825447 2558.28593,139.209157 2555.5288,139.308219 C2552.5233,139.416166 2551.30888,139.954737 2547.94303,139.991356 C2546.66525,139.90832 2546.24699,139.784513 2547.05001,139.602332 C2545.46313,139.511491 2546.94671,139.226594 2545.71695,139.128446 L2544.00759,139.128446 C2540.93652,139.596105 2539.72108,140.261389 2534.96285,140.429704 C2534.40436,140.376062 2533.88058,140.325825 2533.3681,140.276751 C2532.12119,140.324414 2531.186,140.510664 2529.62696,140.418078 C2528.99059,140.330891 2528.27352,140.232493 2527.50096,140.126456 C2525.47342,140.203762 2523.80381,140.060442 2521.94999,139.909566 C2522.69894,139.69525 2521.78555,139.556496 2520.54045,139.410021 C2517.51639,139.431278 2514.14953,139.305478 2511.57763,139.692842 C2509.08462,139.409689 2505.61365,139.35721 2503.51528,138.979645 L2496.71196,138.979645 C2493.997,138.777037 2493.79241,138.276579 2491.08129,138.106604 C2486.30792,138.106604 2486.30792,138.106604 2482.16769,137.807674 C2481.86585,138.018669 2480.42565,138.012524 2479.78303,137.950579 C2477.79947,137.759264 2475.68578,137.82752 2473.61122,137.818884 C2471.26651,137.809169 2468.61491,137.915787 2466.65052,137.790901 C2464.32215,137.642931 2462.23508,137.714923 2460.15952,137.666513 C2457.71655,138.126201 2454.4879,138.142309 2451.28991,138.102618 C2449.15806,138.361109 2447.38495,138.720656 2443.99791,138.41118 C2442.97677,138.690763 2440.29027,138.685282 2439.40532,138.920523 C2437.37274,138.909895 2437.99478,138.664357 2437.17945,138.551096 C2436.3855,138.543291 2435.59176,138.535651 2435.27438,138.532579 C2433.17017,138.339105 2433.23756,138.027138 2432.00295,137.833831 C2429.95261,138.144385 2426.8426,137.773629 2424.40366,138.186402 C2425.17622,137.519456 2421.16896,137.790237 2419.9515,137.536063 C2419.35831,137.621424 2418.76593,137.706951 2418.11826,137.800118 C2413.07594,137.928741 2408.57355,137.48483 2403.61698,137.477689 C2403.39604,137.477523 2403.18016,137.41126 2402.96225,137.375721 C2402.66868,137.417903 2402.45582,137.477191 2402.1909,137.482505 C2397.05738,137.584556 2391.90026,137.49413 2386.78227,137.530832 C2379.72956,136.750127 2372.74323,135.976978 2365.85314,135.214458 C2362.35251,135.165052 2358.84644,135.317506 2355.65874,135.060925 C2352.67241,135.505832 2349.1962,135.845948 2345.52568,136.221603 C2342.47176,136.121793 2339.61254,136.474697 2336.55882,136.363677 C2335.71484,136.486072 2335.12447,136.5716 2334.53229,136.65721 C2333.86021,136.657044 2333.18994,136.657044 2331.78747,136.657044 C2331.15433,136.750957 2330.16185,136.898596 2329.24523,137.035024 C2325.95201,136.759842 2322.53209,137.078119 2319.35872,137.09373 C2318.78167,136.972913 2319.14586,136.854586 2318.3848,136.800862 L2314.41345,136.800862 C2312.17708,136.426037 2309.08644,136.527092 2306.42152,136.463404 C2304.43877,136.456844 2303.56533,136.240286 2302.44089,136.089741 C2299.02097,136.028793 2295.52437,136.15725 2291.66137,135.979636 C2289.10783,136.165802 2287.33794,136.057274 2285.44134,135.536389 C2281.97945,135.775367 2278.97194,135.594597 2276.13592,135.333283 C2274.93179,135.222181 2274.2587,135.014092 2272.36815,135.045397 C2271.70838,135.056275 2270.89486,134.874592 2269.89955,134.74929 L2262.80185,134.74929 C2262.74253,134.540538 2261.93042,134.431761 2260.90425,134.330291 C2259.58551,134.374217 2258.453,134.545935 2256.86228,134.484239 C2255.18541,134.419305 2253.72361,134.533646 2252.41214,134.646907 C2250.65759,134.440147 2249.20286,134.209805 2246.96649,134.194278 C2244.35161,134.176342 2244.74142,133.862881 2244.22268,133.637106 C2240.74667,133.539206 2238.85088,133.134821 2236.49365,132.819533 C2236.94198,132.563034 2235.62425,132.388659 2235.08311,132.178577 C2231.9965,132.064071 2229.29668,131.841451 2226.80972,131.572414 C2225.63121,130.917841 2224.58162,130.571249 2215.72553,129.833058 C2212.86611,129.95728 2210.36281,129.616334 2207.73159,129.691482 C2206.31882,129.273229 2205.09835,128.911441 2203.81633,128.531717 C2202.46914,128.600388 2201.80513,128.331766 2200.29713,128.38848 C2198.44957,128.457981 2196.92422,128.296061 2195.36014,128.189526 C2193.95847,128.0942 2192.59797,127.986336 2191.97391,127.940002 C2189.88281,127.453245 2186.74193,127.216924 2185.49623,126.775007 C2185.3221,126.713062 2184.85865,126.660085 2184.44543,126.621888 C2183.39888,126.524985 2182.3043,126.438711 2181.43267,126.36539 C2177.4593,126.534368 2173.94596,126.750511 2171.7445,127.244492 C2168.19383,127.230376 2164.9783,126.966903 2161.93789,127.086724 C2159.89603,126.935183 2158.22843,126.81121 2156.34717,126.671627 L2152.24871,126.671627 C2151.32927,126.744034 2151.16321,126.94058 2149.72705,126.944981 C2149.38849,126.910355 2148.89638,126.860202 2148.25598,126.794686 C2147.89482,127.005764 2146.72256,126.926547 2145.77103,126.944151 C2142.76634,127.000034 2140.25699,126.770523 2137.54687,126.651947 C2135.38415,127.054838 2131.04659,126.928706 2129.39353,127.376354 C2126.32427,127.381917 2123.69628,127.392047 2121.25633,127.108479 C2120.24549,126.991149 2118.49719,126.894662 2116.74163,126.936263 C2115.27782,126.970806 2113.74339,126.943404 2112.21078,126.943404 C2108.90546,126.346125 2103.81573,126.058322 2100.35182,125.514602 L2093.35237,125.514602 C2088.53986,126.015725 2085.82289,126.716715 2082.24236,127.215098 L2075.90874,127.215098 C2075.36861,127.130069 2074.93078,127.0609 2074.70057,127.024779 C2074.15217,126.847995 2075.49956,126.812705 2075.3327,126.672872 C2074.16871,126.654604 2074.88054,126.475828 2074.43868,126.414381 C2072.99726,126.319554 2071.74006,126.236933 2070.44695,126.151904 C2070.91545,125.942985 2069.57512,125.902464 2069.08523,125.789037 C2068.29633,125.755324 2067.40836,125.832547 2066.5216,125.713557 C2066.98587,125.488695 2065.30496,125.432729 2064.5102,125.272469 C2064.5102,125.116361 2064.39056,124.946055 2064.55439,124.781311 C2064.6585,124.675938 2065.32856,124.582938 2065.46879,124.476818 C2065.57734,124.394031 2065.83298,124.283759 2065.13023,124.205456 C2064.36816,124.192918 2063.57623,124.179632 2062.83555,124.167426 C2062.22884,123.974284 2061.653,123.791023 2061.05941,123.601784 C2057.24967,123.592567 2055.34178,124.006336 2053.00735,124.322703 C2049.87898,124.308587 2047.95252,124.776329 2044.75474,124.752664 C2044.32397,124.427993 2042.92856,124.279773 2040.57356,124.338646 C2040.48034,123.981508 2038.0979,123.887594 2037.35722,123.648118 L2037.35722,123.387385 C2036.84574,122.940319 2033.55051,123.005502 2033.24039,122.652931 C2030.94188,122.554284 2029.62819,122.307501 2028.81709,122.033316 C2025.11853,121.914574 2022.54985,122.216992 2019.4584,122.443514 C2016.35121,122.451403 2016.44746,122.470667 2012.93654,122.831874 C2011.9156,122.936997 2010.59787,123.070602 2008.99888,123.031243 C2006.56014,122.971208 2004.46178,123.12167 2003.10108,123.251538 C2000.2009,123.217742 1999.02541,122.912336 1996.58647,122.839015 C1994.3727,122.772586 1993.71071,122.323195 1992.80034,122.054158 C1989.96352,121.889332 1987.56957,121.596962 1984.47913,121.742358 C1981.22889,122.17564 1978.48206,122.691377 1973.92458,123.024268 L1956.48499,123.024268 C1955.7556,123.124244 1955.03954,123.222641 1954.36726,123.314811 L1950.31116,123.314811 C1949.75671,123.054659 1948.59858,122.870901 1947.11924,122.739039 C1945.83742,122.739039 1944.64963,122.756145 1943.49472,122.73522 C1941.40665,122.697272 1938.24055,122.770178 1936.17709,122.877627 C1934.71409,122.953937 1933.25613,123.100495 1931.58995,123.025182 C1930.22723,122.963486 1929.68287,123.20155 1928.43798,123.173567 C1926.95863,122.911588 1924.73054,123.098918 1922.55752,122.977768 C1921.93972,122.87472 1921.08322,122.731981 1920.21381,122.586834 C1918.99838,122.821079 1917.45467,122.723761 1916.08912,122.725754 C1912.73962,122.312317 1910.33134,122.169329 1906.58395,122.159199 C1905.74925,122.156957 1904.76201,122.198558 1904.10426,122.148736 C1899.35329,121.789024 1893.93023,121.740365 1888.98597,121.459952 C1887.23142,121.360475 1885.02996,121.152802 1882.99838,121.307 C1881.74622,121.402325 1880.91233,121.491257 1879.49533,121.374923 C1878.22885,121.270796 1877.03399,121.528872 1875.63636,121.434875 C1874.65336,121.368945 1873.64776,121.310238 1872.72307,121.252777 C1872.12766,121.064119 1871.55364,120.882602 1871.2633,120.790599 C1867.86577,120.482784 1864.07944,120.407968 1862.87934,119.840085 C1860.53261,119.839919 1858.18789,119.839919 1856.04756,119.839919 C1853.3203,119.5845 1849.75833,119.505034 1848.90486,118.952263 L1844.92847,118.952263 C1840.39137,118.53617 1840.03324,117.893969 1839.1033,117.263476 C1835.8686,116.971771 1834.55914,116.33613 1830.37089,116.169476 C1827.40716,115.377229 1822.80247,114.688611 1818.32872,114.369089 C1817.93084,114.457854 1817.37437,114.497462 1816.48116,114.467237 C1811.55546,113.626996 1805.46517,113.132018 1797.28721,113.349074 C1795.65049,113.564885 1793.4918,113.622927 1791.27702,113.621681 C1791.02643,113.7234 1790.81962,113.807516 1790.62431,113.887147 C1787.22678,113.883162 1784.27334,114.020254 1782.02466,114.361532 C1779.56958,114.091997 1776.29473,114.246195 1774.44938,113.901264 C1772.13816,113.872367 1769.89574,113.878014 1767.97574,114.094156 C1766.64267,114.244203 1765.25029,114.21597 1763.89483,114.121309 C1761.65342,113.964786 1759.45801,113.794811 1756.90527,113.605406 C1755.14164,113.605406 1752.76928,113.684457 1750.84807,113.584149 C1748.7489,113.474458 1746.59344,113.536237 1744.72025,113.441742 C1742.67011,113.338196 1740.88913,113.574766 1738.9207,113.426713 C1738.5656,113.371577 1737.86386,113.311292 1737.70729,113.229668 C1736.81952,112.766908 1735.10492,112.472379 1731.50683,112.432356 C1730.56983,112.422059 1729.71758,112.250673 1728.56469,112.124707 C1726.16146,112.124707 1723.31233,112.214968 1720.89902,112.105609 C1716.07057,111.886975 1711.77982,112.035195 1707.43723,112.300495 C1705.20086,112.125289 1703.18542,112.135834 1700.66174,112.275833 C1698.42941,112.39964 1695.52398,112.241539 1693.41574,112.533577 C1693.61286,112.985957 1692.93271,113.39956 1691.08192,113.733697 C1689.37881,113.831098 1688.42224,113.65556 1687.2631,113.603828 C1686.39571,113.614872 1686.12656,113.777125 1685.12197,113.754041 C1684.32802,113.735856 1683.49735,113.750387 1682.3824,113.750387 C1680.54794,114.418329 1675.80525,114.684958 1672.84373,115.200861 L1669.9024,115.200861 C1667.74593,115.417419 1666.82305,115.73827 1665.9147,116.05389 C1663.7314,116.112763 1662.1203,116.295774 1660.75859,116.489248 C1657.97281,116.567053 1655.33877,116.496887 1653.03481,116.34543 C1650.91728,116.206427 1649.21075,116.157104 1647.26088,116.355228 C1646.92535,116.389273 1646.27869,116.360044 1645.62215,116.360044 C1644.39339,116.136013 1642.88419,115.940546 1641.70285,115.676076 C1639.81836,115.253672 1636.93836,114.985133 1633.01423,115.048324 C1630.69594,115.085607 1628.32358,115.04741 1625.98088,115.061111 C1625.45206,115.064183 1624.94361,115.141822 1624.43092,115.184835 C1623.17271,114.959309 1620.32157,115.125962 1619.77418,114.770402 L1613.55435,114.770402 C1612.82598,114.67051 1612.10971,114.572195 1611.52157,114.491484 C1608.0167,114.382707 1605.82734,114.757199 1602.77786,114.926842 L1598.26316,114.926842 C1596.01367,115.251181 1594.12817,115.611806 1591.66865,115.849372 C1589.73009,116.036453 1588.31834,116.298514 1586.43385,116.472143 C1584.51567,116.648843 1583.23788,116.900526 1581.98068,117.145814 C1580.55561,117.423653 1578.82992,117.665205 1576.93191,117.832024 C1574.05937,118.084703 1572.05725,118.422078 1570.34265,118.838255 L1562.4399,118.838255 C1561.33806,118.998515 1560.09196,119.179948 1558.79279,119.369021 C1556.73357,119.245547 1556.65065,119.228026 1555.9366,119.295202 C1554.10437,119.467087 1552.40207,119.391939 1550.45221,119.327171 C1548.32217,119.256508 1545.9712,118.990792 1544.11355,119.143911 C1541.77085,119.337219 1539.28187,119.317954 1537.45347,119.22894 C1534.98084,119.108288 1532.64964,119.140008 1530.25468,119.11709 C1528.77534,119.10314 1527.2847,119.114516 1526.14391,119.114516 C1522.55007,119.537751 1519.88313,120.0035 1518.39774,120.556188 C1514.8049,120.559758 1511.85549,120.620707 1511.01453,121.111367 C1508.13473,121.22031 1506.00692,121.406477 1504.17852,121.674517 C1502.26033,121.955677 1500.49388,122.270965 1497.53115,122.334488 C1497.43289,122.518911 1496.67062,122.635826 1495.73867,122.740949 L1490.50508,122.740949 C1490.5878,122.971789 1488.86613,122.815433 1488.40167,122.927282 C1487.88313,123.284586 1486.47622,123.531618 1484.58871,123.766112 C1482.68001,123.632922 1481.12298,123.913418 1479.15355,123.901793 C1476.98376,123.88884 1474.80672,123.898804 1472.73317,123.898804 C1470.56218,124.171079 1468.15592,124.247472 1465.62921,124.131388 C1463.40112,124.164519 1462.88036,123.779398 1461.12076,123.764784 C1458.20606,123.740786 1455.45822,123.602697 1452.49872,123.583184 C1449.49403,123.563587 1446.49741,123.422509 1443.3079,123.479223 C1440.30725,124.046857 1435.49817,124.341552 1432.56409,124.914086 L1424.50356,124.914086 C1421.76803,125.20986 1418.02286,125.289243 1416.39723,125.776913 C1411.01998,126.206293 1406.94432,126.855468 1402.65075,127.468025 C1400.9301,127.713563 1399.38942,127.994308 1397.24606,128.089467 C1391.87628,128.190439 1386.97903,127.792115 1382.0051,128.013655 C1379.37993,128.185125 1378.85433,128.606118 1376.92082,128.863861 C1374.70785,129.158972 1372.93494,129.549739 1370.4163,129.762062 C1368.05302,129.961349 1366.25872,130.254549 1363.90997,130.435568 C1361.87315,130.592506 1360.16157,130.774272 1359.52924,131.149844 C1358.1994,131.149844 1356.76102,131.096036 1355.93943,131.294327 C1355.17232,131.124684 1353.82493,131.119619 1353.20289,131.064483 C1350.60959,131.106831 1349.52914,131.392309 1347.95799,131.574075 C1347.52924,131.521679 1347.16001,131.476591 1346.60233,131.408501 C1345.61509,131.440055 1344.9757,131.621987 1343.64284,131.588108 C1340.35991,131.504159 1337.69701,131.707182 1335.88213,132.010014 C1334.42841,132.034842 1334.24117,131.832566 1332.85908,131.890691 C1332.30866,131.962102 1331.48102,132.069634 1330.95724,132.137558 C1324.35991,132.294247 1319.69671,131.870597 1315.61903,131.286604 C1312.44062,131.404598 1310.50387,131.733504 1308.60929,132.048211 C1306.63804,132.37529 1303.30185,132.389406 1301.63648,132.751443 L1297.60965,132.751443 C1292.63593,132.991749 1289.44601,133.40228 1285.52894,133.648315 C1281.46034,133.9039 1277.536,134.240446 1274.71653,134.757677 C1272.44344,134.811651 1270.17439,134.711177 1267.98201,134.899835 C1267.13499,134.972574 1265.40909,134.979549 1264.16602,134.869693 C1261.69237,134.651474 1258.98952,134.825767 1256.41681,134.777025 C1255.20945,135.074127 1252.39724,134.760749 1251.20137,135.062087 C1249.30781,134.990925 1247.7988,135.152015 1246.18145,135.240034 C1244.44425,135.334612 1242.77787,135.458501 1241.01706,135.541371 C1239.34665,135.62009 1237.44359,135.753113 1235.90917,135.700468 C1233.24324,135.609212 1230.93323,135.645166 1228.45535,135.780017 C1226.85131,135.867288 1225.2616,135.971747 1223.3527,135.941107 C1220.96077,135.902744 1218.75204,135.969173 1216.43477,136.155008 C1214.29787,136.326394 1211.63901,136.369905 1210.20889,136.660199 C1207.09444,136.648906 1204.28445,136.612785 1202.34085,136.915618 C1198.79805,136.79671 1196.27013,136.434507 1193.09757,136.247759 C1189.63991,136.075874 1186.4952,136.471375 1183.10372,136.343915 C1178.15543,136.079279 1175.29802,135.396972 1170.58801,135.043155 C1167.68884,135.133332 1164.55321,134.94484 1161.65101,135.168373 C1159.64385,134.974733 1157.84531,134.819456 1155.19048,135.048054 C1152.68012,135.264114 1149.60481,135.244933 1146.30877,135.177341 C1144.91719,134.963108 1143.32244,134.717571 1141.79306,134.482164 C1138.9756,134.482164 1136.07038,134.577655 1133.66413,134.460076 C1129.89515,134.275985 1126.2319,134.388997 1122.98367,134.33519 C1121.27936,134.503421 1119.52077,134.547347 1118.67154,134.805423 C1116.57238,134.629719 1115.07064,134.972408 1113.06872,134.917106 C1111.37026,134.795874 1109.58504,134.694404 1108.67568,134.490135 C1104.76768,134.42437 1102.61303,134.751699 1100.53364,135.070889 L1096.50579,135.070889 C1093.13611,135.534313 1090.34408,136.040916 1087.77338,136.588041 C1086.09046,136.946092 1083.93702,137.335033 1080.82277,137.460916 C1076.13959,137.650321 1072.63371,138.064256 1068.89863,138.606813 C1065.71679,138.352142 1061.97061,138.388594 1058.93848,138.397811 C1052.48501,138.857333 1045.37722,138.854925 1040.24168,139.539391 C1034.52991,139.535405 1029.60622,140.027809 1024.46867,140.145139 C1018.25873,140.813994 1014.42035,141.733785 1009.06812,142.453624 L1002.95947,142.453624 C1000.60446,142.046332 997.800323,141.758446 993.791244,141.901268 C992.43074,142.115086 990.738533,142.221206 988.954321,142.334052 C987.752203,142.41003 986.104182,142.46226 985.423829,142.67641 C983.795179,143.188742 980.939189,143.521966 977.515835,143.750315 C976.720072,143.803375 976.010059,143.86175 975.610967,143.951428 C974.431446,144.215732 973.387108,144.493322 972.355885,144.770828 C971.012329,145.132201 970.207285,145.544558 967.740097,145.798233 C967.024839,145.871637 967.748168,146.048919 965.867714,146.097246 C962.383426,146.307825 958.135659,146.2869 953.85238,146.051659 C951.705999,146.454799 948.920224,146.584335 946.630791,146.528452 C943.517954,146.359889 941.706908,146.126226 939.106555,146.06071 C937.991397,146.160686 936.639972,146.24314 935.646681,146.379652 C933.832809,146.629092 931.70378,146.644121 929.402242,146.674347 C927.876694,146.694524 927.068623,146.522308 925.799922,146.512758 C924.924462,146.657988 923.332532,146.631666 922.581561,146.803551 L916.586505,146.803551 C911.747766,147.415775 908.45677,148.263407 901.469633,148.689798 L896.844362,148.689798 C896.518107,148.618968 895.960427,148.497901 895.698536,148.440855 C892.394223,148.285412 889.86933,148.548387 887.113416,148.545564 C884.263076,148.542741 881.413946,148.544983 878.565018,148.544983 C877.334047,148.796167 876.148473,148.468008 874.863631,148.54191 C871.384388,148.741861 867.30348,148.766855 865.266859,149.269804 C863.379142,149.269804 861.286027,149.360812 860.47493,149.25245 C858.235334,148.953271 855.057932,149.333576 853.151046,148.979925 L845.134704,148.979925 C842.274275,149.365462 838.112459,149.365296 834.933039,149.702256 L828.064338,149.702256 C825.768853,149.36704 825.768853,149.36704 825.265448,149.037719 C823.444515,148.659157 820.918614,148.43687 818.211728,148.30177 C813.003557,148.041784 808.195285,147.687635 803.594831,147.25427 C802.840632,147.183108 801.881237,147.013964 800.571779,147.094841 C797.232561,147.166169 795.84845,147.692701 792.863129,147.787777 C790.68729,147.642796 790.541817,147.276524 788.771124,147.099823 C787.347063,147.361221 785.303987,147.173891 783.753217,147.272953 C779.470746,147.422252 778.635033,148.085876 775.620052,148.402991 C772.332083,148.342458 769.271301,148.485695 766.498842,148.614152 C764.141818,148.723427 761.80719,148.959582 759.472764,149.13869 C755.218943,149.465105 753.036043,150.142347 748.600028,150.453068 L743.625098,150.453068 C742.051529,150.552545 742.456674,150.780562 741.395791,150.864844 C739.952361,150.858782 738.601138,150.874808 737.231353,150.730325 C735.863383,150.586092 734.722601,150.914831 733.174858,150.866006 C732.548982,150.846327 731.64245,150.877631 731.302879,150.825817 C729.472664,150.547314 726.749234,150.543743 724.56936,150.346284 C720.966031,150.019869 716.559071,149.899716 712.154935,150.037473 C711.628932,150.053997 711.206435,150.164186 710.385048,150.134957 C709.71781,150.043534 709.001946,149.945137 708.757406,149.911673 C701.549134,149.695862 696.225149,149.008573 689.323964,148.868076 C688.014507,149.091277 685.82515,148.920638 684.033069,149.002594 C683.565377,149.312485 681.319727,149.466102 680.860509,149.76063 C680.331682,150.099417 678.225049,150.216581 677.195037,150.429652 C676.299803,150.429652 675.634986,150.460126 675.31882,150.425168 C670.097332,149.847071 664.092187,149.778649 657.854003,149.848815 C657.208152,149.856122 656.555441,149.849728 656.027824,149.849728 C654.982074,149.659243 653.448656,149.628271 652.327446,149.482044 C651.006689,149.309994 649.098795,149.164847 647.35534,149.140102 C643.527446,149.085879 639.559123,149.189924 636.060309,148.857447 C635.964067,148.848313 635.548833,148.890247 635.37592,148.919807 C634.024496,149.15098 633.489414,148.80912 632.223941,148.840176 C630.779502,148.985489 628.685378,149.029747 627.950952,149.383065 C627.617232,149.54374 626.137888,149.656337 624.504395,149.723928 C619.596854,149.926869 614.453853,150.047271 610.24321,150.444847 C606.701621,150.281433 603.242756,150.215336 600.640184,149.90694 C598.571483,149.507952 595.292794,149.184277 596.298595,148.600285 C594.815014,148.397511 593.48316,148.215247 592.304648,148.054074 C592.105102,147.497068 589.695821,147.123821 587.438873,146.794832 C582.960285,146.142252 577.567902,145.643952 571.788734,145.257585 C570.124371,145.146317 568.197915,145.108785 566.421774,144.920874 C564.621622,144.909249 562.452846,144.967956 560.607095,144.775561 C555.061371,144.857352 549.383691,144.606085 543.915646,144.916141 C543.33557,144.949024 542.364473,144.960233 541.958319,144.912986 C540.759429,144.773817 538.996806,144.844398 538.033174,144.707804 C536.504599,144.490914 535.241144,144.760449 533.828383,144.701825 C530.83721,144.577935 527.777235,144.487343 524.957967,144.287891 C524.706163,144.053397 523.849871,143.963469 522.147576,143.892141 C516.319379,143.64843 512.09542,143.303498 509.624802,142.94719 L509.624802,142.495391 C508.862532,142.457776 508.277412,142.428879 507.726996,142.401561 C507.726996,142.287635 507.726996,142.190981 507.725987,142.09441 C504.418648,141.893546 502.30112,141.507345 500.792923,141.069911 C500.255017,140.91397 499.821221,140.71759 498.798068,140.73129 C496.863541,140.757447 495.040591,140.346834 493.012041,140.707542 C492.778598,140.748811 491.551864,140.729132 490.705055,140.668017 C489.193024,140.558908 487.52846,140.479857 485.866921,140.431032 C482.007148,140.317771 478.965736,139.901096 474.99015,139.839068 C473.343138,139.484338 470.703845,139.378301 468.077666,139.266784 C467.396506,139.380128 466.364072,139.482262 465.525333,139.402963 C463.39126,139.201019 461.095573,139.260473 458.866468,139.272928 C456.072622,139.288373 453.586468,139.04516 450.783543,139.10395 C450.02551,138.863478 448.113379,139.03586 446.897137,138.861983 C445.57638,138.673242 444.084526,138.984876 442.429445,138.986454 C438.828537,138.989858 433.523114,139.268777 430.618701,139.587635 C427.931185,139.882496 424.613556,139.935639 421.660114,140.124712 C419.717314,139.814739 417.827982,140.049897 416.001803,140.133597 C413.875801,140.0489 414.501879,139.749389 413.792068,139.539806 C411.049269,139.638038 408.67792,139.463413 406.303544,139.342596 C405.523721,139.302987 404.56937,139.222692 404.057088,139.275253 C402.108033,139.474872 399.669294,139.30772 397.969017,139.43269 C395.839988,139.589379 393.836861,139.537149 391.772397,139.552677 C389.599383,139.569118 387.416483,139.55633 385.237214,139.55633 C383.058551,139.55633 380.879282,139.55359 378.701225,139.557742 C377.890934,139.55932 377.02758,139.55359 376.283873,139.591039 C373.900216,139.710694 371.497189,139.881084 368.985613,139.834418 C366.097543,139.780943 363.592221,139.973254 360.849422,140.002317 C358.476257,140.027394 356.513886,139.834916 354.261175,139.832093 C352.720494,139.609972 351.42859,139.312204 349.57376,139.185907 C347.45603,139.041424 347.302688,138.699564 345.445841,138.556327 C343.65255,138.417823 341.977695,138.247599 340.218098,138.09938 C337.925639,137.906487 335.801856,137.689846 332.910759,137.65439 C330.840242,137.629064 328.815526,137.458009 326.858603,137.325318 C324.994492,137.19902 322.958679,137.09373 321.910104,136.801692 C317.730936,136.697897 313.960344,136.419727 309.997065,136.223429 C306.911668,136.070643 303.842614,135.902412 300.677318,135.795213 C297.461782,135.686186 294.467381,135.417482 290.976032,135.493293 C289.585666,135.231066 287.494569,135.431847 285.897797,135.335691 C281.759588,135.086749 277.695023,135.18797 273.61008,135.352049 C271.284935,135.320745 270.074544,134.977723 268.001001,134.901745 C265.948643,135.180081 264.371241,135.49155 261.303195,135.633292 C260.62486,135.515132 259.678782,135.350222 258.9266,135.219108 L251.696941,135.219108 C251.020623,135.316593 250.428441,135.401954 249.769476,135.496947 C249.341935,135.496947 248.724129,135.524847 248.374066,135.492546 C245.766449,135.251742 243.257092,135.368822 240.625869,135.490636 C238.49906,135.588868 236.654318,135.752864 234.820069,135.919351 C232.902086,136.093561 230.487761,136.008449 228.572805,136.20757 C228.031469,136.263702 227.211897,136.305303 226.558177,136.373143 C225.544508,136.478433 224.404735,136.645087 223.362213,136.63861 C221.554596,136.627649 220.315756,136.919105 218.327963,136.770803 C214.837219,136.510319 210.906021,136.337438 208.351469,135.886137 C206.951015,135.638856 204.28408,135.59385 203.717321,135.237293 C200.86698,135.062419 198.735126,134.637856 195.190309,134.78101 C194.475253,134.651474 193.958531,134.557643 193.641558,134.500182 C191.76413,134.433338 190.247056,134.510811 188.537699,134.391322 C186.990764,134.283292 184.5149,134.125524 183.19031,134.221596 C181.360095,134.354122 179.464307,134.295914 177.681306,134.412247 C175.743753,134.538794 173.653463,134.710762 171.115455,134.605804 C169.177902,134.148193 164.83712,134.258464 162.225468,133.902738 C160.27137,133.902738 158.262189,133.902738 156.25079,133.902489 C154.022694,133.52592 150.931244,133.62764 148.696893,133.614271 C147.232883,133.549835 148.105519,133.401034 147.158432,133.33527 L141.066326,133.33527 C140.387789,133.433003 139.795607,133.518613 139.078533,133.62191 C136.527007,133.527996 133.923426,133.658031 131.824258,133.828504 C129.261635,134.03709 127.524435,133.754768 125.394599,133.747959 C123.851699,133.74306 123.777045,133.492125 123.131598,133.328045 C121.595154,133.31202 119.956213,133.355613 118.578962,133.180407 C117.193843,133.004288 115.319845,133.029199 113.949858,133.027455 C111.08842,132.224912 105.611296,131.892601 101.99808,131.302215 C99.8303123,131.305121 98.0941207,131.124269 96.1503124,131.047128 C93.7606025,130.952384 93.8528093,130.501747 91.3339695,130.417632 C89.5550036,130.50482 87.6582067,130.370467 86.6138688,130.21519 C84.1932888,129.855229 80.9392157,129.649632 79.0412082,129.302707 C75.5446131,129.134642 72.8048402,129.528067 70.1225704,129.413062 C68.0439828,129.567343 66.3794179,129.691067 64.6226462,129.821516 C60.3159629,129.969071 56.0304649,129.731256 51.6620413,129.6772 C49.8298094,129.654697 48.1317514,129.405921 46.0866569,129.236444 C43.3704905,129.236444 40.1008815,129.348792 37.4482713,129.212115 C32.5427481,128.959436 26.9746272,128.776507 24.5233788,127.96483 C24.3994949,127.923561 24.1049173,127.877974 23.8206298,127.86419 C21.7039086,127.761724 20.8026223,127.501738 19.4889275,127.270815 C18.05377,127.018219 17.0326351,126.719788 15.3632278,126.493846 C12.8883729,126.158962 11.4511976,125.727009 9.81326579,125.306016 C8.71041588,125.022614 8.43097074,124.639153 5.98093299,124.464279 C5.34880186,124.482796 4.59278675,124.47524 4.12327857,124.524397 C2.45266071,124.699853 0,124.564338 0,124.564338 L0.274602766,212.369064 L2878.8216,222 C2878.8216,222 2880.19038,128.709248 2879.97752,128.673958" id="filled_layer"></path>
        </g>
    </g>
</svg>