<?xml version="1.0" encoding="UTF-8"?>
<svg width="370px" height="56px" viewBox="0 0 370 56" version="1.1" xmlns="http://www.w3.org/2000/svg" xmlns:xlink="http://www.w3.org/1999/xlink">
    <!-- Generator: Sketch 53 (72520) - https://sketchapp.com -->
    <title>Group 16</title>
    <desc>Created with Sketch.</desc>
    <g id="Page-1" stroke="none" stroke-width="1" fill="none" fill-rule="evenodd">
        <g id="Homepage" transform="translate(-775.000000, -269.000000)" fill="#33BAD9">
            <g id="Group-8" transform="translate(336.000000, 256.000000)">
                <g id="Group-7">
                    <g id="Group-16" transform="translate(624.000000, 41.000000) scale(1, -1) translate(-624.000000, -41.000000) translate(439.000000, 13.000000)">
                        <path d="M342.622155,39.0901816 C343.081547,39.4532001 343.470116,39.523523 343.852943,39.0654736 C343.751494,38.6188278 344.034785,38.1227659 343.563909,37.6114991 C343.313157,37.6514121 342.983926,37.7046295 342.491994,37.7863561 C342.861422,38.1018591 343.073891,38.282418 343.320814,38.4952875 C343.073891,38.7043557 342.861422,38.8868153 342.622155,39.0901816 Z M340.263943,25.5425605 C340.884123,26.0576286 341.473675,26.0519267 342.088112,25.5634673 C341.546413,25.2973805 341.018112,25.0407967 340.417074,24.7500018 C340.35965,25.0331942 340.311797,25.2954798 340.263943,25.5425605 Z M341.190384,38.7917842 C341.488989,38.7347656 341.931153,38.9704425 341.990491,38.4116602 C341.720599,38.1436727 341.45262,37.8775859 341.182727,37.6095984 C340.884123,37.6666171 340.441958,37.4290395 340.38262,37.9897225 C340.652512,38.2596106 340.916663,38.5218962 341.190384,38.7917842 Z M296.259939,28.1749195 C296.560458,27.7244725 297.150011,27.5686217 297.086845,26.9129077 C297.063875,26.395939 296.648508,26.4434545 296.242712,26.4472557 C295.835002,26.065231 295.419635,25.6775045 295.046379,25.3277904 C294.71332,25.5539642 294.412801,25.7592312 294.156307,25.9340882 C293.74094,25.6908089 293.449992,25.5178524 293.164786,25.3505978 C293.000171,25.5121505 292.862353,25.6508958 292.720707,25.7896411 C292.196235,25.2707718 291.292764,25.3829084 290.877397,24.6853807 C290.806574,24.7538031 290.735751,24.8222254 290.663014,24.8925483 C290.563479,25.2137532 290.458202,25.5330574 290.345268,25.8827715 C290.05432,25.6413927 289.853336,25.4722375 289.654266,25.3068836 C289.478166,25.4817406 289.340348,25.6204859 289.078112,25.8789703 C288.835017,25.5235543 288.513443,25.1738401 288.010026,25.2707718 C287.46067,25.3753059 287.074015,25.124424 286.767754,24.6986851 L284.382744,24.6986851 C284.193245,24.8735421 283.978862,25.0674054 283.77405,25.2574674 C283.561581,25.0636042 283.347198,24.8678403 283.123244,24.6625733 L282.248486,24.6625733 C281.664675,24.3983871 281.335444,24.238735 281.000471,24.1018903 C280.931562,24.0771823 280.824371,24.1475052 280.786088,24.1589089 C280.554478,24.3394679 280.36115,24.4896169 280.173565,24.6359646 C279.972581,24.4325982 279.829021,24.293853 279.706517,24.168412 L278.372366,24.168412 C278.157983,24.3831821 278.020166,24.5200268 277.874692,24.6625733 C277.466981,24.2862505 277.055443,23.9080271 276.636247,23.5164993 C276.314673,23.9859525 275.897392,24.0752816 275.37292,24.128499 C274.850361,24.1817164 274.356515,24.4972193 273.818644,24.7119894 C273.600432,24.5295299 273.380307,24.3451697 273.114243,24.1227971 L268.464814,24.1227971 C268.237032,23.9213314 268.018821,23.7274681 267.783382,23.5183999 L266.056834,23.5183999 C265.832881,23.3112323 265.618498,23.1154684 265.534276,23.0394436 C264.613578,22.6023009 264.37814,23.8453066 263.601002,23.5583129 C263.14161,24.2843499 262.460178,24.1265984 261.828514,24.0163624 C261.608389,23.8453066 261.413148,23.6970582 261.233219,23.5583129 C261.02075,23.7654805 260.882933,23.9061264 260.769999,24.0144618 C259.726796,23.4784869 258.695079,22.9482138 257.663361,22.4198414 C257.487261,22.5623879 257.290105,22.72204 257.188656,22.8018661 C256.474684,22.4407482 255.862162,22.1290465 255.274523,21.8325497 C255.062054,22.0435186 254.924237,22.1822639 254.780677,22.3229098 C254.575864,22.136649 254.367224,21.9503882 254.168154,21.7755311 C253.948029,21.9693944 253.733646,22.1594564 253.427385,22.4293445 C253.065613,22.2392825 252.688529,22.0397173 252.309531,21.8401522 C252.167885,21.9788975 252.030067,22.1157422 251.940103,22.2050713 C250.956239,22.72204 250.324575,21.7983386 249.555093,21.7071088 C249.206721,21.9655932 248.915773,22.1860651 248.531032,22.47686 C248.197973,22.2050713 247.912767,21.9750963 247.610334,21.7299162 L243.609796,21.7299162 C243.225055,21.46573 242.922622,21.2585624 242.671871,21.0837054 C242.153141,21.3821027 241.760744,21.6063759 241.408543,21.8040404 C241.035287,21.5683635 240.75391,21.3916058 240.495502,21.2300531 C240.29069,21.4296182 240.152872,21.5683635 239.995913,21.7223138 C239.789187,21.5398542 239.584374,21.3516928 239.381476,21.1692333 C239.176664,21.3611959 238.964195,21.5550592 238.77661,21.7318169 C238.129633,21.9636925 237.936306,21.3212829 237.423318,21.1217178 L235.763765,21.1217178 C235.482387,21.0513948 235.386681,20.2816436 235.015339,20.7910098 C234.921546,21.1635314 234.85838,21.4296182 234.799042,21.6747983 L232.802601,21.6747983 C232.593961,21.4695313 232.454229,21.3288854 232.211134,21.085606 L230.42142,21.085606 C230.18981,20.8461278 230.050078,20.7073826 229.919917,20.5743391 C229.70362,20.7739043 229.489237,20.9715688 229.269112,21.1749351 L226.962581,21.1749351 C226.727143,21.3764009 226.522331,21.5436555 226.34623,21.6919038 C226.106964,21.5037424 225.907894,21.3516928 225.747107,21.2243513 C225.482956,21.4220158 225.295371,21.560761 225.123099,21.6919038 C224.895318,21.4619288 224.753672,21.3231835 224.615854,21.1844382 C223.710469,21.8971708 223.710469,21.8971708 222.768716,21.1996432 C222.420344,21.5455561 222.071971,21.891469 221.591524,22.366624 C221.294833,21.4771338 220.565549,21.7850342 219.901345,21.74132 C219.706103,21.5702641 219.489806,21.3821027 219.223741,21.1445252 C218.423634,21.2129475 217.552703,21.0875066 216.815762,21.1844382 C216.563097,21.4695313 216.431021,21.615879 216.320002,21.7394193 L213.351181,21.7394193 C213.1234,21.5341524 212.909017,21.3383885 212.73483,21.1787364 L211.574866,21.1787364 C211.327943,21.3821027 211.130787,21.5455561 211.006368,21.646289 C210.613971,21.4182145 210.296225,21.2319537 210.033989,21.0799041 C209.64542,21.3326866 209.373613,21.5094443 209.12669,21.670997 C208.906564,21.4543263 208.763004,21.315581 208.625187,21.1749351 C208.412718,21.3649972 208.202163,21.5531586 208.00118,21.7375187 L206.314828,21.7375187 C205.953057,21.4771338 205.652538,21.2642643 205.342449,21.0418917 C204.942395,21.3212829 204.64379,21.5341524 204.341357,21.7451212 C203.69438,21.6291834 202.965096,22.0530217 202.446365,21.5113449 C202.377457,21.1749351 202.321947,20.9069477 202.274094,20.6693701 C201.996544,20.6256559 201.749621,20.5078174 201.638601,20.5838422 C200.796383,21.1521277 199.806776,21.4543263 198.972214,21.9807981 C198.399888,22.3400153 197.9003,22.2924998 197.356686,22.3134067 C197.132732,22.1119409 196.920263,21.9218789 196.75182,21.7717299 L192.041138,21.7717299 C191.790387,21.9731956 191.593231,22.1328477 191.39799,22.2905992 C191.210405,22.1024378 191.072587,21.9655932 190.88883,21.7850342 C190.695503,21.9446863 190.492605,22.1081397 190.306934,22.2620899 C189.931764,22.0511211 189.547023,21.8344504 189.204393,21.6405871 C188.878991,21.9427857 188.664608,22.136649 188.463624,22.3210091 L184.346324,22.3210091 C184.107057,22.1081397 183.894588,21.9199783 183.729973,21.7736305 L181.976627,21.7736305 C181.708648,21.9998043 181.486609,22.1803632 181.300938,22.3362141 C180.489346,22.3153073 180.010812,21.3098792 179.136053,21.7394193 C178.686232,21.8895683 178.50439,22.5528848 177.849756,22.3172079 C177.665999,22.1480527 177.453531,21.9541894 177.237234,21.7584256 C177.030507,21.946587 176.821867,22.1404502 176.626625,22.3191085 L174.469397,22.3191085 C173.661633,21.9028727 173.029969,21.5778666 172.488269,21.2984755 C172.12267,21.4980406 171.804924,21.6747983 171.494834,21.8458541 C171.186659,21.5797672 170.970362,21.3916058 170.734924,21.1901401 C170.545424,21.3630965 170.33487,21.5493573 170.118573,21.7451212 C168.95478,21.7451212 167.769932,21.74132 166.588911,21.7546243 C166.521917,21.7546243 166.454922,21.8876677 166.091237,22.2753943 C165.635673,22.6289096 166.952597,22.8132698 166.705674,23.4385739 L162.963544,23.4385739 C162.823812,23.3017292 162.685994,23.1648845 162.442899,22.9216051 L158.892183,22.9216051 C158.649088,22.6802264 158.505528,22.5414811 158.33517,22.3685247 C158.132272,22.5357792 157.935116,22.7030338 157.653739,22.9368101 C157.538891,22.5927978 157.523577,22.121444 157.303452,21.9865 C156.924454,21.7527237 156.813434,21.2490593 156.327244,21.1426246 C155.963559,21.1616308 155.586475,21.1825376 155.241931,21.2015438 C155.0888,21.6196803 154.966296,21.9598913 154.899301,22.1423508 C154.353773,22.4160402 153.942235,22.6194065 153.50007,22.8398785 C153.366081,22.72204 153.161268,22.5376799 152.812896,22.23168 C152.47218,22.6954313 152.127636,23.1667852 151.926652,23.4442757 C150.981071,23.6685489 150.464255,23.227605 149.890015,23.0413442 C149.742627,23.187692 149.604809,23.3245366 149.444022,23.4822881 C149.23921,23.2998286 149.032483,23.1211703 148.812358,22.9235058 L143.514038,22.9235058 C143.309226,23.1116672 143.100585,23.2998286 142.901515,23.4803875 C142.689047,23.2960273 142.486148,23.1249715 142.300477,22.9691207 C142.068867,23.1534808 141.869798,23.3112323 141.678384,23.4632819 C141.488885,23.2732199 141.347239,23.132574 141.211336,22.9995306 C140.834252,23.2104994 140.453339,23.4195677 140.101139,23.6153315 C139.783393,23.322636 139.570924,23.1287728 139.358455,22.9330089 C139.151729,23.1249715 138.93926,23.3188348 138.751675,23.4917912 L137.664447,23.4917912 C137.279707,23.227605 136.975359,23.0204374 136.726522,22.8493816 C136.307327,23.0888597 136.012551,23.2580149 135.750314,23.4081639 C135.499563,23.2143007 135.275609,23.0470461 135.110994,22.9197045 L133.499294,22.9197045 C133.304052,23.0850585 133.087755,23.2732199 132.859973,23.472785 C131.514338,23.543108 131.514338,23.543108 131.435858,23.97835 C131.711494,24.0163624 132.015841,23.9973562 132.247451,24.1113934 C132.494374,24.238735 132.676217,24.4934181 132.859973,24.6663745 L134.613319,24.6663745 C134.848758,24.46871 135.051656,24.2976542 135.22967,24.1494058 C135.491906,24.3603747 135.708203,24.539033 135.89196,24.6853807 C136.527452,24.6606727 137.159116,24.8203248 137.511317,24.1646108 L140.610298,24.1646108 C140.822767,24.3755796 140.960584,24.5124243 141.115629,24.6644739 C141.320441,24.4782131 141.525254,24.2919523 141.751121,24.0866854 C141.936792,24.4782131 142.120549,24.8678403 142.304306,25.2536662 C142.547401,25.0522004 142.748385,24.8849459 142.85749,24.7937161 C143.674825,25.2099519 144.40411,25.5862747 145.118081,25.9492932 C145.4186,25.6870076 145.634897,25.4969456 145.858851,25.2973805 C146.057921,25.4779394 146.266561,25.6661008 146.475202,25.8580634 C146.928851,25.7535293 147.455238,26.065231 147.757671,25.6680014 C148.63243,24.9552688 147.235112,24.7918155 147.568172,24.0942878 C148.086902,24.0942878 148.663056,24.0752816 149.235381,24.1075922 C149.396169,24.1189959 149.549299,24.2862505 149.706258,24.3831821 C149.824934,24.8374304 149.511017,25.3524984 150.004863,25.8580634 L152.244399,25.8580634 C152.74973,25.1149209 153.628317,25.3905109 154.300177,25.1130203 C154.468621,25.0407967 154.585383,24.8450328 154.734686,24.6948838 L155.88508,24.6948838 C156.110947,24.4915175 156.323416,24.2995548 156.660303,23.9954556 C157.002933,24.4535051 157.358962,24.919157 157.5944,25.2289581 L161.298248,25.2289581 C161.478176,25.0502998 161.615994,24.9115545 161.859089,24.6701758 L173.181186,24.6701758 C173.412796,23.9308345 173.636749,23.3093317 174.300953,22.9140027 C174.544048,23.1933938 174.798628,23.4841887 175.060864,23.7863874 C174.940274,23.9878531 174.787143,24.2425362 174.536392,24.6644739 L179.583961,24.6644739 C179.830884,24.9058527 179.968701,25.044598 180.211796,25.2859767 L182.512584,25.2859767 C182.859042,25.5425605 183.042799,25.6794051 183.211243,25.8048461 C183.450509,25.5653679 183.592155,25.4266226 183.749114,25.2707718 C185.207683,25.2707718 186.68348,25.2650699 188.161191,25.2783743 C188.333463,25.2802749 188.503821,25.3981133 188.668436,25.4589332 C188.811996,25.5881754 188.953642,25.7155169 189.369009,26.0937403 C189.663785,25.590076 189.966218,25.0788091 190.318419,24.4820144 C190.844805,24.8013186 191.229546,25.0350949 191.51858,25.2099519 L195.053984,25.2099519 C195.256882,25.0084862 195.394699,24.8716415 195.685648,24.5808466 C195.712445,25.5520636 196.568063,25.0674054 197.073394,25.5710698 C196.75182,26.3712309 197.586382,26.5726966 198.066829,27.0668579 C198.842053,26.8615909 199.52157,26.2400881 200.41547,26.3427216 C200.47098,26.3503241 200.545631,26.2134794 200.721732,26.0329205 C200.524576,25.6889082 200.306365,25.3068836 200.053699,24.8659397 C200.310193,24.7918155 200.572429,24.7157907 200.827009,24.6397659 C201.073932,24.8678403 201.286401,25.0598029 201.514183,25.2669705 L209.769838,25.2669705 C209.989964,25.4684363 210.202433,25.6661008 210.397674,25.8447591 L210.966172,25.8447591 C211.205438,25.6337902 211.421735,25.4437282 211.582522,25.2992811 L216.329572,25.2992811 C216.501844,25.4684363 216.641576,25.6071816 216.884671,25.8485603 L222.801256,25.8485603 C223.044351,26.0918397 223.187911,26.2286844 223.337213,26.380734 L225.24369,26.380734 C225.448502,26.1792683 225.58632,26.040523 225.747107,25.8827715 C225.950005,26.0633304 226.154817,26.2476906 226.376857,26.4434545 L233.441922,26.4434545 C233.658219,26.6392184 233.868773,26.8292804 234.010419,26.9604232 C234.689936,26.5821997 235.333085,26.2210819 235.987719,25.8580634 L238.340188,25.8580634 C239.128811,25.8580634 239.917434,25.8333554 240.706056,25.8656659 C241.450654,25.8960758 241.950243,26.7817649 242.840315,26.4776656 C242.985789,26.4282495 243.278651,26.7988705 243.525574,26.9927337 C243.707417,26.8273798 243.917972,26.6430196 244.134269,26.4491563 L245.883786,26.4491563 C246.096255,26.6468208 246.310638,26.8444853 246.496309,27.0174418 L247.660102,27.0174418 C247.89554,26.8197773 248.096524,26.6487215 248.276453,26.4966718 C248.511891,26.6829326 248.709047,26.8387835 248.90046,26.9889325 C249.095701,26.7931686 249.233519,26.6563239 249.409619,26.4814669 C249.606775,26.6487215 249.809673,26.8178767 250.04894,27.0155412 L251.20699,27.0155412 C251.390747,26.846386 251.603216,26.6487215 251.790801,26.4776656 C252.085577,26.6981376 252.37844,26.9205102 252.6981,27.1618889 C253.092411,26.8767959 253.391016,26.6620258 253.641767,26.4814669 L254.767278,26.4814669 C255.050569,26.7114419 255.270695,26.8881996 255.383628,26.98133 L258.9688,26.98133 C259.162127,26.7893674 259.301859,26.6506221 259.439676,26.5137774 C259.816761,26.7285475 260.193845,26.9433176 260.542217,27.1447833 C260.863791,26.846386 261.07626,26.6487215 261.286815,26.4586594 C261.495455,26.6525227 261.709838,26.8482866 261.929963,27.0535536 L263.001878,27.0535536 C263.37322,27.1732926 263.463184,27.8480128 263.884293,27.4032677 C263.955116,27.0630567 264.008712,26.7950692 264.048909,26.5993053 C264.718855,26.2210819 265.032773,26.6183115 265.390716,27.0041374 C265.593614,26.831181 265.798426,26.6563239 265.982183,26.4985725 C266.598534,26.8520878 267.222541,27.2094044 267.83315,27.5610192 C268.045618,27.3804603 268.261915,27.1941995 268.497354,26.9946343 L271.383866,26.9946343 C271.563795,26.815976 271.705441,26.6791314 271.843258,26.5365849 C272.109323,26.6791314 272.375387,26.8197773 272.651023,26.9680257 C272.800325,26.5422867 272.920915,26.2020757 273.081702,25.7440262 C273.324797,26.2571937 273.512382,26.6544233 273.694225,27.0402492 L274.310576,27.0402492 C274.875245,27.6009322 275.42843,28.1559133 275.996927,28.7032919 C276.027553,28.7337019 276.13283,28.6861864 276.199825,28.6766833 C276.546283,28.3307704 276.898484,27.9848575 277.254512,27.6313421 L280.188878,27.6313421 C280.409004,27.431777 280.621472,27.241715 280.824371,27.0592554 C281.040668,27.2512181 281.253136,27.4431807 281.456034,27.6256403 C282.671509,27.4526838 283.479273,28.3516772 284.491849,28.6747826 C284.629667,28.5341367 284.767485,28.3953915 284.928272,28.2357394 C285.134998,28.4143977 285.33981,28.5968572 285.559936,28.7907205 L288.140187,28.7907205 C288.383282,28.4619132 288.735482,27.99246 288.988148,27.6503483 L290.906109,27.6503483 C291.074553,27.8176029 291.214285,27.9563482 291.352102,28.0950935 C291.748328,27.937342 292.140725,27.6636527 292.540779,27.6484477 C293.074822,27.6313421 293.482532,27.5059012 293.800278,27.0402492 C294.223302,27.431777 294.631012,27.8100004 295.027238,28.1806214 C295.239706,27.9981618 295.442604,27.8252054 295.628275,27.6693545 C295.859885,27.8556153 296.058955,28.0133668 296.259939,28.1749195 Z M272.834779,28.5151305 C273.231005,28.9237639 273.623402,28.9256645 274.038769,28.4619132 C273.996658,28.2300375 273.944976,27.9696525 273.893295,27.7035657 C273.343939,27.8080998 273.160182,28.2471431 272.834779,28.5151305 Z M171.397214,39.8846409 C171.669021,39.6128522 171.938913,39.348666 172.220291,39.0654736 C171.816409,38.7024551 171.424012,38.6492377 171.023958,39.0749767 C171.071811,39.3809765 170.844029,39.8105167 171.397214,39.8846409 Z M154.727029,27.6313421 C154.993094,27.5838266 155.32041,27.526808 155.758747,27.4488826 C155.299355,27.0706592 155.11177,26.6335165 154.633237,26.5403861 C154.353773,26.8767959 154.346117,27.1999013 154.727029,27.6313421 Z M152.573629,28.0342736 C152.98134,28.1121991 153.310571,28.1711183 153.96329,28.2946586 C153.844614,27.6484477 153.79676,27.391864 153.702968,26.8843984 C153.279945,27.3234416 152.969855,27.6104353 152.573629,28.0342736 Z M140.5835,35.2604318 C140.711747,34.8765065 141.297472,34.7985811 141.339583,34.2226932 C140.598813,34.0041218 139.881013,33.9851156 139.033052,34.268308 C139.100047,34.6294259 139.163213,34.9582332 139.218723,35.2604318 L140.5835,35.2604318 Z M137.379241,35.0798729 C137.719957,35.3573634 138.04536,35.3649659 138.479868,34.9867425 C138.430101,34.7225563 138.374591,34.3975502 138.296111,33.9642088 C137.915199,34.418457 137.473034,34.6028172 137.379241,35.0798729 Z M147.503091,21.0513948 C147.436096,21.480935 147.388243,21.8059411 147.302107,22.3324129 C147.761499,22.3324129 147.862948,22.3533197 147.949084,22.3286116 C148.117528,22.2753943 148.274487,22.1993694 148.435274,22.1328477 C148.364451,21.9998043 148.318512,21.8477547 148.217063,21.7375187 C148.039048,21.536053 147.828494,21.3573947 147.503091,21.0513948 Z M155.837226,11.2670018 C155.590303,11.7687655 155.36635,12.2382187 155.130911,12.7228769 C155.370178,12.9604544 155.641985,13.2341437 155.923362,13.5116343 L157.90449,13.5116343 C158.331342,12.9946656 158.873041,12.3389516 159.3956,11.7079457 C159.713346,11.9740325 159.912415,12.1412871 160.113399,12.3123429 C160.4656,11.9607282 160.469428,11.6300202 160.151682,11.2137844 C159.53916,11.1852751 158.884526,11.1567658 158.296887,11.1320577 C158.046136,10.930592 157.852808,10.7747411 157.634597,10.5998841 C157.47381,10.9971137 157.343649,11.3278216 157.20966,11.6566289 C156.734955,11.5692004 156.424865,10.835561 155.837226,11.2670018 Z M166.301792,10.8488653 L166.301792,11.4703681 C166.667391,11.6490264 167.101899,11.7972748 167.452185,12.0519579 C167.827356,12.3237466 168.12596,12.6962682 168.039824,12.6107403 C169.463939,13.4888268 169.844852,12.1812001 170.679414,12.3465541 C170.868913,12.5138086 171.083296,12.7000694 171.322562,12.9148395 C171.584799,12.3959702 171.841293,11.8771009 172.107357,11.3506291 C171.475693,10.9781075 170.788519,11.2384925 170.204709,11.1738714 C169.867821,10.915387 169.580701,10.6968157 169.247642,10.440232 C168.870558,10.7272256 168.577696,10.9476976 168.315459,11.1472627 L167.25503,11.1472627 C166.862633,11.0389273 166.787981,10.3604059 166.301792,10.8488653 Z M173.891329,10.4060208 C173.430023,10.890679 172.989772,11.0864428 172.95149,11.3164179 C173.460649,11.981635 173.876016,12.5176099 174.189934,12.9281439 C174.605301,12.9281439 174.825426,12.9889637 174.99387,12.9186408 C176.084925,12.471995 177.241062,12.2173119 178.309148,11.706045 C178.556071,11.9208151 178.76854,12.1089765 179.015463,12.3237466 L180.179256,12.3237466 C180.359184,12.1602933 180.571653,11.96643 180.784122,11.7706661 C180.983192,11.9512251 181.191832,12.1355852 181.390902,12.3142435 C181.595714,12.1355852 181.796698,11.9588275 181.984283,11.7953742 C182.212065,11.9797344 182.411135,12.1431877 182.604463,12.3009392 C182.784391,12.1222809 182.922209,11.9854362 183.06194,11.8485916 C183.733801,11.47607 184.60856,12.1792995 185.21534,11.4456601 C184.824857,11.1776726 184.646842,10.6493002 183.917558,10.5504679 C183.729973,10.6892132 183.439025,10.9020827 183.136591,11.1225546 C182.960491,10.9667038 182.753765,10.780443 182.583407,10.6245921 C182.275232,10.8450641 181.980455,11.0579335 181.666537,11.286008 C181.27414,11.0047162 180.979364,10.7918467 180.720956,10.6093872 L177.932064,10.6093872 C177.493727,10.8849771 177.187466,11.0788404 177.011366,11.190977 C176.335677,11.1092503 176.194031,10.3737102 175.493458,10.6131884 C175.347984,10.7329275 175.131687,10.9134864 174.911562,11.0959459 C174.637841,10.9134864 174.350721,10.7158219 173.891329,10.4060208 Z M267.214885,15.7505649 C266.789947,15.9140183 266.546852,16.005248 266.441575,16.0470617 C266.692326,16.4233845 266.946906,16.8035086 267.186173,17.1608252 C267.61111,16.9973718 267.854205,16.9042414 267.963311,16.8643284 C267.708731,16.4880056 267.454151,16.1059809 267.214885,15.7505649 Z M119.625658,24.5010206 C119.962545,24.7804118 120.287948,24.7880142 120.720542,24.4078902 C120.676517,24.143704 120.617179,23.8205985 120.538699,23.3834559 C120.159701,23.8415053 119.71945,24.0239649 119.625658,24.5010206 Z M115.117874,24.4192939 C116.205102,24.7823124 116.922902,24.7652068 117.774691,24.5124243 C117.711525,24.1532071 117.659843,23.8243998 117.606247,23.512698 L116.624297,23.512698 C116.059628,23.8529091 115.680629,24.0809835 115.117874,24.4192939 Z M114.424958,25.8656659 C114.949431,25.7725355 115.445191,26.0367217 115.868215,25.6756039 C115.931381,24.8526353 115.012597,25.6014797 114.892007,25.0750079 C114.800128,24.5485361 114.706336,24.018263 114.562776,23.1971951 C114.0785,24.2900517 114.088071,25.0712066 114.424958,25.8656659 Z M42.6832524,37.4328408 C43.037367,37.7008282 43.3627696,37.7198344 43.785793,37.3207042 C43.7341114,37.0603192 43.6652026,36.7372138 43.5082437,35.9541582 C43.3149163,36.8455491 42.6947372,36.8987665 42.6832524,37.4328408 Z M370,33.8159604 C369.756905,34.3139229 369.517638,34.7985811 369.247746,35.3535622 C369.435331,35.6139472 369.640143,35.9009408 369.785617,36.1100091 C369.326225,36.6231765 368.878318,37.1287415 368.439982,37.6172009 C368.175831,37.3834246 367.95762,37.1933626 367.651359,36.9253752 C367.345097,37.0907291 367.023523,37.2636856 366.474167,37.5582817 L365.007941,37.5582817 C364.764846,37.7578468 364.544721,37.9365051 364.282485,38.147474 C364.108299,37.997325 363.9054,37.8281698 363.666134,37.6286047 L361.378745,37.6286047 C361.068655,37.3872259 360.779621,37.1610521 360.425507,36.8854621 C360.06565,37.1629527 359.774701,37.3872259 359.504809,37.5943935 L355.99046,37.5943935 C355.755022,37.3948284 355.554038,37.2275738 355.314771,37.026108 C355.161641,37.4252383 355.029566,37.7635487 354.899405,38.0980579 C354.327079,38.4268652 354.009333,38.0315361 353.672445,37.6666171 C353.553769,37.7749524 353.385325,37.8604803 353.329815,37.9916231 C353.228366,38.2387038 353.193912,38.5104924 353.123089,38.8126911 C352.765146,38.5466042 352.472284,38.3356354 352.129654,38.0828529 C351.777454,38.3451385 351.486505,38.5656104 351.216613,38.7670762 L350.156183,38.7670762 C349.748473,38.4971881 349.444125,38.2957224 349.126379,38.0866541 C348.812462,38.3299335 348.588508,38.5009893 348.345413,38.6891508 C348.081263,38.5332999 347.784572,38.3622441 347.369205,38.1189647 C347.108883,38.3033248 346.810278,38.5123931 346.498275,38.7309644 C346.327917,38.5789148 346.117362,38.3964552 345.979545,38.2748155 C345.4589,38.542803 344.970797,38.7936849 344.360188,39.103486 C345.085645,39.4132871 345.728793,39.7021813 346.391083,39.9530632 C346.563355,40.0176843 346.779652,39.9625663 346.976808,39.9625663 C347.497452,40.3654978 348.203767,40.6391871 347.979814,41.4279445 C348.823946,42.2642174 349.595342,43.0244655 350.360995,43.7847136 L350.360995,45.0068125 C351.274037,45.5427874 351.580298,46.5273087 352.024377,47.4206002 C351.886559,47.5574448 351.748742,47.6942895 351.60901,47.8311342 C351.96121,48.4583388 352.311497,49.0817423 352.723035,49.8077792 L352.723035,52.001095 C352.514395,52.2253682 352.319153,52.436337 352.114341,52.6606102 L352.114341,53.7952805 C351.811908,54.0955785 351.534359,54.3711684 351.239582,54.6619633 C351.113249,54.5175162 350.981174,54.3768703 350.831872,54.2153176 C350.259546,54.1088828 350.020279,54.9736651 349.407757,54.7208826 C349.003875,55.1238141 348.596164,55.5229443 348.117631,56 C347.717577,55.7339132 347.415144,55.5286462 347.015091,55.2625593 L345.971888,55.2625593 C345.751763,55.0553917 345.53738,54.8596278 345.317255,54.6562615 L343.567737,54.6562615 C343.355268,54.4623982 343.144714,54.2742368 342.955214,54.0993797 C342.735089,54.2837399 342.532191,54.4528951 342.335035,54.6201497 C342.158935,54.4471933 342.021118,54.308448 341.691887,53.9796407 C341.402853,54.458597 341.115733,54.9375533 340.824784,55.4279133 C340.195035,54.8368204 339.781582,54.4471933 339.35473,54.048063 L336.431849,54.048063 C336.271062,53.8884109 336.13133,53.7515662 335.888235,53.5082869 L329.376355,53.5082869 C329.13326,53.2669081 328.995442,53.1281628 328.849968,52.9856163 C328.30444,53.3068211 327.739771,53.5900135 327.025799,53.4721751 C326.838214,53.3068211 326.621917,53.1186597 326.39605,52.917194 C326.198894,53.0996535 325.990253,53.2897155 325.783527,53.4740757 L324.625477,53.4740757 C324.397695,53.2688087 324.183312,53.0730448 323.880879,52.7993555 L322.814707,53.3277279 C322.322775,53.0749454 321.696853,52.7575419 321.009679,52.4059271 C320.889089,52.5104612 320.688105,52.6853183 320.479464,52.8639766 C320.280395,52.6872189 320.071754,52.5047594 319.868856,52.3280017 C319.656387,52.5199643 319.44009,52.7138276 319.135743,52.9875169 C318.83331,52.831666 318.507907,52.6701133 318.182505,52.5047594 C317.547013,52.0105981 316.651198,52.7176288 316.032933,52.0105981 C315.495062,51.3966978 314.419319,52.096126 314.007781,51.140114 C313.783827,51.3339773 313.577101,51.5145362 313.372289,51.6950951 C313.173219,51.5183374 312.964578,51.3320767 312.754024,51.1496171 C312.616206,51.2883624 312.47456,51.4271077 312.336743,51.565853 C312.160642,51.6171697 311.984542,51.7064989 311.808442,51.7103001 C311.125096,51.7274057 310.443665,51.7179026 309.815829,51.7179026 C309.622502,51.5221387 309.480856,51.385294 309.27413,51.1781264 C309.090373,51.3225736 308.897046,51.4727226 308.650122,51.660884 C308.47785,51.5164368 308.276866,51.3510829 308.050999,51.1667227 C307.8615,51.3339773 307.654773,51.5164368 307.434648,51.7122007 L305.68513,51.7122007 C305.480318,51.5240393 305.273592,51.3339773 305.072608,51.1572196 C304.848654,51.3548841 304.630443,51.5449461 304.32801,51.8148342 C304.021749,51.6513809 303.700174,51.4841263 303.135505,51.1838283 L301.684592,51.1838283 C301.441497,50.9880644 301.221372,50.8094061 300.99359,50.6288472 C300.719869,50.799903 300.425093,50.9842632 300.189654,51.1325115 C299.314896,51.1135053 299.157937,50.2354188 298.514788,50.0111456 C298.398026,50.1251828 298.260208,50.2639281 298.04774,50.4710957 L296.215914,50.4710957 C296.145091,50.4178783 295.924966,50.2487231 295.603392,50.0054437 L290.234248,50.0054437 C289.99881,49.5797048 289.709776,49.0551336 289.564302,48.7947486 L287.374534,48.7947486 C287.152494,48.5894816 286.940026,48.3937178 286.723729,48.1903514 L284.375087,48.1903514 C284.15879,48.3956184 283.946322,48.5913823 283.643888,48.8707734 C283.34337,48.7244257 283.014139,48.5666742 282.506893,48.3233948 C282.192976,48.3443016 281.90777,48.9239908 281.247394,48.8308604 C280.778431,48.7681399 280.244388,49.1995807 279.735229,49.4124502 C279.49022,49.1957795 279.275837,49.0076181 279.048055,48.8061523 C278.854728,48.98291 278.644173,49.1710714 278.439361,49.3554316 C278.299629,49.2204876 278.161811,49.0836429 277.907232,48.8308604 C277.361704,48.8023511 276.701328,48.7700406 276.065836,48.73773 C275.847625,48.5571711 275.646641,48.3937178 275.447571,48.2302644 C275.267642,48.4070221 275.129825,48.547668 274.88673,48.7890468 L271.925566,48.7890468 C271.682471,49.0285249 271.544654,49.1691708 271.37621,49.3364254 C271.175226,49.163469 270.9685,48.9867113 270.767516,48.8099536 C270.564618,48.9867113 270.359805,49.1710714 270.132023,49.3687359 C269.944438,48.9810094 269.762596,48.5951835 269.567354,48.192252 C269.379769,48.3785128 269.241952,48.5153575 269.073508,48.6845127 C268.053275,48.1637427 267.021557,47.6391715 265.963042,47.0974947 C265.825224,47.2210351 265.612755,47.4129977 265.390716,47.6125628 L261.866797,47.6125628 C261.715581,47.7589106 261.577763,47.8976559 261.439945,48.0364011 C261.263845,48.0877179 261.087745,48.1827489 260.911645,48.1827489 C259.439676,48.1960532 257.965794,48.1903514 256.549335,48.1903514 C256.356008,47.9983887 256.216276,47.8615441 256.015292,47.6638796 L253.167062,47.6638796 C252.916311,47.4662151 252.696186,47.291358 252.422465,47.0765879 C252.250193,47.2153332 252.053037,47.3787865 251.806114,47.5802523 L250.642321,47.5802523 C250.470049,47.4244014 250.25758,47.2286375 250.029798,47.0214699 L248.287937,47.0214699 C248.07164,46.825706 247.861086,46.635644 247.652445,46.445582 C247.296416,46.7971967 246.949958,47.1431096 246.534591,47.5555442 C246.350835,47.4110971 246.157507,47.2609481 245.914412,47.0708861 C245.738312,47.2153332 245.535414,47.3806872 245.31146,47.5669479 C245.120047,47.3958921 244.915235,47.2134326 244.56112,46.8979296 C244.249117,47.3426748 243.927542,47.8045255 243.604054,48.2663762 L242.380923,47.0518799 C242.181853,47.2172338 241.980869,47.386389 241.741602,47.5859541 L239.396789,47.5859541 C239.214947,47.4167989 239.000564,47.2191344 238.780439,47.0157681 L237.622388,47.0157681 C237.400349,46.8124017 237.18788,46.6166378 236.996467,46.4398801 C236.353318,46.2080045 236.15999,46.8523147 235.786735,46.9948612 C235.124445,47.2305382 234.963657,46.5159049 234.312852,46.3923646 C234.121439,46.5102031 233.807521,46.7021657 233.438093,46.9283395 C233.300276,46.8105011 233.097378,46.6432465 232.861939,46.4436814 L227.018091,46.4436814 C226.71183,46.1985014 226.42471,45.9704269 226.083994,45.7005389 C225.710738,45.9837313 225.41979,46.2042032 225.019736,46.5064018 C224.742187,46.3733584 224.416784,46.2137063 223.78512,45.9077065 L219.784582,45.9077065 C219.639108,46.0540542 219.497462,46.1908989 219.355817,46.335346 C218.804546,46.0141412 218.243705,45.7290482 217.541219,45.844986 C217.340235,45.6682283 217.125852,45.4781663 216.89807,45.2786012 C216.700914,45.4591601 216.494188,45.6473215 216.285547,45.8354829 L215.131325,45.8354829 C214.909286,45.639719 214.704473,45.4591601 214.497747,45.2786012 C214.340788,45.4363526 214.199142,45.5731973 213.986673,45.7879674 C213.802917,45.6511227 213.613418,45.5066756 213.343525,45.299508 L211.630376,45.299508 C211.391109,45.4629613 211.092504,45.6720296 210.688622,45.9495201 C210.382361,45.7366506 210.083756,45.5256818 209.712414,45.2614956 L207.080482,45.2614956 C206.674685,44.8357566 206.094703,44.2256575 205.514721,43.6174591 C205.141465,43.9842788 205.459211,44.5031481 205.350105,44.959297 C205.196975,45.0581292 205.040016,45.2329863 204.883057,45.2386881 C203.910677,45.2652968 202.938298,45.2519925 201.753449,45.2519925 C202.015686,44.8148498 202.164988,44.5582661 202.321947,44.2978811 C201.918065,43.8702416 201.391678,44.1800427 200.936115,44.0755085 C200.717903,44.2750737 200.505435,44.4689369 200.302536,44.6551977 L198.556847,44.6551977 C198.329065,44.4575332 198.124253,44.2807755 197.936668,44.1211234 C197.689745,44.328291 197.473448,44.5107506 197.155702,44.7730362 C196.770961,44.5430611 196.38622,44.3092848 195.873233,44.003285 C195.618653,44.1705396 195.312392,44.3701047 194.967848,44.5943779 C194.814717,44.4594338 194.609905,44.2769743 194.403178,44.0945147 C194.202195,44.2750737 193.997382,44.4594338 193.798312,44.6342909 C193.589672,44.453732 193.386774,44.2807755 193.203017,44.123024 C192.967579,44.3111855 192.774251,44.4689369 192.582838,44.6209866 C192.389511,44.4309245 192.249779,44.2902786 192.100476,44.1420303 L189.009152,44.1420303 C188.800511,44.3491979 188.660779,44.4860425 188.499992,44.643794 L185.536914,44.643794 C185.356986,44.4803407 185.144517,44.2826762 184.918649,44.0793098 C184.792317,44.2142538 184.662156,44.3568003 184.53008,44.493645 C183.875447,44.8300548 183.19593,44.6266884 182.556609,44.6342909 C182.340312,44.4499307 182.137414,44.2788749 181.93643,44.1116203 C181.767986,44.2807755 181.626341,44.4214214 181.490437,44.5525642 C181.090383,44.3929121 180.697986,44.1192228 180.294104,44.1059185 C179.752404,44.0926141 179.360007,43.9443657 179.046089,43.4996206 C178.825964,43.6953845 178.619238,43.8816453 178.406769,44.0774092 L176.661079,44.0774092 C176.444782,44.273173 176.238056,44.4575332 176.033244,44.643794 C175.876285,44.4898438 175.736553,44.3529991 175.527913,44.1458315 L173.699916,44.1458315 C173.621436,44.2028501 173.401311,44.3720053 173.165873,44.5525642 C172.562921,44.2446637 171.935085,43.9196577 171.123493,43.5034218 L170.177911,43.5034218 C169.957786,43.2981549 169.745317,43.1004904 169.530934,42.9047265 L164.820253,42.9047265 C164.603956,43.0985897 164.399143,43.2829499 164.192417,43.4673101 C164.035458,43.3095586 163.893812,43.1689127 163.677515,42.952242 C163.497587,43.0890866 163.306173,43.2335338 163.093705,43.3969871 C162.006477,43.4540057 162.006477,43.4540057 161.284849,42.937037 C161.085779,43.1061922 160.884795,43.2810493 160.701038,43.4369001 C160.080859,43.0833848 159.46068,42.7279688 158.83093,42.3725528 C158.700769,42.4998944 158.562952,42.6386396 158.360054,42.8401054 L156.696672,42.8401054 C156.445921,43.0339686 156.225795,43.2069251 155.946332,43.4254964 C155.777888,43.2905524 155.578818,43.1309003 155.339552,42.937037 C154.950983,43.307658 154.539444,43.6934839 154.120249,44.0869123 L151.77735,44.0869123 C151.631876,44.2313594 151.488316,44.3701047 151.29116,44.5696698 C150.778173,44.3206886 150.24413,44.058403 149.713915,43.8018192 L149.713915,43.1936207 C149.643092,43.1251984 149.578011,43.0016581 149.50336,42.9959562 C148.925292,42.9503414 148.297456,43.0586767 147.776812,42.8648134 C147.263824,42.6747514 146.879084,42.1615839 146.232107,42.3117329 C146.140228,42.3326398 146.034951,42.3136336 145.910532,42.3136336 C145.709548,42.4941925 145.49708,42.6899564 145.26547,42.8952234 L144.105505,42.8952234 C143.900693,42.7108632 143.690138,42.5227018 143.429816,42.2870249 C143.297741,42.6576458 143.179065,42.9997575 143.025934,43.4369001 C142.692875,43.4597076 142.315791,43.4844156 141.990388,43.5053225 C141.347239,43.3038567 141.062033,42.7545775 140.617955,42.3896584 C140.06477,42.4713851 140.321264,42.9465401 140.191103,43.2563412 C139.685772,43.6516702 139.100047,43.6193597 138.610029,43.3095586 C137.689331,42.7279688 136.628901,42.4219689 135.742658,41.790963 C135.601012,41.9278077 135.46128,42.0665529 135.267953,42.2604162 L131.816771,42.2604162 C131.569848,42.4561801 131.349722,42.6348384 131.087486,42.8477079 C130.909472,42.6994595 130.706574,42.5341055 130.486448,42.3478447 C130.295035,42.5208012 130.090223,42.7051613 129.87584,42.897124 C129.749507,42.7640806 129.61169,42.6234347 129.33414,42.3421429 C128.623997,42.2357081 127.753066,42.376354 126.968272,42.3003292 C126.686894,42.5455092 126.470597,42.7336706 126.284926,42.897124 C125.368057,43.0111612 125.168987,42.1539815 124.631116,41.7966649 L123.203172,41.7966649 C123.136178,42.1273728 123.080668,42.3934596 122.99836,42.786888 C122.198252,43.0111612 121.319665,42.8515091 120.46022,42.9066271 C120.021883,43.5680429 119.064817,43.4064902 118.597768,44.0641048 C118.178573,43.0149624 116.813796,43.9804775 116.417571,42.9579438 C116.071113,43.1556083 115.770594,43.3228629 115.464332,43.4939187 C114.664225,43.4806144 114.451756,42.676652 113.898572,42.3231367 C113.760754,42.4599813 113.617194,42.6006272 113.479377,42.7393725 C113.404725,42.7925899 113.326246,42.8933227 113.251595,42.8952234 C112.271559,42.9066271 111.289608,42.9028258 110.353597,42.9028258 C110.171755,43.0852854 110.032023,43.2240307 109.878892,43.3760803 C109.231915,43.5167262 108.552398,43.7562043 108.081521,42.9028258 C107.838426,43.0985897 107.639357,43.2582418 107.396262,43.4559063 C107.007693,43.087186 106.599982,42.6994595 106.199929,42.3212361 L88.450173,42.3212361 C88.3046989,42.4656832 88.1630531,42.6044285 88.0233214,42.7431737 C87.8472211,42.7963911 87.6768633,42.8895215 87.4969348,42.8952234 C86.8155034,42.9123289 86.132158,42.9028258 85.4966658,42.9028258 C85.3090808,42.7146644 85.1674349,42.5759192 84.9664509,42.376354 L83.1441963,42.376354 C83.0523179,42.4485776 82.8302785,42.6215341 82.5546433,42.8401054 C82.3861996,42.7013601 82.1833015,42.5398074 81.9382925,42.3402423 L79.7064134,42.3402423 C79.2451073,42.1121678 79.0288103,41.50587 78.4162877,41.7282425 C78.2019048,41.9221058 77.9894361,42.1178697 77.7846238,42.3041305 L64.2019359,42.3041305 C63.974154,42.1083666 63.7712559,41.9316089 63.5626154,41.75105 C63.1549051,42.3269379 62.6323468,42.4941925 61.5661747,42.0399443 C61.49918,41.9848263 61.3785896,41.8935965 61.2446003,41.7871618 C61.0761566,41.925907 60.8751727,42.0893604 60.6320778,42.2908261 L57.6938836,42.2908261 C57.5216116,42.1349753 57.3072287,41.9392114 57.0756186,41.7339444 L51.786869,41.7339444 C51.5648296,41.530578 51.3523609,41.3348141 51.1398921,41.1409509 C50.5216271,40.9185783 50.3168149,41.5381805 49.8459382,41.7529506 C49.0936839,41.5514848 48.4141667,40.9318826 47.5240948,41.0440192 C47.1202127,40.1146159 46.1267777,40.7570256 45.4606594,40.2685662 C44.8404803,39.8124173 44.1590489,39.2118213 43.3149163,39.3410635 C43.2019824,38.9096227 43.1311595,38.6454365 43.0411952,38.3052255 C42.8057569,38.25771 42.5377783,38.2006913 42.1587799,38.1227659 C41.7893522,37.2674868 42.1185831,36.330481 41.9692808,35.4675994 C42.4880108,35.2870405 42.8325547,35.1673014 43.1426443,35.0589661 C42.8957211,34.6218234 42.6794241,34.2302956 42.3425367,33.6335009 C42.2487442,33.5992897 41.9042002,33.4833519 41.5615704,33.3636128 C41.2514809,32.916967 41.3471875,32.3372779 41.886973,31.540918 C41.8257208,31.4192783 41.7702109,31.280533 41.699388,31.1493902 C41.6055955,30.9897381 41.5022323,30.8395891 41.354844,30.6134153 C41.5577422,30.2522975 41.7778674,29.8569684 41.9941645,29.4673413 C41.9692808,28.7793168 41.4199246,28.5303355 40.8437705,28.1293046 C40.577706,28.292758 40.2676165,28.48282 39.9269008,28.688087 C39.699119,28.5398386 39.4043425,28.3497766 39.0119452,28.0950935 C38.7095122,28.3269691 38.4128216,28.5455405 38.0835907,28.7964223 L36.8872576,28.7964223 C36.7762378,28.4733169 36.6594757,28.1312053 36.5369712,27.7833917 C36.1560587,27.5001993 36.1369174,28.0133668 35.5645916,28.142609 L32.331621,28.142609 C32.0138749,27.9981618 31.5717101,27.8518141 31.1907977,27.6104353 C30.7984004,27.3614541 30.461513,27.0193424 30.1552517,26.7665599 L30.1552517,25.5672685 C29.6575771,25.0617035 29.037398,24.4554057 28.461244,23.8795178 C28.3712797,23.377754 28.4344461,22.8113692 28.1817806,22.4844625 C27.7204745,21.891469 27.7912974,20.9563638 26.8801701,20.5990472 L25.2053037,20.5990472 C24.9775219,20.3937802 24.763139,20.2018176 24.5430137,20.0098549 C24.2712068,20.2265256 23.9898292,20.4507988 23.8290421,20.5819416 C23.051904,20.5458298 22.8949451,19.9775444 22.4795783,19.7133582 L22.4795783,18.5634829 C22.274766,18.343011 22.0756962,18.1320421 21.8823688,17.9267751 C22.0642114,17.7253094 22.2556247,17.5200424 22.4432097,17.316676 C22.0756962,16.9555582 21.727324,16.6096453 21.2755886,16.1591983 L21.2755886,13.2094357 C20.7568585,12.73238 20.2323861,13.0440817 19.8112768,12.9167401 C19.5815809,12.7228769 19.3805969,12.5461192 19.1681281,12.3636596 C18.7967863,13.0440817 18.172779,12.9167401 17.5966249,12.9281439 C17.2865354,12.7304794 16.9764458,12.5309142 16.6108464,12.2971379 C16.2280198,12.5043055 15.827966,12.7209763 15.3838871,12.962355 C15.0029747,12.7513862 14.6105774,12.5252124 14.3483412,12.3788646 C13.6822229,12.2306162 13.6190565,12.8198085 13.021847,12.9167401 L11.5001112,12.9167401 C11.3469806,12.7646905 11.2072489,12.6259452 10.9756388,12.3959702 C10.8033668,12.5214111 10.6176959,12.6639576 10.3324901,12.8730259 L5.61223804,12.8730259 C5.50696072,12.787498 5.28683542,12.6107403 4.99397307,12.3788646 L2.79846249,12.3788646 C2.0806626,11.6319209 1.40497364,10.930592 0.591467105,10.0810147 L0.591467105,8.59853093 C0.386654871,8.37235712 0.191413303,8.15948765 -8.52651283e-14,7.94661818 C0.679517225,7.52848173 0.516815917,6.58197284 1.18867661,6.09731468 C1.73420452,5.70388629 2.13043006,5.11089277 2.52282733,4.68325321 L7.45746227,4.68325321 C7.58188092,4.34494281 7.70438543,4.00283116 7.86134434,3.55998664 L12.6658182,3.55998664 C12.9089131,3.31670725 13.0467307,3.17606135 13.3759616,2.85105529 L14.2392356,4.28602358 C14.6584307,3.90780015 14.8670712,3.72343999 15.0661411,3.54098044 C15.2786098,3.73294309 15.4929927,3.92870697 15.7169463,4.13397396 L16.8348,4.13397396 C17.0893797,4.35254529 17.3056767,4.53690545 17.5927967,4.78398609 C18.3182531,4.41336514 19.0475378,4.04084357 19.9931195,3.5561854 L22.0833527,3.5561854 C22.3111346,3.35281904 22.5274316,3.16275701 22.76287,2.94988754 L23.9228346,2.94988754 C24.1199903,3.13044647 24.3343732,3.32240911 24.5353571,3.50676928 C24.7420835,3.32621035 24.9468957,3.14375081 25.138309,2.97839685 C25.3622626,3.16275701 25.5632466,3.32621035 25.7584881,3.48776307 C25.9422449,3.30530353 26.0800625,3.16655825 26.3231574,2.92517948 L31.6501896,2.92517948 C31.8932845,2.68190009 32.0349303,2.54315481 32.1995458,2.38160209 C32.4024439,2.55455853 32.6034279,2.73321683 32.8312097,2.92898072 L39.3143782,2.92898072 C39.5153622,2.74271994 39.7335734,2.54505543 39.9192443,2.37399961 C40.5030549,2.18393758 40.7882607,2.6362852 41.1060068,2.90617328 C41.3471875,2.71040939 41.5462574,2.54885667 41.7414989,2.39110519 C41.9233416,2.57736597 42.0649874,2.71421063 42.2257746,2.87766397 L46.4962054,2.87766397 C46.6933611,2.67809885 46.836921,2.53935357 46.9977082,2.37970147 C47.1986922,2.55455853 47.4054185,2.73511745 47.6102308,2.917577 C47.8112148,2.74081932 48.0217694,2.55455853 48.2189251,2.37970147 C48.4371363,2.57166411 48.6534333,2.76362676 48.9558663,3.03541545 C49.2621276,2.87576335 49.5837019,2.70660815 50.1636842,2.40821077 L54.7767448,2.40821077 C54.9528451,2.58116721 55.0906627,2.71991249 55.2476216,2.87386273 L57.7417369,2.87386273 C57.9465491,2.67239699 58.0862808,2.53365171 58.247068,2.37590023 C58.4518802,2.55645915 58.6528642,2.7389187 58.8749036,2.93468258 L65.3504157,2.93468258 C65.5667127,3.13044647 65.7753532,3.32050849 65.9820796,3.5086699 C66.131382,3.36042152 66.2691995,3.22357686 66.5161227,2.98029747 L68.8819911,2.98029747 C69.125086,2.73701808 69.2667319,2.60017342 69.3490396,2.51464551 C69.9749611,2.69900567 70.564514,2.87386273 71.0660169,3.02211111 C71.485212,2.72371373 71.7838168,2.51084427 72.1800423,2.22575123 C72.4977884,2.46332876 72.7925649,2.68190009 73.1371088,2.93848382 L75.4206695,2.93848382 C75.6388807,3.13994957 75.8513495,3.33571345 76.0714748,3.54288106 L77.2352676,3.54288106 C77.6946596,4.27271924 78.3780051,4.1472783 79.0996332,4.04084357 C79.2202236,3.72153937 79.3465564,3.38322896 79.5035153,2.96129126 C79.7198123,3.13234709 79.9150539,3.28819795 80.2634261,3.56188726 L82.5737847,3.56188726 C82.8168795,3.80326604 82.9546971,3.94201131 83.1078278,4.09406093 C83.31264,3.90780015 83.5231946,3.72153937 83.7356634,3.52387486 L85.4813527,3.52387486 C85.6976498,3.33191221 85.9043761,3.14565143 86.1091884,2.95939064 C86.2661473,3.11334088 86.405879,3.25398678 86.6145195,3.45925377 L88.4425165,3.45925377 C88.520996,3.40033454 88.7411213,3.22927872 89.0550391,2.98789995 L91.5051294,2.98789995 C91.7329112,3.03731607 91.8975266,3.74244619 92.5732156,3.50106742 C92.737831,3.35471966 92.9541281,3.16655825 93.197223,2.95178816 L96.7192277,2.95178816 C96.8474746,3.06582538 96.9891205,3.19506756 97.1901044,3.37562648 C97.7547737,3.76525363 98.464917,3.34711718 99.0563842,3.57709223 C99.2573681,3.38132834 99.3970998,3.24258306 99.6401947,3.00120429 L102.599444,3.00120429 C102.842539,2.7579249 102.982271,2.61917962 103.202396,2.40060829 C103.378497,2.53935357 103.567996,2.68380071 103.822575,2.87576335 C103.994847,2.74081932 104.190089,2.58306783 104.398729,2.41581325 C104.794955,2.55455853 105.003595,3.17226011 105.595063,2.93468258 C105.799875,2.74271994 106.018086,2.54695605 106.222898,2.35689402 L107.384777,2.35689402 C107.614473,2.56406163 107.83077,2.7579249 108.148516,3.04491856 C108.498802,2.85105529 108.877801,2.64198706 109.254885,2.43481946 C109.396531,2.57166411 109.536262,2.71040939 109.702792,2.87956459 L113.374099,2.87956459 C113.573169,2.68190009 113.710987,2.54315481 113.87943,2.37780085 L115.663402,2.37780085 C116.013689,2.54885667 116.228072,3.15895577 116.844422,2.93848382 C117.053063,2.74271994 117.271274,2.54505543 117.472258,2.35879465 L121.610614,2.35879465 C121.966642,2.71421063 122.316929,3.06012352 122.676786,3.41744013 C123.258682,3.28629733 123.488378,2.71801187 123.951598,2.37590023 L125.084765,2.37590023 C125.308719,2.17063324 125.525016,1.97867059 125.756626,1.76770175 C126.328952,1.54152794 126.575875,2.07560223 126.949131,2.32838472 C127.090776,2.18963944 127.230508,2.05089416 127.368326,1.91214889 C127.446805,1.86273276 127.525285,1.76960237 127.603764,1.76960237 C131.252102,1.76199989 134.900439,1.76390051 138.550691,1.76009927 C138.644483,1.76009927 138.732534,1.7258881 138.822498,1.70498128 C138.962229,1.56813662 139.103875,1.42939134 139.279976,1.25073304 C139.555611,1.41798762 139.840817,1.59094406 140.250441,1.8380247 C140.508849,1.67077011 140.81511,1.46740375 141.129028,1.26023614 C141.705182,1.58904344 142.325361,1.94445943 142.953197,2.30557728 C143.073787,2.18393758 143.215433,2.04709292 143.443215,1.82091911 C144.011712,1.78860857 144.677831,1.75059616 145.324808,1.716385 C145.477938,1.56053414 145.619584,1.42368948 145.757402,1.28304358 C146.498171,1.41988824 146.689585,2.48803682 147.717474,2.33028534 C147.811266,2.05279478 147.91463,1.71828562 148.027564,1.37427335 C148.647743,0.95993814 149.346401,1.25833552 149.997206,1.17660885 C150.217332,0.973242482 150.427886,0.775577976 150.632699,0.587416571 C150.749461,0.587416571 150.871965,0.549404166 150.942788,0.593118431 C151.878799,1.20511815 153.059819,1.18231071 153.978603,1.83612408 C154.252324,1.61565213 154.472449,1.43699382 154.730857,1.22602498 C154.910786,1.3780746 155.11177,1.54913042 155.331895,1.73349058 C155.523308,1.5567329 155.731949,1.36857149 156.053523,1.0777766 C156.394239,1.26783862 156.77898,1.48450933 157.358962,1.80951539 C157.638425,1.3970808 157.967656,0.916223874 158.241377,0.513292381 C159.045313,0.794584178 159.045313,0.794584178 159.453024,1.78480733 C159.661664,1.35526715 159.845421,0.980844963 160.021521,0.629230216 C160.657013,0.992248684 161.277192,1.35146591 161.905028,1.70878252 C162.031361,1.58144096 162.171092,1.44079506 162.312738,1.30204979 C162.842953,1.27924234 163.28129,2.33788782 163.882327,1.45219879 C163.706227,1.2469318 163.533955,1.04546605 163.363597,0.847801545 C163.463132,0.747068672 163.530127,0.617826495 163.602864,0.617826495 C164.584814,0.604522153 165.568679,0.608323393 166.529573,0.608323393 C166.765012,0.397354546 166.97748,0.2053919 167.180379,0.022932356 C167.385191,0.20349128 167.591917,0.382149584 167.777588,0.547503545 C168.024511,0.340335938 168.240808,0.157876394 168.428393,0.000124913031 C169.247642,-0.0131794287 169.714691,1.04166481 170.593278,0.591217811 C171.048841,0.460075014 171.224942,-0.220347036 172.308341,0.171180736 C172.304513,0.169280115 172.15521,0.623528355 172.271972,0.946633798 C172.346624,1.02265861 172.413618,1.14809954 172.488269,1.15000017 C173.075908,1.16710575 173.665461,1.15950327 174.272241,1.15950327 C174.465569,0.984646203 174.679952,0.796484798 174.880936,0.614025254 C175.097233,0.8059879 175.311616,0.997950545 175.508771,1.17660885 C175.640847,1.17660885 175.767179,1.21462125 175.830346,1.16900637 C176.291652,0.832596583 176.743387,0.479081216 177.250632,0.0856528243 C177.394192,0.199690039 177.591348,0.365044001 177.81913,0.549404166 C178.006715,0.382149584 178.211527,0.199690039 178.441223,0.00202553328 C178.764712,0.344137179 179.101599,0.697652545 179.48634,1.10248466 L189.711638,1.10248466 C189.931764,0.920025115 190.153803,0.739466191 190.463893,0.482882457 C190.848633,0.712857507 191.241031,0.944733178 191.68511,1.20891939 C192.056451,1.00935427 192.456505,0.792683558 192.979064,0.50949114 C193.237471,0.701453786 193.532248,0.918124494 193.88062,1.17280761 L195.566971,1.17280761 C195.77944,1.36857149 195.989995,1.5567329 196.194807,1.7448943 C196.347938,1.59284468 196.485755,1.45409941 196.625487,1.31725475 C197.293519,1.0967828 197.940496,0.980844963 198.474539,1.71068314 L200.310193,1.71068314 C200.696848,1.37047211 201.18878,0.940931937 201.694111,0.494286178 C202.168816,0.769876115 202.565042,0.996049925 203.039747,1.26973924 C203.338351,1.03786357 203.631214,0.813590381 203.899192,0.606422773 L205.047672,0.606422773 C205.298424,0.821192862 205.514721,1.00935427 205.706134,1.17660885 L207.319748,1.17660885 C207.484364,1.30014916 207.706403,1.47120499 208.024149,1.71258376 L209.720071,1.71258376 C209.951681,1.5567329 210.259856,1.35146591 210.524007,1.17090699 C211.398766,1.18231071 211.616977,1.98437246 212.344347,2.46332876 C212.63721,2.03378858 212.951128,1.56813662 213.268874,1.10438528 C213.555994,1.39137894 213.697639,1.5282236 213.889053,1.72018624 C214.080466,1.566236 214.277622,1.40848452 214.509232,1.22222373 C214.692989,1.37997522 214.897801,1.55293166 215.127497,1.75059616 L219.239055,1.75059616 C219.438124,1.57193786 219.650593,1.37997522 219.855405,1.19561505 C220.062132,1.37617398 220.266944,1.5567329 220.469842,1.73729182 C220.630629,1.57763972 220.768447,1.43699382 220.984744,1.22602498 C221.164672,1.36286963 221.354172,1.50921739 221.608751,1.70308066 C221.777195,1.56433538 221.980093,1.40278266 222.207875,1.21842249 C222.393546,1.37997522 222.596444,1.5567329 222.801256,1.73729182 C223.000326,1.56053414 223.212795,1.37617398 223.411865,1.19941629 C223.616677,1.37997522 223.823403,1.55863352 224.024387,1.7353912 C224.189003,1.57193786 224.32682,1.43319258 224.52589,1.23552808 L226.935783,1.23552808 C227.033404,1.31155289 227.255444,1.48640995 227.554048,1.72208686 L229.303566,1.72208686 C229.441384,1.60424841 229.657681,1.42178886 229.900775,1.21462125 C230.092189,1.37997522 230.293173,1.56053414 230.51904,1.75629803 L237.082603,1.75629803 C237.191708,2.07560223 237.304642,2.41391263 237.423318,2.7579249 C238.054982,3.12284399 238.742156,2.8890677 239.404446,2.917577 C239.546092,2.77883172 239.685824,2.63818582 239.823641,2.50134116 C239.999741,2.45192504 240.175842,2.36259589 240.353856,2.35879465 C241.035287,2.33978844 241.718633,2.35119216 242.369438,2.35119216 C242.754179,3.05632228 243.382014,2.92517948 244.025163,2.94038444 C244.205092,2.79783792 244.425217,2.62298086 244.687453,2.41581325 L250.695917,2.41581325 C250.896901,2.617279 251.038547,2.75602428 251.199334,2.917577 L252.935452,2.917577 C253.159406,3.12094337 253.371875,3.31670725 253.584343,3.51057052 C253.794898,3.32430973 254.003539,3.13044647 254.202608,2.95178816 L258.909462,2.95178816 C259.148728,3.16465763 259.365025,3.35471966 259.671286,3.62460773 C259.977548,3.46115439 260.299122,3.29009857 260.710661,3.07342786 C260.894417,3.18176321 261.181537,3.35471966 261.593076,3.60180029 C261.851484,3.42884385 262.153917,3.2273781 262.557799,2.95749002 L265.373489,2.95749002 C265.593614,2.75222304 265.806083,2.55455853 266.075976,2.3074779 C266.19848,2.67239699 266.315242,3.01260801 266.433918,3.35471966 C266.868427,3.6873282 267.358445,3.46875687 267.802524,3.49346494 C268.018821,3.31290601 268.221719,3.14185019 268.468642,2.93278196 C268.617944,3.33191221 268.744277,3.67022262 268.872524,4.00853302 C269.540556,4.15107954 270.218159,4.32783723 270.704349,3.56188726 L275.47054,3.56188726 C275.623671,3.69493068 275.83614,3.88309209 276.071578,4.08265721 C276.26682,3.90780015 276.471632,3.72153937 276.678358,3.53337796 C276.812348,3.66642138 276.950165,3.80516666 277.197088,4.04844605 L278.929379,4.04844605 C279.26818,4.33163847 279.471078,4.50079367 279.668234,4.66614763 C279.844334,4.48938995 279.982152,4.35254529 280.169737,4.16818512 L282.644711,4.16818512 C282.839953,4.36204839 282.97777,4.50079367 283.150042,4.66804825 C283.351026,4.49889305 283.553924,4.32593661 283.766393,4.14157644 C283.963549,4.32023474 284.174103,4.50839615 284.386572,4.70416004 L287.904749,4.70416004 C288.121046,4.90182454 288.327772,5.08238347 288.532584,5.26484301 C288.831189,4.97024687 289.112567,4.69085569 289.340348,4.46468188 C289.407343,4.13967582 289.464767,3.87168837 289.516449,3.61130339 C290.215107,3.65121642 289.860993,4.17198636 290.249562,4.64904205 C290.835286,4.81249539 291.713873,4.65284329 292.596289,4.70416004 C292.799187,4.52740235 293.015484,4.33734033 293.266235,4.11496776 C293.513158,4.11496776 293.842389,4.02753923 294.091227,4.13017272 C294.839653,4.44377506 295.553624,4.82960097 296.286737,5.1888182 C296.459009,5.04437106 296.675306,4.8600109 296.985396,4.59962592 C297.291657,4.77448298 297.609403,4.95504191 297.965432,5.15840828 C298.189385,5.03486796 298.478419,4.76307926 298.796166,4.72316624 C299.452713,4.63953895 299.84511,3.80706728 300.616506,4.11496776 L302.559351,5.13560083 L303.187187,5.75900427 C303.256095,5.76850738 303.35563,5.81222164 303.390085,5.78181172 C303.543215,5.65637078 303.673376,5.51002302 303.857133,5.3294641 L305.061123,5.3294641 C305.202769,5.44920317 305.419066,5.63166272 305.662161,5.83883033 C305.849746,5.66967512 306.054558,5.49101682 306.280426,5.29525293 L308.018458,5.29525293 C308.238584,5.09188657 308.451053,4.8980233 308.665435,4.70035879 C309.356437,4.70035879 310.047439,4.70035879 310.740356,4.70225941 C310.834148,4.70225941 310.926027,4.71746438 311.023647,4.72506686 C311.161465,4.86381214 311.305025,5.00065679 311.450499,5.14890517 C311.89075,5.40929015 312.365455,5.27244549 312.893755,5.2268306 C313.008603,4.9075264 313.133022,4.56731538 313.286153,4.13587458 C313.50245,4.3069304 313.697691,4.4570794 314.044149,4.7288681 L316.945975,4.7288681 C317.18907,4.97024687 317.330716,5.10899215 317.487675,5.26864425 L320.410556,5.26864425 C320.636423,5.47391124 320.848892,5.6677745 321.072846,5.87304149 L322.236639,5.87304149 C322.445279,5.6772776 322.657748,5.4796131 322.849161,5.30475603 L324.041666,5.30475603 C324.407265,5.92815948 325.002561,5.89965017 325.594028,5.87684273 C325.682078,5.89774955 325.795012,5.89394831 325.858178,5.94716568 C326.011309,6.06880538 326.143384,6.21895438 326.281202,6.35579903 C327.010486,7.07993535 327.739771,7.80407167 328.461399,8.52250612 C328.199163,8.78099047 328.061345,8.91973575 327.756998,9.22003375 C328.446086,9.73890308 329.13326,10.2539712 329.623278,10.6207909 C329.682616,11.5768029 329.376355,12.3009392 330.274083,12.5993366 C329.79555,13.072591 329.447178,13.4185039 329.073922,13.7872242 L329.073922,14.9370995 C328.804029,15.2183913 328.53605,15.4977824 328.214476,15.8284904 C328.019234,15.6707389 327.822079,15.5129874 327.588555,15.3267266 C327.402884,15.4844781 327.199986,15.6574345 326.968375,15.8531984 L323.446371,15.8531984 C323.249215,15.6745401 323.036746,15.4768756 322.818535,15.2754099 L317.525957,15.2754099 C317.303918,15.079646 317.099106,14.8971864 316.894293,14.7185281 C316.733506,14.8762796 316.593774,15.0150249 316.39279,15.2164906 L314.568622,15.2164906 C314.478657,15.1480683 314.258532,14.9751119 313.977155,14.7565405 C313.808711,14.8914846 313.611555,15.0511367 313.383773,15.2354968 C313.196188,15.0739441 312.991376,14.8990871 312.765508,14.7014226 L309.85794,14.7014226 C309.633987,14.4980562 309.415776,14.3003917 309.19565,14.0989259 L306.280426,14.0989259 C306.054558,13.9012614 305.849746,13.7226031 305.644933,13.5458454 C305.484146,13.7073982 305.344415,13.8461434 305.143431,14.043808 L302.138242,14.043808 C302.044449,13.9696838 301.824324,13.7948267 301.546775,13.5762554 L297.326111,13.5762554 C297.123213,13.7777211 296.985396,13.9145658 296.82078,14.0799197 L290.301243,14.0799197 C290.128971,13.9259695 289.916502,13.7321062 289.684892,13.5249386 L287.94686,13.5249386 C287.72482,13.3196716 287.512351,13.1258084 287.299883,12.9300445 C286.685446,12.7095725 286.472977,13.3196716 285.927449,13.5819572 C285.684354,13.4565163 285.358952,13.2892617 284.775141,12.9889637 L282.667681,12.9889637 C282.447555,13.127709 282.135552,13.3253735 281.710614,13.5990628 C281.440721,13.4242057 281.13446,13.2246406 280.719093,12.9528519 L277.870863,12.9528519 C277.694763,13.1106034 277.482294,13.3044667 277.275568,13.4907275 C276.701328,13.6845907 276.396981,13.2740567 276.094548,12.9395476 C275.859109,13.1391127 275.658125,13.3120692 275.455227,13.4850256 C275.078143,13.1106034 274.729771,12.7627899 274.383313,12.4187776 C273.751649,12.7589887 273.121899,13.0991997 272.473008,13.4508144 C272.321792,13.3139698 272.113151,13.1182059 271.810718,12.8407153 C271.515942,12.9813612 271.182882,13.1353115 270.712006,13.357684 C270.19519,13.0972991 269.525243,12.7589887 268.861039,12.4206783 C268.719393,12.8198085 268.594975,13.1600195 268.457157,13.5458454 C268.198749,13.3120692 267.993937,13.1239077 267.78721,12.9357463 C267.653221,13.0687898 267.515404,13.207535 267.375672,13.3462803 C267.201486,13.4032989 267.029214,13.5059324 266.853114,13.5097337 C265.970698,13.5268392 265.088283,13.5173361 264.24415,13.5173361 C264.06805,13.3424791 263.926404,13.2037338 263.704365,12.9813612 C263.530179,13.112504 263.342594,13.2550505 263.065044,13.4641188 L261.820858,13.4641188 L261.315527,12.962355 L257.902628,12.962355 C257.403039,12.757088 257.203969,12.1222809 256.564649,12.3522559 C256.369407,12.5309142 256.156938,12.7304794 255.831536,13.0307774 C255.488906,12.8369141 255.098423,12.6183428 254.713682,12.4016721 C254.591177,12.5214111 254.451446,12.6601564 254.23132,12.8787277 C254.053306,12.7418831 253.865721,12.5993366 253.662823,12.4434857 C253.136436,12.7627899 252.567939,13.0345786 251.857795,12.922442 C251.666382,12.757088 251.453913,12.5651254 251.210818,12.3541565 L247.715612,12.3541565 C247.48783,12.1469889 247.273447,11.9512251 246.949958,11.6490264 C246.605414,11.8466909 246.216845,12.061461 245.832105,12.2800324 C245.707686,12.156492 245.569868,12.0177468 245.374627,11.8257841 C245.110477,11.9911381 244.829099,12.1659951 244.421389,12.416877 C244.162981,12.2534237 243.856719,12.0538585 243.424125,11.7801692 L235.909239,11.7801692 C235.681457,11.5768029 235.468988,11.3867408 235.231636,11.1738714 L234.096555,11.1738714 C233.872602,10.9762069 233.658219,10.7842442 233.516573,10.6569027 C232.758576,11.0522317 232.029291,11.4304551 231.328719,11.7934736 C230.955463,11.5577967 230.645373,11.3601322 230.210865,11.0902441 C229.954371,11.2574987 229.64811,11.4570638 229.299738,11.681337 C229.146607,11.5482936 228.939881,11.3677346 228.715927,11.1738714 L221.639377,11.1738714 C221.432651,11.3620328 221.220182,11.5596973 221.019198,11.7421568 L219.863062,11.7421568 C219.63528,11.5463929 219.430468,11.3696353 219.22757,11.1966788 C219.062954,11.3620328 218.921308,11.5007781 218.74138,11.6775357 C218.469573,11.5121818 218.180539,11.3373247 217.772829,11.0921447 C217.516335,11.2593993 217.208159,11.460865 216.869358,11.6851382 C216.712399,11.5482936 216.505673,11.365834 216.304689,11.1814739 C216.10179,11.3620328 215.896978,11.5482936 215.688338,11.7326537 C215.54095,11.586306 215.403132,11.4494613 215.190663,11.2384925 L210.903005,11.2384925 C210.77093,11.3677346 210.633112,11.5064799 210.430214,11.706045 C210.244543,11.5615979 210.045474,11.4095483 209.78898,11.2023807 L202.792824,11.2023807 C202.557385,11.0009149 202.341088,10.8146541 202.120963,10.6245921 C201.847242,10.8260579 201.560122,11.0351261 201.204093,11.2898092 C200.863377,11.0370267 200.576258,10.8241572 200.289138,10.6112878 C200.145578,10.7500331 200.00776,10.8868777 199.799119,11.0959459 L197.289691,11.0959459 C197.151874,10.9591013 197.014056,10.8222566 196.822643,10.630294 L194.347669,10.630294 C194.156255,10.820356 194.018438,10.9591013 193.786828,11.1871757 C193.685379,10.9286914 193.606899,10.7120206 193.511193,10.504853 C193.436541,10.3394991 193.338921,10.1836482 193.189618,9.90615766 C193.049886,10.3166916 192.942695,10.6378965 192.833589,10.9610019 C192.665146,11.0294242 192.496702,11.1548652 192.32443,11.1567658 C191.241031,11.1738714 190.157631,11.1662689 189.076146,11.1662689 C188.9345,11.025623 188.792855,10.8868777 188.561244,10.655002 C187.80899,10.4022195 186.934231,10.7177225 186.149437,10.5447661 C186.007791,10.685412 185.864231,10.7918467 185.879544,10.8184554 C186.08627,11.2042813 186.310224,11.5806041 186.515036,11.9341195 C185.879544,12.5043055 184.968417,12.4605913 184.654499,13.3937958 C185.52543,13.6199696 186.400188,13.4717213 187.353427,13.5268392 C187.45679,13.823336 187.573552,14.1597458 187.694142,14.5037581 C188.071226,14.8990871 188.099938,14.3250997 188.31815,14.2661805 C188.49425,14.2205656 188.672264,14.178752 188.83688,14.1008266 C189.087631,13.9810875 189.323069,13.8309385 189.765234,13.5819572 L192.096648,13.5819572 C192.249779,13.7340068 192.393339,13.8708515 192.636434,14.1141309 L195.664592,14.1141309 C195.821551,14.558876 195.944056,14.8990871 196.104843,15.3495341 C196.767133,14.6919195 197.360514,14.1046278 197.951981,13.5173361 C198.143394,13.7035969 198.281212,13.8423422 198.482196,14.0419073 L200.247027,14.0419073 C200.532232,13.8689509 200.920801,13.6351746 201.297886,13.4051995 C201.61946,13.673187 201.835757,13.8556465 202.101822,14.0780191 L204.946223,14.0780191 C205.612342,14.5930872 205.612342,14.5930872 206.213379,14.6919195 C206.427762,14.4980562 206.644059,14.3003917 206.864185,14.0970253 L209.888515,14.0970253 C209.951681,13.8442428 209.993792,13.5724541 210.095241,13.3234729 C210.154579,13.182827 210.303882,13.0801935 210.487638,12.8844296 C210.581431,13.2265412 210.652254,13.4888268 210.77093,13.9354726 C211.056136,14.4334351 211.798819,13.8518453 212.237156,14.2053607 C212.61424,14.5113605 212.912845,14.9085902 213.58662,14.4961556 C213.613418,14.1103297 213.645958,13.6484789 213.676584,13.1752245 C213.982845,12.8559203 214.319733,12.8255104 214.782953,13.1505164 C214.63365,13.3462803 214.488176,13.5363423 214.331217,13.74351 C214.331217,13.783423 214.312076,13.8993608 214.340788,13.9126652 C214.92077,14.1844538 215.500753,14.4410376 216.143901,14.7280312 C216.348714,14.5759816 216.572667,14.408727 216.880843,14.1806526 C217.030145,14.2965904 217.223472,14.4486401 217.466567,14.6368015 C217.642668,14.4923543 217.843652,14.3270004 218.082918,14.1255346 L219.246711,14.1255346 C219.422811,14.2870873 219.639108,14.4847518 219.855405,14.684317 C220.506211,14.6215965 221.201041,14.8952858 221.893957,14.4581432 C221.725513,14.2509756 221.564726,14.0533111 221.403939,13.8575472 C221.993492,13.4394107 221.993492,13.4375101 222.632812,13.9449757 C223.272133,13.7549137 223.8636,13.5800566 224.55843,13.3766902 C224.914459,13.9050627 225.24369,14.3935221 225.490613,14.7546399 C226.229468,14.5873853 226.750113,14.8971864 227.243959,14.408727 C226.843905,14.2167644 226.48022,14.0419073 226.068681,13.8461434 C226.338574,13.5610504 226.593154,13.293063 227.033404,12.8255104 C227.330095,13.3196716 227.613387,13.7986279 227.672725,13.8993608 C228.712099,14.3155966 228.978163,13.8271372 229.326536,13.5192368 L230.492243,13.5192368 C230.70854,13.7131 230.915266,13.8974602 231.120078,14.0818204 L231.636894,13.5686529 C231.814909,13.7035969 232.006322,13.8480441 232.260902,14.0419073 C232.429345,13.9088639 232.626501,13.7511124 232.833227,13.5838578 C233.325159,13.6978951 233.093549,14.163547 233.239023,14.4809506 C233.625678,14.9332982 234.167378,14.5322674 234.776072,14.8363666 C234.829668,14.8876833 235.042137,15.0834472 235.250777,15.2754099 L236.410742,15.2754099 C236.634695,15.079646 236.835679,14.8990871 237.042406,14.7185281 C237.203193,14.8762796 237.341011,15.0150249 237.543909,15.2164906 L242.918794,15.2164906 C243.008758,15.1480683 243.228884,14.9751119 243.456666,14.7983542 C244.141925,15.1537702 244.84824,15.5224905 245.546899,15.8836084 C246.320209,15.7733724 246.555647,14.9960187 247.202624,14.6653108 L248.253483,14.6653108 C248.519547,14.4448388 248.735844,14.2623793 249.057419,13.9924912 C249.438331,14.2224663 249.824986,14.4581432 250.332231,14.7660436 C250.590639,14.6006897 250.896901,14.4030252 251.241445,14.178752 C251.662554,14.2946898 251.4386,14.7622424 251.645327,15.1537702 C251.838654,15.1993851 252.104719,15.2602049 252.449263,15.340031 C252.598565,15.474975 252.811034,15.6726395 253.034987,15.8779065 L254.171982,15.8779065 C254.407421,16.0888753 254.623718,16.2789374 254.759621,16.4005771 C256.423003,16.4005771 257.992592,16.4005771 259.562181,16.391074 C259.634918,16.391074 259.705741,16.2599312 259.757422,16.210515 C259.577494,15.9064158 259.401394,15.6080184 259.227208,15.3077204 C258.534291,15.2373975 257.917941,15.530093 257.466205,14.9504038 C257.850946,14.5094599 258.352449,14.7071244 258.785043,14.7204288 C258.938174,14.7261306 259.087476,14.9713106 259.313344,15.2221925 C259.58515,15.0682423 259.858871,14.914292 260.101966,14.7774474 C260.369945,14.9313976 260.676206,15.1062547 260.98821,15.2811117 C260.992038,14.4961556 261.593076,14.7261306 262.019928,14.6976213 C262.419981,14.6710126 262.804722,14.7223294 262.762611,15.2811117 C262.531001,15.4122545 262.303219,15.5509998 262.067781,15.6707389 C261.91465,15.7524656 261.742378,15.8037823 261.577763,15.8684034 C261.644758,16.0318567 261.690697,16.3226516 261.784489,16.3416578 C262.318532,16.4404901 262.898515,16.7084775 263.354078,16.1534964 L263.354078,15.2811117 C263.40576,14.5170624 263.880465,14.6577083 264.35517,14.7926523 C264.487245,15.1537702 264.613578,15.4939812 264.755224,15.8836084 C265.009803,15.6631364 265.21653,15.4825775 265.440483,15.2887142 L270.622042,15.2887142 C271.34367,15.6954469 271.98299,16.0622667 272.725674,16.4823037 L274.329717,16.4823037 C274.708716,16.8567259 275.059002,17.2026388 275.482025,17.6245765 C275.822741,16.9897693 275.989271,16.2466268 276.663045,15.8817077 C277.321507,16.5583285 278.424048,16.6324527 278.898753,17.5751604 L280.393691,17.5751604 C280.453029,17.2805642 280.510453,17.0144774 280.577447,16.6932726 C280.730578,16.5393223 281.549827,16.8928377 282.606428,17.6416821 C282.738504,17.5029368 282.868665,17.3584897 283.006482,17.2197444 C283.071563,17.1551233 283.15387,17.1019059 283.228522,17.0410861 L284.218128,17.0410861 C284.66795,17.1000053 284.865105,17.6131728 285.228791,17.9096695 C285.531224,18.1586508 285.79346,18.4608494 286.107378,18.7725511 L288.002369,18.7725511 C288.268434,18.438042 288.630205,17.9799925 288.907754,17.6302784 L290.532853,17.6302784 C290.752979,17.9495826 291.074553,18.4114333 291.474607,18.9854206 C291.69856,18.4057314 291.830635,18.067421 291.987594,17.6549864 C292.203891,17.8260423 292.402961,17.9837937 292.6384,18.1700545 C292.820242,18.0161043 293.02314,17.8431478 293.227953,17.6682908 C294.121853,18.3715203 294.121853,18.3715203 295.059778,17.672092 C295.203338,17.8127379 295.341155,17.9514832 295.482801,18.0883278 C295.561281,18.1320421 295.63976,18.2118682 295.722068,18.2137688 C296.215914,18.2232719 296.709761,18.2194706 297.287829,18.2194706 C297.456272,18.3487128 297.678312,18.5216693 297.91375,18.7003276 C298.43248,18.3810234 299.000978,18.1149365 299.711121,18.2232719 C299.902534,18.3924271 300.115003,18.5843897 300.35427,18.7953586 L305.62962,18.7953586 C305.853574,19.0025262 306.069871,19.1982901 306.29191,19.3997558 L307.438476,19.3997558 C307.666258,19.6069234 307.884469,19.8007867 308.054827,19.9585382 L314.576278,19.9585382 C314.740894,19.7969855 314.878711,19.6563396 315.06821,19.4662775 C315.338103,19.6335321 315.623309,19.8064886 316.023363,20.0554698 C316.283685,19.8920165 316.589946,19.6962526 317.020626,19.4206626 L320.452667,19.4206626 C320.62111,19.5708116 320.837407,19.7627743 321.053704,19.9566376 C321.252774,19.7798799 321.461415,19.5936191 321.671969,19.4111595 C321.809787,19.5499048 321.924635,19.7399668 322.093079,19.8159917 C322.755369,20.1219915 323.432972,20.389979 324.143115,20.6883763 C324.736496,21.2813699 325.364332,21.9028727 326.097445,22.6327109 L326.097445,25.0046849 C326.411363,25.2479643 326.411363,25.2479643 326.928179,24.7366975 C327.092794,24.8621384 327.274637,24.9989831 327.567499,25.2137532 L329.575425,25.2137532 C329.992706,25.1529333 330.097983,23.5925241 331.324942,24.2805486 C331.192867,24.5466355 331.062706,24.8165235 330.924888,25.0959147 C331.575694,25.4361257 332.274352,25.1700389 332.89836,25.2935792 C333.122313,25.4817406 333.325211,25.6546971 333.503226,25.8067467 C333.820972,25.5083493 334.110006,25.2441631 334.385641,24.9875794 L334.385641,23.7939898 C334.670847,23.512698 334.95031,23.2333069 335.245087,22.942512 C335.451813,23.1287728 335.656625,23.3131329 335.874836,23.5069962 L339.393013,23.5069962 C339.60931,23.7008594 339.814122,23.8890209 340.076358,24.1227971 C340.210348,23.7388719 340.334766,23.3986608 340.453443,23.0584498 C340.524266,23.0356424 340.633371,22.9729219 340.660169,22.9938287 C341.224838,23.5412073 341.781851,24.0961885 342.338864,24.6530702 C342.528363,24.6644739 342.723604,24.673977 342.970528,24.6872814 C343.148542,25.0636042 343.339955,25.464635 343.556252,25.915082 C343.766807,25.4760388 343.94865,25.0883122 344.143891,24.6815795 C344.465465,24.9989831 344.741101,25.2764736 345.026306,25.5596661 L345.026306,26.1336534 C345.422532,26.5612929 345.811101,26.6126097 346.184357,26.1431565 C346.006343,25.9340882 345.830242,25.7326225 345.673283,25.550163 C345.881924,25.2992811 346.065681,25.084511 346.289634,24.8146229 C346.159473,24.5656417 346.031226,24.3261635 345.91255,24.0847847 C345.849384,23.9536419 345.79196,23.8167973 345.684768,23.5716173 C346.412139,23.5317042 347.078257,23.4993937 347.713749,23.4651825 C347.930046,23.2865242 348.132944,23.1211703 348.326272,22.9596175 C348.720583,23.3473441 349.067041,23.693257 349.444125,24.0676792 L352.349779,24.0676792 C352.581389,24.2710455 352.793858,24.4630082 353.012069,24.6549708 C353.213053,24.4763125 353.427436,24.2843499 353.62842,24.1018903 L357.244218,24.1018903 C357.359065,24.4306976 357.479656,24.7728093 357.60216,25.1187222 C357.93522,25.4114177 358.354415,25.2840761 358.712358,25.2460637 C358.959281,25.219455 359.162179,24.894449 359.414844,24.8203248 C359.774701,24.7176913 360.178583,24.7709086 360.536526,24.6663745 C360.798763,24.5922503 361.011231,24.3717784 361.31175,24.1703126 C361.461053,24.293853 361.662037,24.4554057 361.90896,24.6568714 L363.583826,24.6568714 C364.140839,25.3753059 365.427136,25.1966476 365.631948,26.0975416 C365.82719,26.9623238 366.48948,27.3291435 366.933559,27.9734538 L366.933559,28.577851 C367.258962,28.688087 367.603505,28.8059254 368.003559,28.9427701 C368.028443,29.763838 368.67542,30.2180863 369.203721,30.7578624 C369.663113,31.6739614 368.803667,32.3182717 368.683076,33.1735508 C369.079302,33.3655134 369.475528,33.5612773 370,33.8159604 Z M253.998562,14.7403572 C254.459926,14.2037145 254.937365,14.4409838 255.458208,14.4823865 C255.50322,14.6798456 255.553053,14.8964135 255.593242,15.0922802 C254.746068,15.9712913 254.572454,14.7992764 253.998562,14.7403572 Z M218.087719,12.2811154 C218.460669,11.9897041 218.73395,11.9721876 219.164771,12.3686981 C218.844871,12.5661571 218.539438,12.7556541 218.193817,12.9690372 C218.166489,12.7779479 218.121478,12.5056455 218.087719,12.2811154 Z M198.568161,12.5815829 C199.01345,12.8092977 199.453916,12.8299991 200.103362,12.4334886 C198.875201,12.218513 198.875201,12.2312523 198.568161,12.5815829 Z M177.63236,23.1382399 C177.807582,23.3213672 177.977981,23.486978 178.12909,23.6669205 C178.203037,23.7608728 178.248048,23.8818961 178.341286,24.055469 C178.084079,24.1048337 177.867061,24.1462364 177.635575,24.1908239 C177.460353,24.0076966 177.289954,23.8420858 177.138845,23.6621433 C177.063291,23.5697834 177.019887,23.4471677 176.92665,23.2735949 C177.180641,23.2258225 177.399267,23.1828274 177.63236,23.1382399 Z M155.446697,21.9309455 C155.628349,21.3974876 156.081675,21.7334865 156.417651,21.6331645 C156.395145,21.9325379 156.37264,22.2239492 156.350134,22.524915 C155.851797,22.5153606 155.729624,22.1140728 155.446697,21.9309455 Z M61.8650894,41.9572059 C61.9277835,42.0049783 61.9406438,42.0161251 61.8650894,41.9572059 Z" id="Combined-Shape"></path>
                    </g>
                </g>
            </g>
        </g>
    </g>
</svg>