<?xml version="1.0" encoding="UTF-8"?>
<svg width="2880px" height="186px" viewBox="0 0 2880 186" version="1.1" xmlns="http://www.w3.org/2000/svg" xmlns:xlink="http://www.w3.org/1999/xlink">
    <!-- Generator: Sketch 52.5 (67469) - http://www.bohemiancoding.com/sketch -->
    <title>layer_3</title>
    <desc>Created with Sketch.</desc>
    <g id="Page-1" stroke="none" stroke-width="1" fill="none" fill-rule="evenodd" opacity="0.200000003">
        <g id="Group-5" fill="#F8F8F6">
            <path d="M2879.97752,28.1941471 C2878.62186,28.1353168 2879.45192,28.6682995 2877.89268,28.454601 C2876.31326,28.2320568 2875.19305,27.9127727 2874.65394,27.5050324 C2871.58287,27.9621957 2867.83527,28.17786 2865.63603,28.94139 L2860.55558,28.94139 C2857.70342,29.6706609 2854.45217,30.2002739 2849.94776,30.2134721 C2848.58725,31.1439454 2844.17908,31.1822763 2841.72905,31.9004551 C2839.54776,32.5398659 2835.93555,32.889197 2832.9462,33.3678425 C2831.78504,33.2261724 2830.74352,33.0041899 2829.32995,33.1159534 C2826.9576,33.7612612 2823.75638,34.0076745 2820.42564,34.0738059 C2817.97419,34.1226673 2816.15447,34.3556016 2814.52057,34.758568 C2812.63709,35.2237344 2810.73142,35.6837058 2808.83381,36.1457833 C2808.69238,36.6689376 2807.96501,37.1275049 2806.14307,37.5315946 L2803.1527,37.5315946 C2802.38135,37.7193179 2801.78998,37.8636557 2801.16713,38.0152946 C2799.85969,38.0152946 2798.25767,37.903812 2797.25792,38.045482 C2796.17767,38.1983846 2795.21323,38.3150623 2794.09283,38.2511774 C2792.62075,38.1672144 2791.65288,38.4009911 2790.35977,38.523285 C2788.15225,38.0117845 2785.43407,38.3671531 2783.41056,38.2674646 C2781.86665,38.4664204 2780.77934,38.6167957 2779.65591,38.749199 C2775.92183,39.189373 2774.69026,39.2050986 2769.76436,39.2587338 C2767.28244,39.2855514 2764.81909,39.4835245 2762.38721,39.6412009 C2761.95664,39.6690013 2761.52809,39.7289549 2760.9807,39.7314822 C2759.36315,39.3881885 2758.10494,38.9047693 2755.73964,38.7928653 C2754.32385,39.2060814 2752.25717,38.8618049 2750.60511,39.0582335 C2749.63422,39.3254269 2748.61732,39.5980961 2746.86075,39.4861922 C2745.15543,40.2660094 2741.35699,40.2205177 2738.76572,40.6640616 C2738.11906,40.7749826 2737.16975,41.0383851 2735.77334,40.9701475 C2733.71714,40.8693357 2731.98801,41.1494465 2730.6951,41.492319 C2729.85112,41.7162672 2728.59472,41.6582794 2727.78443,41.8987955 C2727.18297,42.0771117 2727.74368,42.5543531 2725.77747,42.4257408 C2725.13182,42.1805912 2724.93651,41.8489513 2723.85505,41.7950352 C2721.53071,41.7454717 2720.81989,42.342199 2718.91805,42.4628081 C2718.08315,42.2696089 2717.36607,42.1035081 2717.13081,42.0494516 C2714.71952,41.7416808 2713.28638,42.1803104 2711.53364,42.1789063 C2706.97313,42.1748345 2702.90453,42.5526682 2698.9465,43.0627647 C2697.58902,43.2379919 2696.02171,43.3312217 2694.56496,43.4490227 C2691.49692,43.6972612 2688.45228,43.6012233 2685.44577,43.6688991 C2684.59452,43.9174185 2683.3464,43.9636122 2682.65576,44.0520682 C2680.06146,43.8948131 2678.00002,43.5885867 2675.47129,43.6472766 C2673.20607,43.7000694 2671.32784,43.375871 2669.23997,43.1961508 C2667.82721,43.6162467 2666.08698,43.9564515 2663.87926,44.1398222 C2662.60875,43.8324726 2660.54126,43.9893066 2659.24713,43.6827994 C2657.6092,44.199495 2656.07679,43.7063877 2654.31821,43.6433452 C2653.54787,43.9623485 2652.3405,43.9634718 2651.08007,43.8187128 C2649.57127,43.648119 2649.88037,43.1666654 2648.33445,42.9456657 L2642.68219,42.9456657 C2639.95493,43.2132803 2637.91084,43.7344689 2635.1866,43.174809 C2632.67604,43.8424415 2629.25006,43.6062779 2626.00285,43.6625809 C2623.00764,44.2281379 2619.97228,44.8016981 2616.96033,45.3707652 C2615.47695,45.3570054 2614.15215,45.269813 2612.75372,45.1687204 C2610.80991,45.0288756 2611.19367,44.5022112 2609.80935,44.3874992 C2608.15004,44.3960639 2607.9515,44.8935239 2606.38116,44.8800448 C2605.45142,44.6351761 2604.09798,44.6725242 2602.90413,44.5836469 C2601.11992,44.4504012 2601.87291,43.960102 2601.45848,43.7885254 C2599.52396,43.4610977 2597.8717,43.3244822 2595.89622,43.4391943 C2594.63901,43.7904911 2592.91634,44.0864678 2592.00577,44.5924925 C2591.575,44.8316046 2589.75912,44.9029311 2589.04426,45.1367078 C2588.29732,45.3807341 2587.81753,45.6705329 2586.86297,45.8946216 C2585.77768,46.1495996 2584.36693,46.2071662 2583.16885,46.3630173 C2582.59079,46.2600994 2582.08537,46.1698181 2581.6312,46.0886632 C2579.26711,46.3871672 2577.17299,46.4914892 2574.75039,46.1219395 C2572.66555,45.803919 2571.65047,45.2869426 2570.01596,44.9159889 C2567.44406,45.1093285 2565.07755,45.6444173 2562.27463,45.1184549 C2559.68335,45.3593923 2558.28593,46.0082103 2555.5288,46.1757152 C2552.5233,46.3582435 2551.30888,47.2689195 2547.94303,47.3308387 C2546.66525,47.1904323 2546.24699,46.9810864 2547.05001,46.6730347 C2545.46313,46.5194301 2546.94671,46.0376957 2545.71695,45.8717353 L2544.00759,45.8717353 C2540.93652,46.6625042 2539.72108,47.7874404 2534.96285,48.0720442 C2534.40436,47.9813416 2533.88058,47.8963957 2533.3681,47.8134155 C2532.12119,47.8940088 2531.186,48.2089404 2529.62696,48.0523873 C2528.99059,47.9049605 2528.27352,47.7385789 2527.50096,47.5592799 C2525.47342,47.6899983 2523.80381,47.4476569 2521.94999,47.1925384 C2522.69894,46.8301495 2521.78555,46.5955304 2520.54045,46.3478534 C2517.51639,46.3837975 2514.14953,46.1710818 2511.57763,46.8260777 C2509.08462,46.3472918 2505.61365,46.258555 2503.51528,45.620127 L2496.71196,45.620127 C2493.997,45.2775354 2493.79241,44.431306 2491.08129,44.143894 C2486.30792,44.143894 2486.30792,44.143894 2482.16769,43.638431 C2481.86585,43.9952036 2480.42565,43.9848136 2479.78303,43.8800704 C2477.79947,43.556574 2475.68578,43.6719881 2473.61122,43.6573858 C2471.26651,43.6409583 2468.61491,43.8212401 2466.65052,43.6100689 C2464.32215,43.3598646 2462.23508,43.481597 2460.15952,43.3997401 C2457.71655,44.1770299 2454.4879,44.2042688 2451.28991,44.1371545 C2449.15806,44.5742397 2447.38495,45.1821994 2443.99791,44.6589047 C2442.97677,45.1316531 2440.29027,45.1223863 2439.40532,45.5201577 C2437.37274,45.5021856 2437.99478,45.0870039 2437.17945,44.8954895 C2436.3855,44.8822913 2435.59176,44.8693739 2435.27438,44.8641789 C2433.17017,44.537032 2433.23756,44.0095251 2432.00295,43.682659 C2429.95261,44.2077789 2426.8426,43.5808643 2424.40366,44.2788246 C2425.17622,43.1510803 2421.16896,43.6089456 2419.9515,43.1791616 C2419.35831,43.3234994 2418.76593,43.468118 2418.11826,43.625654 C2413.07594,43.8431435 2408.57355,43.0925308 2403.61698,43.0804559 C2403.39604,43.0801751 2403.18016,42.9681308 2402.96225,42.9080368 C2402.66868,42.9793633 2402.45582,43.0796134 2402.1909,43.0885995 C2397.05738,43.2611589 2391.90026,43.1082564 2386.78227,43.170316 C2379.72956,41.8502149 2372.74323,40.5428908 2365.85314,39.2535388 C2362.35251,39.169997 2358.84644,39.4277831 2355.65874,38.9939273 C2352.67241,39.7462249 2349.1962,40.3213295 2345.52568,40.9565281 C2342.47176,40.7877596 2339.61254,41.3844869 2336.55882,41.1967635 C2335.71484,41.4037225 2335.12447,41.5483411 2334.53229,41.6931001 C2333.86021,41.6928193 2333.18994,41.6928193 2331.78747,41.6928193 C2331.15433,41.851619 2330.16185,42.1012616 2329.24523,42.3319493 C2325.95201,41.8666425 2322.53209,42.4048202 2319.35872,42.4312166 C2318.78167,42.2269253 2319.14586,42.0268462 2318.3848,41.9360032 L2314.41345,41.9360032 C2312.17708,41.3022087 2309.08644,41.4730833 2306.42152,41.3653916 C2304.43877,41.3542995 2303.56533,40.9881196 2302.44089,40.7335627 C2299.02097,40.6305044 2295.52437,40.8477132 2291.66137,40.5473838 C2289.10783,40.862175 2287.33794,40.6786638 2285.44134,39.7978944 C2281.97945,40.2019841 2278.97194,39.8963193 2276.13592,39.4544603 C2274.93179,39.2665966 2274.2587,38.9147381 2272.36815,38.9676713 C2271.70838,38.9860646 2270.89486,38.6788553 2269.89955,38.4669821 L2262.80185,38.4669821 C2262.74253,38.1140004 2261.93042,37.930068 2260.90425,37.7584913 C2259.58551,37.8327663 2258.453,38.1231268 2256.86228,38.0188048 C2255.18541,37.909007 2253.72361,38.1023466 2252.41214,38.293861 C2250.65759,37.944249 2249.20286,37.5547616 2246.96649,37.5285056 C2244.35161,37.4981778 2244.74142,36.9681436 2244.22268,36.5863786 C2240.74667,36.4208395 2238.85088,35.7370602 2236.49365,35.2039371 C2236.94198,34.7702217 2235.62425,34.4753682 2235.08311,34.12014 C2231.9965,33.9265196 2229.29668,33.55009 2226.80972,33.0951732 C2225.63121,31.9883495 2224.58162,31.4022932 2215.72553,30.1540802 C2212.86611,30.3641282 2210.36281,29.7876194 2207.73159,29.9146872 C2206.31882,29.2074602 2205.09835,28.5957094 2203.81633,27.9536309 C2202.46914,28.069747 2201.80513,27.6155323 2200.29713,27.7114299 C2198.44957,27.82895 2196.92422,27.5551575 2195.36014,27.3750161 C2193.95847,27.2138295 2192.59797,27.0314416 2191.97391,26.9530948 C2189.88281,26.1300325 2186.74193,25.7304358 2185.49623,24.9831929 C2185.3221,24.8784497 2184.85865,24.7888704 2184.44543,24.7242835 C2183.39888,24.5604292 2182.3043,24.414547 2181.43267,24.2905681 C2177.4593,24.5762951 2173.94596,24.941773 2171.7445,25.7770508 C2168.19383,25.7531817 2164.9783,25.3076721 2161.93789,25.5102786 C2159.89603,25.2540369 2158.22843,25.0444101 2156.34717,24.8083869 L2152.24871,24.8083869 C2151.32927,24.9308213 2151.16321,25.2631633 2149.72705,25.2706048 C2149.38849,25.2120554 2148.89638,25.1272499 2148.25598,25.0164692 C2147.89482,25.3733823 2146.72256,25.2394346 2145.77103,25.2692008 C2142.76634,25.3636943 2140.25699,24.975611 2137.54687,24.7751106 C2135.38415,25.4563625 2131.04659,25.2430852 2129.39353,26.0000161 C2126.32427,26.0094234 2123.69628,26.0265529 2121.25633,25.5470651 C2120.24549,25.3486708 2118.49719,25.1855185 2116.74163,25.2558622 C2115.27782,25.3142712 2113.74339,25.2679371 2112.21078,25.2679371 C2108.90546,24.2579938 2103.81573,23.7713452 2100.35182,22.851964 L2093.35237,22.851964 C2088.53986,23.6993167 2085.82289,24.8846276 2082.24236,25.7273469 L2075.90874,25.7273469 C2075.36861,25.5835707 2074.93078,25.4666122 2074.70057,25.4055354 C2074.15217,25.1066101 2075.49956,25.0469374 2075.3327,24.810493 C2074.16871,24.7796036 2074.88054,24.4773086 2074.43868,24.3734079 C2072.99726,24.2130638 2071.74006,24.0733594 2070.44695,23.9295832 C2070.91545,23.5763207 2069.57512,23.5078024 2069.08523,23.3160072 C2068.29633,23.2590022 2067.40836,23.3895802 2066.5216,23.1883778 C2066.98587,22.8081572 2065.30496,22.7135233 2064.5102,22.4425389 C2064.5102,22.1785749 2064.39056,21.8906013 2064.55439,21.612035 C2064.6585,21.4338593 2065.32856,21.2766041 2065.46879,21.0971647 C2065.57734,20.9571795 2065.83298,20.7707198 2065.13023,20.6383166 C2064.36816,20.6171152 2063.57623,20.5946502 2062.83555,20.5740104 C2062.22884,20.2474251 2061.653,19.9375482 2061.05941,19.617562 C2057.24967,19.6019768 2055.34178,20.301622 2053.00735,20.8365704 C2049.87898,20.8127013 2047.95252,21.6036106 2044.75474,21.5635948 C2044.32397,21.0146057 2042.92856,20.7639803 2040.57356,20.8635284 C2040.48034,20.2596405 2038.0979,20.1008408 2037.35722,19.6959087 L2037.35722,19.2550326 C2036.84574,18.4990845 2033.55051,18.6093035 2033.24039,18.0131379 C2030.94188,17.8463351 2029.62819,17.4290473 2028.81709,16.9654253 C2025.11853,16.7646441 2022.54985,17.2760043 2019.4584,17.659033 C2016.35121,17.6723716 2016.44746,17.7049458 2012.93654,18.3157137 C2011.9156,18.4934682 2010.59787,18.7193822 2008.99888,18.6528295 C2006.56014,18.5513157 2004.46178,18.8057321 2003.10108,19.0253277 C2000.2009,18.9681823 1999.02541,18.4517675 1996.58647,18.3277887 C1994.3727,18.2154636 1993.71071,17.4555841 1992.80034,17.0006673 C1989.96352,16.7219606 1987.56957,16.2275896 1984.47913,16.4734412 C1981.22889,17.2060819 1978.48206,18.0781461 1973.92458,18.6410354 L1956.48499,18.6410354 C1955.7556,18.8100847 1955.03954,18.9764663 1954.36726,19.1323174 L1950.31116,19.1323174 C1949.75671,18.6924241 1948.59858,18.3817047 1947.11924,18.1587394 C1945.83742,18.1587394 1944.64963,18.1876631 1943.49472,18.1522807 C1941.40665,18.0881149 1938.24055,18.2113918 1936.17709,18.3930777 C1934.71409,18.5221112 1933.25613,18.7699285 1931.58995,18.6425799 C1930.22723,18.5382579 1929.68287,18.9408031 1928.43798,18.8934861 C1926.95863,18.4505039 1924.73054,18.7672607 1922.55752,18.5624078 C1921.93972,18.3881634 1921.08322,18.1468048 1920.21381,17.9013744 C1918.99838,18.2974609 1917.45467,18.1329046 1916.08912,18.1362743 C1912.73962,17.4371908 1910.33134,17.195411 1906.58395,17.1782814 C1905.74925,17.1744904 1904.76201,17.244834 1904.10426,17.1605902 C1899.35329,16.5523496 1893.93023,16.4700715 1888.98597,15.995919 C1887.23142,15.8277121 1885.02996,15.4765557 1882.99838,15.7372904 C1881.74622,15.898477 1880.91233,16.0488522 1879.49533,15.8521429 C1878.22885,15.6760732 1877.03399,16.1124563 1875.63636,15.9535163 C1874.65336,15.8420336 1873.64776,15.7427663 1872.72307,15.645605 C1872.12766,15.3266017 1871.55364,15.0196733 1871.2633,14.864103 C1867.86577,14.3436164 1864.07944,14.2171102 1862.87934,13.2568708 C1860.53261,13.25659 1858.18789,13.25659 1856.04756,13.25659 C1853.3203,12.8246999 1849.75833,12.6903309 1848.90486,11.7556455 L1844.92847,11.7556455 C1840.39137,11.0520689 1840.03324,9.96616576 1839.1033,8.90005989 C1835.8686,8.40681217 1834.55914,7.3320011 1830.37089,7.05020544 C1827.40716,5.71058788 1822.80247,4.54619753 1818.32872,4.00591366 C1817.93084,4.15600811 1817.37437,4.22298197 1816.48116,4.17187404 C1811.55546,2.75110158 1805.46517,1.91413897 1797.28721,2.28116132 C1795.65049,2.64607758 1793.4918,2.74422166 1791.27702,2.74211557 C1791.02643,2.91411342 1790.81962,3.05634511 1790.62431,3.19099486 C1787.22678,3.18425535 1784.27334,3.41606634 1782.02466,3.99313668 C1779.56958,3.53737747 1776.29473,3.79811218 1774.44938,3.21486395 C1772.13816,3.16600252 1769.89574,3.17555016 1767.97574,3.54102804 C1766.64267,3.79474242 1765.25029,3.74700424 1763.89483,3.58694094 C1761.65342,3.32227485 1759.45801,3.03486293 1756.90527,2.71459591 C1755.14164,2.71459591 1752.76928,2.84826281 1750.84807,2.67865187 C1748.7489,2.493175 1746.59344,2.59763737 1744.72025,2.43785488 C1742.67011,2.26276809 1740.88913,2.66278595 1738.9207,2.41244132 C1738.5656,2.31921146 1737.86386,2.21727641 1737.70729,2.07925691 C1736.81952,1.29677199 1735.10492,0.79875045 1731.50683,0.731074561 C1730.56983,0.713664166 1729.71758,0.423865336 1728.56469,0.210868813 C1726.16146,0.210868813 1723.31233,0.36349058 1720.89902,0.178575338 C1716.07057,-0.191114739 1711.77982,0.0595107028 1707.43723,0.508109182 C1705.20086,0.211851657 1703.18542,0.229683271 1700.66174,0.466408478 C1698.42941,0.675754435 1695.52398,0.408420631 1693.41574,0.902229974 C1693.61286,1.66716409 1692.93271,2.36652842 1691.08192,2.93152382 C1689.37881,3.09622053 1688.42224,2.79940138 1687.2631,2.71192819 C1686.39571,2.73060224 1686.12656,3.00495637 1685.12197,2.96592339 C1684.32802,2.93517438 1683.49735,2.9597455 1682.3824,2.9597455 C1680.54794,4.08917466 1675.80525,4.54001965 1672.84373,5.41236467 L1669.9024,5.41236467 C1667.74593,5.77854459 1666.82305,6.32107495 1665.9147,6.85475972 C1663.7314,6.95430786 1662.1203,7.26376359 1660.75859,7.59091052 C1657.97281,7.72247133 1655.33877,7.60382791 1653.03481,7.34772662 C1650.91728,7.11268629 1649.21075,7.02928488 1647.26088,7.36429458 C1646.92535,7.42186121 1646.27869,7.37243815 1645.62215,7.37243815 C1644.39339,6.99362166 1642.88419,6.66310497 1641.70285,6.21591055 C1639.81836,5.50166315 1636.93836,5.04758882 1633.01423,5.15443809 C1630.69594,5.21748057 1628.32358,5.15289362 1625.98088,5.17606068 C1625.45206,5.18125572 1624.94361,5.31253571 1624.43092,5.38526623 C1623.17271,5.00392242 1620.32157,5.28571809 1619.77418,4.68449784 L1613.55435,4.68449784 C1612.82598,4.51558893 1612.10971,4.34934774 1611.52157,4.21287271 C1608.0167,4.02894031 1605.82734,4.66217322 1602.77786,4.94902352 L1598.26316,4.94902352 C1596.01367,5.49745095 1594.12817,6.10723599 1591.66865,6.50893873 C1589.73009,6.82527437 1588.31834,7.268397 1586.43385,7.5619868 C1584.51567,7.86077164 1583.23788,8.28634347 1581.98068,8.70110401 C1580.55561,9.17090385 1578.82992,9.5793461 1576.93191,9.86142258 C1574.05937,10.2886793 1572.05725,10.8591505 1570.34265,11.5628675 L1562.4399,11.5628675 C1561.33806,11.8338518 1560.09196,12.1406398 1558.79279,12.4603452 C1556.73357,12.2515609 1556.65065,12.2219351 1555.9366,12.3355239 C1554.10437,12.6261652 1552.40207,12.4990974 1550.45221,12.3895804 C1548.32217,12.2700945 1545.9712,11.820794 1544.11355,12.0797034 C1541.77085,12.4065696 1539.28187,12.3739953 1537.45347,12.2234796 C1534.98084,12.0194691 1532.64964,12.0731043 1530.25468,12.0343522 C1528.77534,12.0107639 1527.2847,12.0299996 1526.14391,12.0299996 C1522.55007,12.745651 1519.88313,13.5331906 1518.39774,14.4677357 C1514.8049,14.4737731 1511.85549,14.5768314 1511.01453,15.4064929 C1508.13473,15.5907061 1506.00692,15.9054973 1504.17852,16.3587292 C1502.26033,16.8341453 1500.49388,17.3672684 1497.53115,17.4746793 C1497.43289,17.786522 1496.67062,17.9842142 1495.73867,18.1619687 L1490.50508,18.1619687 C1490.5878,18.5522985 1488.86613,18.2879133 1488.40167,18.4770407 C1487.88313,19.0812095 1486.47622,19.4989185 1484.58871,19.8954262 C1482.68001,19.6702144 1481.12298,20.1445072 1479.15355,20.1248503 C1476.98376,20.1029469 1474.80672,20.1197957 1472.73317,20.1197957 C1470.56218,20.5801883 1468.15592,20.7093622 1465.62921,20.513074 C1463.40112,20.5690962 1462.88036,19.9178913 1461.12076,19.8931797 C1458.20606,19.8526023 1455.45822,19.6191064 1452.49872,19.5861109 C1449.49403,19.552975 1446.49741,19.3144245 1443.3079,19.4103221 C1440.30725,20.3701403 1435.49817,20.8684427 1432.56409,21.8365449 L1424.50356,21.8365449 C1421.76803,22.3366725 1418.02286,22.470901 1416.39723,23.2955079 C1411.01998,24.0215494 1406.94432,25.1192467 1402.65075,26.1550248 C1400.9301,26.5702066 1399.38942,27.0449206 1397.24606,27.2058264 C1391.87628,27.3765606 1386.97903,26.703031 1382.0051,27.0776353 C1379.37993,27.3675746 1378.85433,28.0794351 1376.92082,28.5152566 C1374.70785,29.0142609 1372.93494,29.6750135 1370.4163,30.0340327 C1368.05302,30.3710081 1366.25872,30.8667831 1363.90997,31.1728691 C1361.87315,31.4382372 1360.16157,31.7455868 1359.52924,32.380645 C1358.1994,32.380645 1356.76102,32.2896617 1355.93943,32.6249522 C1355.17232,32.3381019 1353.82493,32.3295371 1353.20289,32.2363072 C1350.60959,32.3079145 1349.52914,32.7906317 1347.95799,33.0979814 C1347.52924,33.0093849 1347.16001,32.9331442 1346.60233,32.818011 C1345.61509,32.8713654 1344.9757,33.1789959 1343.64284,33.12171 C1340.35991,32.9797592 1337.69701,33.3230528 1335.88213,33.835115 C1334.42841,33.8770965 1334.24117,33.5350665 1332.85908,33.633351 C1332.30866,33.7541005 1331.48102,33.9359268 1330.95724,34.0507793 C1324.35991,34.3157262 1319.69671,33.5993727 1315.61903,32.6118944 C1312.44062,32.8114119 1310.50387,33.3675617 1308.60929,33.899702 C1306.63804,34.4527628 1303.30185,34.4766319 1301.63648,35.0888038 L1297.60965,35.0888038 C1292.63593,35.49514 1289.44601,36.1893093 1285.52894,36.6053335 C1281.46034,37.0375044 1277.536,37.6065716 1274.71653,38.4811631 C1272.44344,38.5724273 1270.17439,38.4025355 1267.98201,38.7215389 C1267.13499,38.8445349 1265.40909,38.856329 1264.16602,38.6705714 C1261.69237,38.3015833 1258.98952,38.5962964 1256.41681,38.5138778 C1255.20945,39.0162519 1252.39724,38.4863582 1251.20137,38.995893 C1249.30781,38.8755647 1247.7988,39.1479532 1246.18145,39.296784 C1244.44425,39.4567069 1242.77787,39.6661932 1241.01706,39.8063188 C1239.34665,39.9394241 1237.44359,40.1643552 1235.90917,40.0753375 C1233.24324,39.9210308 1230.93323,39.9818268 1228.45535,40.2098468 C1226.85131,40.357414 1225.2616,40.5340452 1223.3527,40.4822353 C1220.96077,40.4173675 1218.75204,40.5296926 1216.43477,40.8439222 C1214.29787,41.133721 1211.63901,41.207294 1210.20889,41.6981548 C1207.09444,41.6790595 1204.28445,41.6179827 1202.34085,42.1300449 C1198.79805,41.9289829 1196.27013,41.3165302 1193.09757,41.0007561 C1189.63991,40.7101149 1186.4952,41.3788706 1183.10372,41.1633468 C1178.15543,40.7158715 1175.29802,39.5621521 1170.58801,38.9638804 C1167.68884,39.1163617 1164.55321,38.7976392 1161.65101,39.1756132 C1159.64385,38.8481855 1157.84531,38.5856255 1155.19048,38.9721643 C1152.68012,39.3375018 1149.60481,39.3050679 1146.30877,39.1907771 C1144.91719,38.8285286 1143.32244,38.4133468 1141.79306,38.0152946 C1138.9756,38.0152946 1136.07038,38.176762 1133.66413,37.9779465 C1129.89515,37.6666655 1126.2319,37.8577587 1122.98367,37.7667753 C1121.27936,38.0512387 1119.52077,38.1255137 1118.67154,38.5618968 C1116.57238,38.2647968 1115.07064,38.8442541 1113.06872,38.7507434 C1111.37026,38.5457501 1109.58504,38.3741734 1108.67568,38.0287737 C1104.76768,37.9175718 1102.61303,38.4710539 1100.53364,39.0107761 L1096.50579,39.0107761 C1093.13611,39.7943843 1090.34408,40.6510038 1087.77338,41.5761416 C1086.09046,42.181574 1083.93702,42.8392377 1080.82277,43.0520938 C1076.13959,43.3723608 1072.63371,44.0722868 1068.89863,44.9897022 C1065.71679,44.5590758 1061.97061,44.6207142 1058.93848,44.6362993 C1052.48501,45.4133084 1045.37722,45.4092366 1040.24168,46.5666066 C1034.52991,46.5598671 1029.60622,47.3924771 1024.46867,47.5908714 C1018.25873,48.721845 1014.42035,50.2771268 1009.06812,51.49431 L1002.95947,51.49431 C1000.60446,50.8056165 997.800323,50.3188275 993.791244,50.5603266 C992.43074,50.9218731 990.738533,51.1013124 988.954321,51.2921248 C987.752203,51.4205966 986.104182,51.5089123 985.423829,51.8710204 C983.795179,52.7373279 980.939189,53.3007789 977.515835,53.6868965 C976.720072,53.7766162 976.010059,53.8753219 975.610967,54.0269608 C974.431446,54.4738744 973.387108,54.943253 972.355885,55.4124913 C971.012329,56.02354 970.207285,56.7207982 967.740097,57.1497398 C967.024839,57.273859 967.748168,57.5736267 965.867714,57.6553432 C962.383426,58.0114139 958.135659,57.9760315 953.85238,57.5782601 C951.705999,58.2599333 948.920224,58.4789672 946.630791,58.3844737 C943.517954,58.0994487 941.706908,57.7043451 939.106555,57.5935644 C937.991397,57.7626137 936.639972,57.9020373 935.646681,58.1328654 C933.832809,58.5546463 931.70378,58.5800599 929.402242,58.6311678 C927.876694,58.6652866 927.068623,58.3740837 925.799922,58.3579369 C924.924462,58.6035077 923.332532,58.5589989 922.581561,58.8496402 L916.586505,58.8496402 C911.747766,59.8848566 908.45677,61.3181253 901.469633,62.0391122 L896.844362,62.0391122 C896.518107,61.9193455 895.960427,61.714633 895.698536,61.6181738 C892.394223,61.355333 889.86933,61.8000001 887.113416,61.7952262 C884.263076,61.7904524 881.413946,61.7942434 878.565018,61.7942434 C877.334047,62.2189728 876.148473,61.6640867 874.863631,61.7890484 C871.384388,62.127147 867.30348,62.1694093 865.266859,63.0198509 C863.379142,63.0198509 861.286027,63.1737364 860.47493,62.990506 C858.235334,62.4846217 855.057932,63.1276831 853.151046,62.5296922 L845.134704,62.5296922 C842.274275,63.1815991 838.112459,63.1813183 834.933039,63.7510875 L828.064338,63.7510875 C825.768853,63.1842669 825.768853,63.1842669 825.265448,62.627415 C823.444515,61.9873022 820.918614,61.6114343 818.211728,61.382993 C813.003557,60.9433806 808.195285,60.3445472 803.594831,59.6117662 C802.840632,59.4914379 801.881237,59.20543 800.571779,59.3421859 C797.232561,59.462795 795.84845,60.353112 792.863129,60.5138773 C790.68729,60.2687278 790.541817,59.6493951 788.771124,59.3506102 C787.347063,59.7926096 785.303987,59.4758528 783.753217,59.6433576 C779.470746,59.8958083 778.635033,61.0179364 775.620052,61.5541484 C772.332083,61.4517922 769.271301,61.6939932 766.498842,61.9112019 C764.141818,62.0959768 761.80719,62.4952926 759.472764,62.7981492 C755.218943,63.3500868 753.036043,64.4952415 748.600028,65.0206423 L743.625098,65.0206423 C742.051529,65.1888492 742.456674,65.5744052 741.395791,65.7169177 C739.952361,65.706668 738.601138,65.7337664 737.231353,65.4894593 C735.863383,65.2455734 734.722601,65.8014423 733.174858,65.7188834 C732.548982,65.685607 731.64245,65.7385403 731.302879,65.6509267 C729.472664,65.1800036 726.749234,65.1739661 724.56936,64.8400796 C720.966031,64.288142 716.559071,64.084974 712.154935,64.3179082 C711.628932,64.3458491 711.206435,64.5321684 710.385048,64.4827453 C709.71781,64.3281579 709.001946,64.1617763 708.757406,64.1051925 C701.549134,63.7402762 696.225149,62.5781324 689.323964,62.3405647 C688.014507,62.7179772 685.82515,62.429442 684.033069,62.5680231 C683.565377,63.0920198 681.319727,63.3517717 680.860509,63.8497932 C680.331682,64.4226514 678.225049,64.6207648 677.195037,64.9810477 C676.299803,64.9810477 675.634986,65.0325768 675.31882,64.9734657 C670.097332,63.9959563 664.092187,63.8802614 657.854003,63.9989048 C657.208152,64.0112606 656.555441,64.0004493 656.027824,64.0004493 C654.982074,63.678357 653.448656,63.6259854 652.327446,63.3787297 C651.006689,63.0878077 649.098795,62.8423772 647.35534,62.8005361 C643.527446,62.7088508 639.559123,62.88478 636.060309,62.3225927 C635.964067,62.307148 635.548833,62.3780532 635.37592,62.4280379 C634.024496,62.8189294 633.489414,62.2408762 632.223941,62.2933882 C630.779502,62.5390994 628.685378,62.613936 627.950952,63.2113653 C627.617232,63.4830517 626.137888,63.6734428 624.504395,63.7877336 C619.596854,64.1308869 614.453853,64.3344762 610.24321,65.0067421 C606.701621,64.7304222 603.242756,64.6186587 600.640184,64.0971893 C598.571483,63.4225365 595.292794,62.8752323 596.298595,61.8877541 C594.815014,61.5448816 593.48316,61.2366895 592.304648,60.9641607 C592.105102,60.0223145 589.695821,59.3911877 587.438873,58.8348975 C582.960285,57.7314435 577.567902,56.8888647 571.788734,56.2355536 C570.124371,56.047409 568.197915,55.9839453 566.421774,55.6662056 C564.621622,55.6465487 562.452846,55.7458161 560.607095,55.4204944 C555.061371,55.5587947 549.383691,55.1339249 543.915646,55.6582025 C543.33557,55.7138034 542.364473,55.7327583 541.958319,55.652867 C540.759429,55.4175459 538.996806,55.5368913 538.033174,55.3059228 C536.504599,54.9391813 535.241144,55.3949405 533.828383,55.2958135 C530.83721,55.0863272 527.777235,54.9331438 524.957967,54.5958876 C524.706163,54.1993799 523.849871,54.0473197 522.147576,53.9267106 C516.319379,53.5146178 512.09542,52.9313696 509.624802,52.3288857 L509.624802,51.5649344 C508.862532,51.5013303 508.277412,51.4524689 507.726996,51.4062752 C507.726996,51.2136376 507.726996,51.0502045 507.725987,50.8869119 C504.418648,50.5472688 502.30112,49.8942385 500.792923,49.1545776 C500.255017,48.8908943 499.821221,48.5588332 498.798068,48.5820002 C496.863541,48.6262283 495.040591,47.9319186 493.012041,48.541844 C492.778598,48.611626 491.551864,48.5783497 490.705055,48.4750106 C489.193024,48.2905165 487.52846,48.1568496 485.866921,48.0742907 C482.007148,47.8827763 478.965736,47.178217 474.99015,47.0733334 C473.343138,46.4735172 470.703845,46.2942182 468.077666,46.1056524 C467.396506,46.2973071 466.364072,46.470007 465.525333,46.3359189 C463.39126,45.9944505 461.095573,46.0949815 458.866468,46.1160425 C456.072622,46.1421581 453.586468,45.7309077 450.783543,45.8303154 C450.02551,45.4236985 448.113379,45.7151822 446.897137,45.4211711 C445.57638,45.1020274 444.084526,45.6289726 442.429445,45.6316403 C438.828537,45.637397 433.523114,46.1090221 430.618701,46.6481828 C427.931185,47.1467659 424.613556,47.236626 421.660114,47.5563314 C419.717314,47.0321943 417.827982,47.4298252 416.001803,47.5713549 C413.875801,47.4281404 414.501879,46.9216944 413.792068,46.5673087 C411.049269,46.7334094 408.67792,46.4381348 406.303544,46.2338434 C405.523721,46.1668696 404.56937,46.0310966 404.057088,46.1199738 C402.108033,46.4575108 399.669294,46.1748727 397.969017,46.3861844 C395.839988,46.6511313 393.836861,46.5628157 391.772397,46.5890717 C389.599383,46.6168721 387.416483,46.5952495 385.237214,46.5952495 C383.058551,46.5952495 380.879282,46.5906161 378.701225,46.5976364 C377.890934,46.6003042 377.02758,46.5906161 376.283873,46.6539394 C373.900216,46.8562651 371.497189,47.144379 368.985613,47.0654706 C366.097543,46.9750489 363.592221,47.3002301 360.849422,47.3493724 C358.476257,47.3917751 356.513886,47.066313 354.261175,47.0615392 C352.720494,46.6859521 351.42859,46.1824547 349.57376,45.9688965 C347.45603,45.7245894 347.302688,45.1465362 345.445841,44.9043351 C343.65255,44.6701373 341.977695,44.3823041 340.218098,44.1316787 C337.925639,43.8055146 335.801856,43.4391943 332.910759,43.3792407 C330.840242,43.3364168 328.815526,43.0471796 326.858603,42.8228101 C324.994492,42.609252 322.958679,42.4312166 321.910104,41.9374073 C317.730936,41.7618993 313.960344,41.2915378 309.997065,40.9596171 C306.911668,40.7012693 303.842614,40.4168059 300.677318,40.2355412 C297.461782,40.0511876 294.467381,39.5968324 290.976032,39.7250235 C289.585666,39.2816201 287.494569,39.6211228 285.897797,39.4585321 C281.759588,39.0375937 277.695023,39.2087491 273.61008,39.4861922 C271.284935,39.433259 270.074544,38.8532401 268.001001,38.7247682 C265.948643,39.1954105 264.371241,39.722075 261.303195,39.9617487 C260.62486,39.7619504 259.678782,39.4831033 258.9266,39.2614015 L251.696941,39.2614015 C251.020623,39.4262387 250.428441,39.5705764 249.769476,39.7312014 C249.341935,39.7312014 248.724129,39.7783779 248.374066,39.7237598 C245.766449,39.3165813 243.257092,39.5145543 240.625869,39.7205305 C238.49906,39.8866313 236.654318,40.1639339 234.820069,40.4454488 C232.902086,40.7400214 230.487761,40.5961049 228.572805,40.9327994 C228.031469,41.0277142 227.211897,41.0980578 226.558177,41.2127698 C225.544508,41.3908051 224.404735,41.6726008 223.362213,41.6616491 C221.554596,41.6431155 220.315756,42.135942 218.327963,41.8851761 C214.837219,41.4447212 210.906021,41.1523951 208.351469,40.3892862 C206.951015,39.9711559 204.28408,39.8950557 203.717321,39.2921505 C200.86698,38.9964546 198.735126,38.2785567 195.190309,38.5206173 C194.475253,38.3015833 193.958531,38.1429241 193.641558,38.0457628 C191.76413,37.9327357 190.247056,38.0637349 188.537699,37.86169 C186.990764,37.6790213 184.5149,37.4122491 183.19031,37.5746993 C181.360095,37.798788 179.464307,37.7003631 177.681306,37.8970725 C175.743753,38.1110518 173.653463,38.4018335 171.115455,38.2243598 C169.177902,37.4505801 164.83712,37.6370398 162.225468,37.0355387 C160.27137,37.0355387 158.262189,37.0355387 156.25079,37.0351175 C154.022694,36.3983744 150.931244,36.5703723 148.696893,36.5477669 C147.232883,36.4388115 148.105519,36.1872032 147.158432,36.0760013 L141.066326,36.0760013 C140.387789,36.2412597 139.795607,36.3860187 139.078533,36.5606842 C136.527007,36.4018846 133.923426,36.621761 131.824258,36.9100154 C129.261635,37.2627163 127.524435,36.7853345 125.394599,36.7738212 C123.851699,36.7655372 123.777045,36.341229 123.131598,36.063786 C121.595154,36.0366875 119.956213,36.1104009 118.578962,35.8141434 C117.193843,35.5163414 115.319845,35.5584633 113.949858,35.5555148 C111.08842,34.1984868 105.611296,33.6365804 101.99808,32.6382908 C99.8303123,32.643205 98.0941207,32.3373998 96.1503124,32.2069623 C93.7606025,32.0467586 93.8528093,31.284773 91.3339695,31.1425413 C89.5550036,31.289968 87.6582067,31.0627905 86.6138688,30.8002305 C84.1932888,30.1915687 80.9392157,29.8439224 79.0412082,29.2573044 C75.5446131,28.9731219 72.8048402,29.6383674 70.1225704,29.4439045 C68.0439828,29.7047797 66.3794179,29.9139852 64.6226462,30.1345637 C60.3159629,30.3840659 56.0304649,29.9819419 51.6620413,29.8905373 C49.8298094,29.8524872 48.1317514,29.4318296 46.0866569,29.1452601 C43.3704905,29.1452601 40.1008815,29.33523 37.4482713,29.104121 C32.5427481,28.6768643 26.9746272,28.367549 24.5233788,26.9950764 C24.3994949,26.9252944 24.1049173,26.8482113 23.8206298,26.8249038 C21.7039086,26.6516423 20.8026223,26.2120298 19.4889275,25.8215596 C18.05377,25.3944433 17.0326351,24.8898226 15.3632278,24.5077768 C12.8883729,23.9415178 11.4511976,23.2111236 9.81326579,22.4992631 C8.71041588,22.020056 8.43097074,21.3716592 5.98093299,21.0759633 C5.34880186,21.107274 4.59278675,21.094497 4.12327857,21.1776176 C2.45266071,21.4742963 0,21.2451531 0,21.2451531 L0.274602766,169.714963 L2878.8216,186 C2878.8216,186 2880.19038,28.2538198 2879.97752,28.1941471" id="layer_3" transform="translate(1440.000000, 93.000000) scale(-1, 1) translate(-1440.000000, -93.000000) "></path>
        </g>
    </g>
</svg>