<?xml version="1.0" encoding="UTF-8"?>
<svg width="2880px" height="156px" viewBox="0 0 2880 156" version="1.1" xmlns="http://www.w3.org/2000/svg" xmlns:xlink="http://www.w3.org/1999/xlink">
    <!-- Generator: Sketch 52.5 (67469) - http://www.bohemiancoding.com/sketch -->
    <title>layer_2</title>
    <desc>Created with Sketch.</desc>
    <g id="Page-1" stroke="none" stroke-width="1" fill="none" fill-rule="evenodd" opacity="0.400000006">
        <g id="Group-5" transform="translate(0.000000, -56.000000)" fill="#F8F8F6">
            <path d="M0.0479618093,211.994583 L2880,212 L2879.93463,108.120685 L2879.86259,102.268102 L2879.86259,100.65582 L2879.86259,96.9314491 C2878.39439,96.932223 2867.32594,97.197927 2865.9314,97.4993592 C2864.83699,97.7359132 2863.49405,97.5561115 2862.30412,97.6136378 C2859.98313,97.2239815 2858.28524,96.7194018 2856.81907,96.1051869 C2851.46879,96.3761792 2847.20363,95.8623128 2843.37782,95.1224689 C2841.3788,94.7357793 2839.13006,94.6116981 2836.83073,94.6556811 C2834.44579,94.0886738 2834.44579,94.0886738 2833.8828,93.4805212 C2830.3575,93.3400592 2828.28078,92.720685 2825.86913,92.1993376 L2820.40351,92.1993376 C2817.35965,91.553651 2813.45491,91.3903591 2809.14968,91.1621889 C2807.58536,90.8361211 2805.97348,90.3351529 2803.36452,90.2372551 C2799.70505,90.6247187 2795.46741,90.5530044 2792.26591,91.1581905 L2792.26591,91.6084685 C2791.27531,91.716169 2790.37658,91.8140667 2789.43556,91.9163499 C2789.00451,91.8316083 2788.63498,91.6689613 2787.13541,91.7337106 C2786.83914,91.8384444 2786.2549,92.0449455 2785.90966,92.1669629 L2780.72007,92.1669629 C2778.79269,91.8402502 2778.72591,91.3183868 2777.44389,90.9774859 L2774.1752,90.9774859 C2772.7064,91.3063914 2771.33999,91.6399403 2769.84043,91.9402116 C2768.40785,92.2269398 2767.2519,92.5602307 2765.33768,92.7633782 C2763.91927,92.9137719 2761.20163,92.7851763 2761.12109,93.4085489 C2759.06501,93.281888 2757.64659,93.8230988 2755.56926,93.6743819 C2754.02598,94.1238861 2751.85799,93.8344493 2750.10849,93.9288645 C2747.25588,93.2487395 2743.6124,93.1687703 2739.65646,93.1708341 C2738.79962,92.3840406 2736.30622,91.8406371 2734.37317,91.2087516 C2732.8475,91.1997229 2732.44883,91.5423005 2731.28075,91.7058504 L2720.46627,91.7058504 C2718.60811,91.1952085 2716.70117,91.6004716 2715.07249,91.7320338 C2714.27556,91.5926037 2713.93052,91.4214438 2713.04413,91.4607835 C2711.46018,91.9394377 2708.62902,91.5299182 2706.7324,91.9340205 C2705.22879,92.2544131 2702.34197,92.2295195 2702.00138,92.8668222 C2699.48915,92.9825196 2698.46253,93.5025772 2696.60355,93.8074919 C2697.37985,94.3499925 2695.97519,94.7346184 2695.07748,95.1482654 L2689.74117,95.1482654 C2687.44386,94.8200049 2685.26271,94.508383 2682.71972,94.1450392 L2678.19573,94.1450392 C2677.20432,93.8927494 2676.24407,93.6481985 2675.23323,93.3908783 C2671.74881,93.6456188 2668.65578,93.0707436 2665.21022,93.1974045 C2663.79241,93.5274708 2662.3999,93.8516039 2660.73642,94.2389385 C2658.87016,93.9268008 2657.3291,94.3862366 2655.61037,94.4285428 C2654.91624,94.2778912 2654.50563,94.1286584 2653.37398,94.1802514 C2652.12555,94.3392869 2651.33408,94.8474781 2649.08918,94.6347859 C2647.07074,95.0392752 2645.53596,95.565524 2643.54059,95.6186648 C2639.86392,95.4346067 2637.03155,95.2928549 2634.19937,95.1507161 C2633.54227,95.1176966 2633.28567,95.2519674 2632.8358,95.3061401 C2631.79399,95.431898 2630.69694,95.5344392 2629.55638,95.6532321 C2626.67544,95.2114669 2622.57258,95.1023476 2621.53624,94.1619359 C2617.18912,94.6408481 2612.60037,94.294401 2607.82543,94.4511148 C2605.90696,94.8984262 2603.7588,95.3993944 2601.53839,95.9171304 C2598.08615,95.6857357 2595.09431,96.3349048 2591.95129,96.1298226 C2590.49584,96.326521 2590.30541,96.6189244 2589.71024,96.8513509 C2586.94829,96.9633078 2584.04326,96.7128237 2581.33898,97.0968047 C2580.56248,97.2070848 2579.07749,97.0964178 2577.81207,96.9825262 C2575.69709,96.7924059 2574.64416,96.3558 2572.39906,96.074876 C2571.41331,96.6322096 2568.89178,96.2024398 2567.35376,96.458857 C2565.19123,96.8196212 2563.39924,96.6162158 2561.79545,96.4164218 C2558.05423,96.6011248 2554.67687,96.9162291 2551.18153,96.8719881 C2549.24585,96.5304424 2549.23776,95.84619 2546.3641,95.8036257 C2546.07815,95.1460727 2543.3251,95.1543276 2541.4724,94.8510897 C2540.34438,95.1525219 2539.29873,95.431898 2538.5105,95.6425265 L2534.65312,95.6425265 C2531.99518,95.5238626 2530.89206,94.9402166 2528.99221,94.6556811 C2523.51586,94.7263635 2520.0622,93.8268393 2515.42084,93.422866 C2511.34631,93.5310823 2506.64888,93.1370406 2502.90685,93.8839785 C2498.36667,94.006125 2494.14684,93.8714672 2489.94887,93.4646563 C2488.69295,93.3428968 2487.34415,93.090349 2485.51736,93.1685124 C2481.77613,93.3283218 2478.28828,92.9574969 2474.62659,92.8637266 C2472.93376,92.0450744 2471.4688,91.2304207 2466.90797,90.9675543 C2465.27201,90.9675543 2462.85874,90.8112274 2461.33955,91.0054751 C2459.24258,91.2736298 2457.95955,91.1335548 2456.0684,90.9955435 C2454.32113,90.8681087 2452.20616,91.0079258 2450.5196,90.7217135 C2447.53626,90.2154571 2444.88439,90.5025722 2442.52233,90.9458852 C2440.8639,91.2572491 2439.53048,91.6552892 2438.43566,91.9213802 C2435.01195,92.0771911 2434.17495,91.5033478 2432.22996,91.1890173 C2424.39155,91.3600482 2416.35359,91.072804 2407.94854,90.9012572 C2404.17433,90.1552222 2403.63481,90.1245244 2399.55482,90.4843857 C2398.42761,90.0584853 2395.77292,90.3880357 2394.77361,89.9585238 C2392.1774,90.2130064 2389.84083,90.4482706 2387.10397,90.5128908 C2384.18215,91.346118 2380.37617,91.9541417 2377.4254,92.1628355 C2374.04703,92.7791141 2375.04674,93.3328361 2374.67215,93.8338043 C2373.17866,93.8220669 2372.46247,94.2368748 2370.89308,94.1583244 C2370.34162,94.0605557 2370.01399,93.8850104 2368.65487,93.939957 C2367.1379,94.5403707 2363.71379,94.5650064 2360.87716,94.8714689 C2359.61923,94.5849987 2358.21154,94.2643481 2356.69295,93.9185459 C2354.32481,93.9277036 2351.82553,93.9728475 2349.96878,93.6525839 C2346.91946,93.828903 2345.13071,94.272087 2343.59452,94.6274339 C2339.73046,94.7373271 2336.82259,95.2835681 2333.32179,95.144138 C2333.09796,95.335806 2332.96845,95.44686 2332.71488,95.6643246 C2330.91216,95.57236 2329.18736,95.7713801 2327.38363,95.8661823 C2320.39618,96.2330086 2313.32839,96.5199948 2307.10246,97.3866285 C2306.65542,97.448927 2306.3292,97.5644954 2305.85991,97.6068017 C2303.68038,97.8032421 2298.8676,98.5047781 2298.06237,98.9442217 C2296.89044,99.5838461 2294.34968,99.8787002 2292.67203,100.404949 C2289.7923,100.085459 2289.73968,99.3018903 2287.0605,99.0881662 C2285.32922,99.000716 2284.23581,99.3559339 2282.4681,99.4099776 C2282.77105,99.9234571 2282.0498,100.387794 2280.77082,100.798991 C2277.93682,100.838201 2275.51931,101.170331 2273.04168,101.323047 C2268.9791,100.886441 2268.9791,100.886441 2267.88569,100.428166 C2263.71726,99.8614165 2259.77873,99.4195223 2255.43444,99.1609123 C2252.87587,99.5815244 2249.10267,99.5632089 2246.44939,100.095907 L2240.04578,100.095907 C2239.29276,100.264487 2238.64538,100.409463 2237.99779,100.55444 C2231.16597,100.7078 2224.32422,99.835491 2217.72593,100.601647 C2212.11298,99.6884509 2205.41391,99.2958281 2199.17989,100.829302 L2196.93014,100.829302 C2194.5191,101.780161 2190.02849,102.223861 2185.88415,102.470475 C2181.59916,102.725474 2178.21977,103.146731 2175.16944,103.75656 C2173.80344,103.830725 2172.8438,103.649634 2171.78419,103.56141 C2171.53689,103.717479 2171.31084,103.860004 2171.08237,104.004207 C2169.38974,103.979313 2167.62588,104.135898 2166.23701,103.925527 C2164.58344,103.674914 2163.55742,103.811249 2161.97185,103.98099 C2160.13878,104.177172 2158.31279,104.378127 2155.62045,104.10146 C2152.05326,103.73502 2148.31184,104.20284 2145.13199,104.691555 C2144.90169,104.726896 2145.03404,104.91779 2144.52852,104.992471 L2125.85843,104.992471 C2124.42767,104.672078 2123.00318,104.353105 2121.38422,103.990535 L2112.32024,103.990535 C2112.20388,103.755786 2112.10755,103.561797 2112.01021,103.368065 C2109.11146,103.09746 2107.20108,102.593654 2105.521,102.023164 C2103.51713,101.342394 2101.06885,100.865417 2097.07345,100.771001 C2095.43222,100.732049 2093.98163,100.838072 2092.47478,100.801699 C2090.5897,100.756297 2089.27935,100.398371 2087.35663,100.299312 C2084.65195,100.160011 2082.10613,99.8336853 2079.42694,100.310276 C2079.09,100.370124 2078.33819,100.339168 2077.81081,100.314919 C2075.23443,100.196255 2072.89341,100.462475 2070.74343,100.658787 C2069.28251,100.792155 2067.98714,100.757071 2067.09448,100.793702 C2065.75621,100.557406 2064.63629,100.359676 2063.73088,100.199738 C2064.13866,99.347808 2062.28859,98.8314909 2059.99229,98.3645741 C2059.5748,98.2797036 2059.2757,98.1864492 2059.38356,98.054887 C2059.02294,97.6770972 2061.23343,97.4429939 2060.43811,97.0307656 C2058.51438,96.3345179 2056.05275,96.6120883 2053.73156,96.8888848 C2049.07703,96.1801258 2044.3958,96.9438314 2039.80644,96.8692795 C2039.79835,96.5341829 2039.16655,96.2803452 2038.23868,96.2203683 C2035.68861,96.0555286 2034.3817,95.3492202 2031.51795,95.4131956 C2029.53553,95.4575656 2027.95562,95.2571267 2026.68696,95.0508836 C2024.4791,94.6921832 2022.19717,94.634528 2019.68859,94.6534884 C2019.39434,94.6558101 2019.08937,94.5870624 2018.78945,94.5510763 C2018.40131,94.464013 2018.01276,94.3770788 2017.6236,94.2900156 C2017.6234,94.1260788 2017.6234,93.962013 2017.6234,93.8736599 C2015.84173,93.4472437 2014.22418,93.0600381 2012.90573,92.7445468 C2011.69839,92.6352986 2010.68998,92.7840154 2010.40808,92.7024985 C2008.36393,91.6761844 2006.78524,90.7647937 2003.16321,90.4413055 C2001.18019,90.0424915 2001.28117,89.6360675 2000.82644,89.2820104 C1998.86628,89.1639914 1997.28941,88.9560715 1995.76657,88.6799199 C1994.29514,88.413184 1994.68369,87.8539157 1992.09942,87.7397661 C1990.23923,87.6576043 1989.17456,87.2060364 1988.49601,86.7840055 C1987.01951,86.9404613 1986.68499,86.4432336 1985.08485,86.5183015 C1982.90734,86.6204556 1981.11171,86.3227639 1979.49275,86.0034032 C1978.70168,85.8473343 1978.08688,85.6626313 1977.06005,85.5428065 C1971.64279,84.9105341 1966.47182,84.1686265 1961.06651,83.802574 C1958.47556,82.7958653 1956.12887,81.8656432 1957.16399,80.921233 C1956.26911,80.4478671 1955.82349,80.0901985 1954.31947,79.8879539 C1951.53283,79.9280674 1948.71745,79.9085911 1945.94842,79.5742683 C1944.38956,80.0006846 1942.5061,80.263422 1940.26707,80.3877612 C1938.97048,80.2021553 1938.30428,79.7592293 1935.57814,79.9445772 C1933.432,80.5647253 1929.32206,80.8750573 1927.15508,81.5753035 C1922.25103,81.8162429 1918.07694,81.2033178 1913.71525,81.3811848 C1912.28085,80.8064385 1907.64231,80.8986611 1908.60762,80.1287643 C1906.66668,79.0161609 1899.98279,79.014742 1899.77799,77.8038539 C1894.47467,77.0692984 1888.56606,76.8300357 1882.5253,76.3338399 C1881.3643,76.0481436 1879.3321,75.7553532 1878.6323,75.2216234 L1873.07541,75.2216234 C1870.89648,74.6685463 1868.05905,74.2321983 1866.99559,73.4550785 C1866.66107,73.2107856 1865.56503,72.9818416 1864.56714,72.8271915 C1861.6014,72.3674977 1858.42601,71.9744879 1855.51754,71.4986713 C1854.54171,71.3391199 1853.70612,71.2845603 1852.60239,71.2763054 C1851.40072,71.2672766 1850.13752,71.3673671 1849.07143,71.0897967 C1848.55599,70.9556548 1847.32315,70.9788717 1846.56103,71.0852823 C1844.37603,71.3907129 1841.61833,71.397549 1839.70411,71.789269 C1837.53469,71.5031857 1834.74643,71.5492325 1833.75543,71.1039847 C1829.41701,70.8737509 1826.08214,71.2628912 1823.95219,71.4469493 C1818.54728,71.2492191 1814.71013,70.7955875 1810.26223,70.7799806 C1805.27501,70.762439 1800.19147,70.9817093 1794.42674,70.3994821 C1794.09526,70.3072596 1793.07369,70.0227241 1792.51738,69.867816 C1787.64976,69.7299337 1785.44534,68.8915472 1781.19009,68.5800543 C1776.38946,68.5797964 1776.38946,68.5797964 1769.80695,70.0539379 C1769.30548,69.9360478 1768.80421,69.8181578 1768.08276,69.6485457 L1768.08276,68.5555477 C1764.58377,68.6607974 1761.15339,68.3522712 1758.03182,68.8617522 C1755.1013,68.3431134 1751.87612,68.0024705 1749.15747,67.8167357 C1746.57988,67.1956847 1747.9224,66.4158563 1745.76574,65.8950247 C1744.9,65.8727108 1744.03446,65.8505258 1742.96817,65.8231815 C1739.69483,64.4283643 1735.88662,63.107583 1730.17026,62.1954185 C1726.8615,62.1220274 1723.51976,62.3531641 1721.07047,61.8018927 C1720.79707,60.3144661 1716.31557,59.6701983 1711.04584,59.1022881 C1711.36154,58.7995661 1709.68126,58.6273744 1709.66467,58.3837264 C1707.4821,57.9805269 1704.9207,57.8147844 1702.65313,58.0550789 C1699.09587,58.4320948 1695.51553,58.1193122 1691.99974,58.2395239 C1689.46424,57.6560069 1687.13354,58.2203055 1684.86193,58.3553502 C1683.84624,58.415843 1682.88821,58.4698867 1681.83285,58.4733692 C1679.7452,57.9918774 1677.75913,57.4760762 1674.76284,57.255774 C1671.59635,57.470659 1669.64873,58.0639786 1667.33604,58.5425039 C1665.1895,58.4955542 1663.67577,58.1457536 1661.8006,58.2156621 C1659.84854,57.5378589 1656.60757,57.2872458 1654.41124,56.7657694 L1651.11018,56.7657694 C1650.62631,57.0365037 1649.31697,56.9912308 1648.43018,57.1048645 C1647.23013,57.2583537 1647.7911,57.6483969 1646.23608,57.765642 C1643.11816,57.8008543 1642.25829,57.0537874 1639.7319,56.7293963 C1634.40449,57.0919662 1630.18426,56.0046434 1624.78704,56 C1622.55024,56.6787061 1619.39224,56.8452226 1616.7424,56.7753141 C1609.95894,57.418808 1605.67921,58.6483985 1599.67225,59.0130322 C1597.78009,59.716374 1595.54814,60.1807112 1592.51339,60.4542831 C1590.1325,60.4542831 1587.46486,60.6042898 1585.45208,60.4115899 C1583.48079,60.2227595 1581.05012,60.4060437 1579.9134,60.1755519 C1577.58068,59.7025729 1575.95301,60.1639434 1574.11063,60.225984 C1572.46333,60.2814465 1571.48811,60.0310914 1570.11078,59.9542178 C1569.30271,60.0014254 1568.85244,60.1800662 1567.88288,60.225855 C1565.57039,60.3349743 1562.74024,60.3971439 1561.21275,60.7299188 C1558.23547,61.378572 1554.46511,61.6780695 1550.88861,62.1734914 L1535.8025,62.1734914 C1533.42141,62.8015074 1530.10678,62.8779941 1527.1805,62.9444201 C1524.62639,63.218379 1524.44385,63.8413647 1522.49522,64.1451186 C1521.13023,64.1910364 1519.82879,64.1844583 1518.38933,64.2958992 C1514.67664,64.5832723 1510.72879,64.78513 1506.81738,64.851298 C1504.48708,64.8906377 1502.11267,64.939909 1500.20371,65.1575026 C1497.50388,65.4651259 1495.10559,65.4174024 1492.88113,65.0997184 C1490.9487,64.8235668 1489.44427,64.8227929 1487.57376,65.0783073 C1485.99143,65.294353 1484.299,65.5223942 1482.52563,65.6039111 C1479.58397,65.7392138 1477.24154,66.1158429 1475.62176,66.5867581 C1473.98823,67.0616718 1472.47308,67.5635429 1470.4,67.9293374 C1468.04501,68.3451771 1467.89728,69.0516145 1465.54047,69.5276891 C1463.84562,69.5084707 1462.1959,69.7116182 1460.7708,69.8854867 C1460.11796,70.2029127 1459.55233,70.4780325 1459.0118,70.7407699 C1457.36693,70.8787812 1455.86959,71.0414282 1454.01972,71.0567771 C1451.60969,71.0766404 1449.3221,71.3922607 1446.77891,71.2815937 C1443.91455,71.922121 1440.21765,71.7507032 1436.69924,71.7766287 C1434.71904,72.4420496 1431.45663,72.6626098 1428.54249,73.0066062 C1424.61853,73.4696535 1420.05386,73.6824747 1417.13406,74.4735247 L1406.05022,74.4735247 C1404.98272,74.23452 1403.94658,74.0026094 1403.01892,73.7948185 C1401.62499,73.6273992 1400.24786,73.8101675 1398.76549,73.6252065 C1396.89276,73.3913611 1394.48131,73.2610888 1392.34104,73.2824999 C1390.55957,73.3004285 1388.82991,73.5973463 1387.5572,73.9432774 C1387.38984,73.9888083 1386.81835,73.9506295 1386.56943,73.9920328 C1383.19065,74.5533649 1379.14304,74.7140771 1375.23365,74.9597889 C1374.63281,74.404648 1372.42778,74.1425555 1371.012,73.7580585 C1367.22241,73.6998874 1363.59755,73.7107219 1360.31206,74.2256202 C1358.49902,74.5097688 1357.39145,75.0571707 1355.5088,75.1745448 C1352.85005,75.3402874 1352.33158,75.8070752 1351.82646,76.1954416 C1351.21976,76.6619715 1350.64604,77.0956108 1348.99631,77.4095543 C1347.94479,77.6096062 1348.7219,77.8724726 1347.9537,78.0171911 C1346.7589,78.3218478 1345.56391,78.6263756 1344.39562,78.9241963 C1342.25859,78.7841213 1341.37585,79.1446275 1340.00378,79.4300658 L1334.47016,79.4300658 C1332.02593,80.2033162 1327.15689,79.8598357 1324.65701,80.6902253 C1321.87199,80.3702196 1319.51012,80.9017566 1316.56057,80.9471585 C1313.35866,82.4598658 1306.00594,82.8477163 1300.46503,83.7993495 L1295.90097,83.7993495 C1293.83274,83.7489173 1295.21493,83.2282148 1293.94729,83.0929121 C1292.72901,83.1352184 1291.43121,82.9959172 1290.27102,83.1860375 C1288.94509,83.4032441 1287.83387,82.9134974 1286.63463,83.0991032 C1283.55839,83.5753068 1280.34354,84.0409338 1280.00355,84.955291 C1277.98855,85.4198861 1276.07959,85.8601035 1274.17892,86.2982572 L1270.78072,86.2982572 C1269.75389,86.6536042 1268.34802,86.8727455 1266.4933,86.7901967 C1260.25887,88.073315 1258.19186,89.831605 1254.70542,91.4859351 C1252.31097,91.3189027 1250.3502,91.6769583 1247.93876,91.7255847 C1246.72757,91.4566561 1245.47409,91.1783118 1244.34324,90.9269248 C1241.76646,91.2004967 1241.76646,91.2004967 1237.17872,90.9675543 C1234.63553,91.1924998 1234.4196,91.8700451 1232.42888,92.1941783 L1228.69271,92.1941783 C1228.22119,92.0515236 1227.57361,91.8557281 1227.13993,91.7245528 L1223.60714,91.7245528 C1213.7179,93.3790119 1214.50634,94.2686045 1211.99189,96.0516592 C1211.04115,96.2282363 1209.78787,96.4611787 1208.82479,96.6400775 C1208.96948,97.316075 1207.6389,97.7214672 1206.28888,98.0636578 C1204.17148,97.9158439 1202.71967,97.5664301 1200.54905,97.2328813 C1199.36842,97.5465668 1198.34665,98.0561769 1197.26559,98.062626 C1193.22728,98.0863588 1192.66591,98.7882818 1191.2311,99.3488399 C1190.25406,99.7307572 1189.24908,100.059147 1186.82347,100.098873 C1185.21543,100.125186 1183.05594,100.336459 1182.58543,100.695289 C1181.88887,101.226181 1179.72917,101.403016 1178.64406,101.821564 C1174.03426,101.61416 1169.85693,102.285127 1165.68102,102.032709 C1160.78203,102.821179 1155.1454,102.702773 1149.8095,103.080434 C1146.44165,103.837432 1142.82468,104.650667 1139.23848,105.456808 C1135.65348,105.461452 1132.44045,105.928497 1128.92203,105.710259 C1128.11134,105.93069 1127.53296,106.088178 1127.00376,106.232122 L1121.43594,106.232122 C1120.87072,106.34266 1120.32655,106.416825 1119.65043,106.484283 C1114.42219,107.006791 1110.85581,107.94256 1109.00533,109.106498 C1108.21204,109.605661 1107.46287,109.946175 1105.40537,110.164671 C1103.57573,110.359048 1102.39854,110.692726 1101.73882,111.168284 C1099.73616,111.012086 1097.54631,111.16506 1096.33107,111.416318 C1093.03567,112.097603 1088.83507,112.629785 1086.40035,113.419803 C1083.32937,114.416323 1079.18543,114.973398 1074.80877,115.604381 L1067.59325,115.604381 C1065.36838,116.086131 1062.47287,116.281926 1060.86422,116.761354 C1058.08123,117.078006 1055.58134,116.721757 1053.57949,116.518609 C1048.86912,116.040987 1045.48953,116.389626 1042.04802,117.068333 L1036.68945,117.068333 C1035.32426,117.457731 1033.74678,117.832554 1031.69454,117.935482 C1028.51328,118.094905 1025.71388,118.502747 1022.34118,118.551632 C1020.687,118.575494 1019.79212,118.295859 1018.4162,118.277673 C1016.7256,118.599871 1015.14387,118.546344 1013.05379,118.399432 C1007.89253,118.036605 1002.55987,117.77606 997.236105,118.270321 C996.67048,118.14998 996.267965,117.998168 995.213614,118.045762 C993.579675,118.342809 991.530876,118.522353 988.668548,118.617542 C987.674504,118.865317 986.342501,119.19719 985.239986,119.471922 C981.517786,119.744075 980.134786,118.946318 977.453781,118.80547 C973.389372,118.701639 969.512763,119.115802 965.324503,119.038154 C960.967264,118.95754 956.557003,119.020225 952.227084,119.020225 C950.619655,119.412719 949.118875,119.791154 947.757731,120.214991 C946.216073,120.695064 945.53631,121.252655 944.144001,121.742402 C942.778405,122.222733 940.799626,122.423688 938.973637,122.695841 C937.643051,122.894345 936.367105,122.568664 935.073148,122.46909 C934.745713,122.443809 934.346233,122.46522 933.767049,122.46522 C933.494051,122.514105 933.048634,122.577177 932.696307,122.659984 C931.315937,122.984375 929.613597,123.154245 927.652829,123.202871 C924.919411,123.270716 925.851124,123.882867 924.717242,124.187911 C923.868096,124.144831 922.89267,124.275103 922.135804,124.093496 C921.923113,123.955871 922.200158,123.766654 921.286253,123.695585 C916.776629,123.695585 916.776629,123.695585 913.252751,123.329016 C913.393196,122.824952 910.182386,122.743565 910.834626,122.219121 C909.037373,122.219121 907.5457,122.260396 906.122226,122.208158 C904.539284,122.150116 903.466518,122.414788 902.164871,122.447421 C899.913095,122.503915 897.718589,122.374545 895.449206,122.253689 C889.866613,121.956384 884.862598,122.606456 880.20241,123.154116 C877.425279,123.480571 874.939967,123.750273 871.843496,123.694553 C867.832715,123.622323 864.404154,123.974703 860.863277,124.406278 C860.156397,125.288132 857.050212,125.793228 854.466953,126.395963 L852.285399,126.395963 C850.722087,126.711068 849.18225,127.020497 847.387021,127.287104 C845.218216,127.609302 842.233858,127.837343 841.287574,128.401642 C840.333397,128.970842 838.283789,129.100211 836.26494,129.379716 C833.055547,129.096084 829.990645,129.786527 826.636961,129.538236 C824.387006,129.391454 826.088132,128.830122 824.619934,128.602081 C823.114096,128.653029 821.917884,129.017017 819.905511,128.788847 C819.177585,128.200687 816.109041,127.959619 814.798084,127.381906 L809.352497,127.381906 C808.812977,127.261178 808.295111,127.145094 807.582969,126.985671 L807.582969,125.632129 C804.277854,125.424854 802.408355,124.810897 800.053774,124.315604 L800.053774,123.689265 C798.664096,122.861197 793.855773,122.901052 793.161035,122.048478 C791.129033,121.832303 789.142362,121.6209 787.155286,121.409498 C785.063179,120.971602 785.94086,120.376606 785.752048,119.943998 C784.482781,119.538348 784.161619,119.106128 782.488419,118.928132 C782.284228,118.627087 782.801891,118.336747 781.995647,118.03209 L778.523779,118.03209 C775.012044,116.852029 774.914501,116.830231 772.742863,116.715694 C768.46131,115.766641 763.964435,114.926706 757.889678,114.800175 C756.911419,115.019316 756.264035,115.164292 755.616652,115.309269 C749.733944,115.505064 745.427095,114.898201 741.779974,113.954823 C741.803246,112.998933 742.172977,112.0384 740.153724,111.147389 C739.055864,111.146873 737.958611,111.146873 736.860954,111.146357 C735.658064,110.859887 734.072491,110.63765 733.794636,110.208009 C731.253065,110.090506 728.811262,109.825963 728.702792,109.493188 C728.470066,108.779527 726.328986,108.21123 726.147055,107.478997 C724.887096,107.46455 723.655267,107.450491 723.053821,107.443526 C721.660501,107.194332 720.664028,107.016207 719.785538,106.859106 C720.221646,105.949264 716.518266,105.56051 715.659203,104.849429 C713.910722,104.705614 712.135123,104.706904 710.827608,104.366906 C709.759901,104.089335 708.221075,104.211353 707.163892,104.493051 C706.766841,104.412179 706.368981,104.331178 705.841198,104.223735 C704.157678,104.391928 702.449064,104.63635 700.43568,104.467254 C700.294425,103.951582 697.435132,103.794739 697.361267,103.279712 C695.178296,103.206708 693.809058,103.117065 693.609925,102.927847 C692.777575,102.136669 690.094547,101.663432 687.730455,101.134603 C686.082552,100.7661 685.103079,100.352453 684.56113,99.8246565 C683.554337,98.8433573 683.336384,98.8545788 678.884233,98.3276851 C678.025575,98.4967812 677.110253,98.6769698 676.673538,98.7630012 C672.729944,99.0773316 669.650674,98.4531851 666.290312,98.623958 C665.733388,99.2146981 663.431019,99.4466087 662.153656,99.8321375 C659.158573,99.7823502 657.322061,100.147113 655.579853,100.55315 C653.165775,100.626412 650.539613,100.402369 648.392057,100.812663 C642.635021,100.335943 637.491977,99.4716313 631.271513,99.562177 C630.615428,99.4152659 630.226674,99.3282027 629.644049,99.1978013 L629.644049,98.2135356 C629.060615,98.0830052 628.672266,97.995942 628.088832,97.8654117 L621.468281,97.8654117 C618.857701,97.183094 614.58141,97.1102189 612.778289,96.3964295 C611.583696,96.3489639 610.584795,96.4696916 609.956435,96.26706 C610.082512,95.7551283 606.86138,95.676062 607.552273,95.151619 C605.925822,95.1625825 604.423221,95.2166262 603.870142,94.8904293 C602.788067,94.2523527 600.202379,93.917901 598.714349,93.5033511 C594.872749,93.3630181 591.482436,93.1238844 587.85454,93.1509708 C585.986863,93.1649009 584.110686,92.8218073 582.162465,92.7014666 C580.858187,92.6209815 581.766426,92.2322281 579.924247,92.151743 C578.066891,92.070484 575.802567,91.9703935 574.264754,91.6877928 C572.618065,91.3851997 570.965508,91.124655 569.181612,90.9829032 C566.145245,91.3161941 563.362852,91.7182327 560.316367,91.9234439 C558.143515,92.0698391 555.6153,91.951949 552.536233,91.951949 C551.748607,91.7575724 550.663496,91.4896756 549.575148,91.2212629 C548.932014,91.2113313 548.235455,91.2007547 547.756242,91.1934027 C546.208107,90.1848882 541.116668,90.0590012 539.512274,89.3725562 C535.513838,88.8910643 531.727081,89.0199179 527.901672,88.9955402 C527.683314,88.8555941 527.567558,88.6979775 527.219278,88.5726064 C525.847813,88.0789902 522.981033,87.9892184 521.478229,87.5247522 C520.013876,87.5242363 518.550738,87.5242363 517.094075,87.5242363 C515.570225,87.1908164 513.636372,86.9138909 514.364299,86.2943878 L510.495987,86.2943878 C508.416832,85.8439807 506.414983,85.4670937 504.50926,85.0731811 C502.373644,84.6320608 502.184226,83.7343423 498.054451,83.7410494 C497.618949,83.7416943 497.162806,83.5132662 496.738031,83.3875082 C494.921148,82.849393 493.513257,82.7718745 490.289697,83.0644069 C488.114214,82.2945101 484.806468,81.6891951 484.540756,80.6365685 C484.362265,79.9296152 481.361515,79.4587 478.010867,79.4042693 C477.104247,79.3895653 476.18852,79.4020766 475.303149,79.4020766 C473.478577,78.9314193 471.233478,78.6619748 468.51119,78.616315 C467.84438,78.0164172 465.324867,77.7614187 463.794946,77.2889556 L463.794946,76.8220388 C461.8617,76.6913795 460.461094,76.436639 459.99807,75.9659817 L456.367746,75.9659817 C455.479744,75.7259452 454.440167,75.4451502 453.358901,75.1528757 C451.220857,75.4027149 449.768646,74.7495473 448.1768,74.9913896 C445.608516,75.3814328 442.908489,75.2220104 440.337574,75.1976327 C436.394587,75.1602277 433.267153,75.497904 430.171896,75.9663686 C427.331829,76.3960095 424.565626,76.9489576 421.39448,77.1439792 C417.6569,77.3736972 414.639353,77.862799 410.972399,78.1717121 L406.009465,78.1717121 C405.047801,77.9249685 403.978475,77.6507517 403.012156,77.4027182 C398.381716,77.6226335 396.18033,76.776121 392.263246,76.451214 C390.443531,76.473657 388.116472,76.4258044 385.835959,76.1237273 C383.442523,75.8066882 380.67369,75.6068943 377.835039,75.7283958 C376.718763,75.7762484 375.762158,76.015253 374.031081,75.9390243 C373.581818,75.8056564 372.926138,75.6112797 372.334002,75.4357344 C368.902,75.571682 365.549328,75.2383912 362.476534,75.7314914 C360.75679,75.4028439 358.385007,75.4256738 356.429704,75.1755767 C354.948149,75.3466075 353.589636,75.5033213 352.187816,75.6651944 C350.682381,76.6276621 347.567899,77.3472557 345.366311,78.2528422 C343.33613,78.0511135 342.306873,77.3547367 339.705805,77.7783154 C339.592275,77.8943997 339.482591,78.0062275 339.389703,78.1009007 C338.049605,78.3006947 336.395631,78.0109999 334.845473,78.3729249 C334.134545,78.6958972 333.066839,79.1070935 331.512835,79.3573197 L326.675978,79.3573197 C325.910006,79.0312518 327.156406,78.6642965 325.849092,78.4264527 L323.605208,78.4264527 C321.245568,78.9800457 318.556064,79.4554754 317.283154,80.1079981 C315.878702,80.2374965 315.530018,79.9588943 314.803508,80.0328013 C311.651182,79.9630217 308.909264,80.359514 305.894146,80.3916307 C305.117651,80.123476 306.077494,79.8301697 305.009787,79.6552694 C302.402041,79.6065139 299.648588,79.7892822 297.381633,79.3464851 C295.001959,79.8902755 292.827083,80.3872453 290.676896,80.8784108 C288.245415,80.8784108 285.843884,80.8361045 283.491327,80.8942757 C282.069269,80.9294879 280.842095,81.3218528 279.203096,81.0119077 C277.632296,80.7148609 275.719895,80.9705043 274.022209,80.8425537 C270.380349,80.5679498 266.591771,80.4530264 262.77567,80.3896959 C261.500331,80.3685428 260.196661,80.3578373 258.934476,80.3936944 C257.408805,80.4369036 256.17313,80.2098943 255.072437,80.0992273 C252.975069,79.8882118 250.947924,79.9272935 249.470417,79.8982725 C245.436363,79.3831162 242.73755,78.5514367 237.941167,78.6644255 C236.517288,78.9832703 235.0926,79.3022441 233.547703,79.6480463 C232.219546,79.6480463 230.765514,79.664943 229.323219,79.6435319 C227.796738,79.620831 226.232009,79.8137889 225.642099,79.9897211 C223.743459,80.5558255 221.063467,80.8984031 218.853986,81.3677706 C216.579746,81.8509392 213.353555,81.9663786 210.885242,82.4414213 C208.935403,82.8166315 205.480938,83.0998771 203.015053,82.80541 C200.619796,82.5195847 198.438849,82.7084151 195.935526,82.5596982 C195.176839,82.4587049 194.782217,82.1201257 192.896933,82.0992306 C191.002745,82.2057701 188.994016,82.4166566 187.366957,82.8608725 C185.033625,82.7531721 182.454413,83.0244223 180.110962,82.6916474 C177.564939,82.3299803 175.222703,83.1975169 172.71938,82.7576865 C171.654304,82.1877126 171.151615,81.5171324 169.430657,81.0963913 C167.119585,80.5314478 166.603945,79.871831 165.644102,79.1904163 C163.96301,79.0428602 162.045145,78.9525725 160.566829,78.5522106 L160.566829,77.5182866 C159.547084,77.4565039 159.409674,77.1691308 158.18513,77.1851247 C156.257753,77.2903744 155.496436,77.7565173 153.687041,77.9676618 C152.310719,78.128374 151.202133,78.630503 149.554028,78.6319219 C147.342726,78.6337276 145.545271,78.8888551 143.430499,78.9400612 C141.296502,78.9916542 139.951952,78.4656634 137.792052,78.6916408 C135.036778,79.3601573 131.451784,79.9008521 130.547998,80.7579411 C126.432186,80.6165762 122.917213,80.2365937 119.045056,80.4022073 C117.39351,79.8416491 115.20973,79.502941 113.76096,78.9648258 C112.192588,78.3825986 109.693515,77.8469341 106.169637,77.928967 C104.037057,78.2992759 102.189617,78.6764208 100.330843,79.0307359 C96.1247749,79.8323624 96.243364,79.8010196 91.4878596,80.182679 C88.8376154,80.3953712 85.8712686,80.1948033 83.486737,80.6176081 C82.9255636,80.7171826 81.2719942,80.7176986 80.8717053,80.6159313 C79.3355108,80.2251142 77.4556912,80.4123969 75.7505174,80.3952422 C72.6534392,80.3640284 69.5452306,80.3863424 66.5181726,80.3863424 C64.4056269,79.9261327 62.6213262,79.413943 59.2417388,79.1540432 L53.3189613,79.1540432 C52.2741224,78.9200689 51.2379854,78.6881582 50.4121114,78.5031973 C47.072391,78.2715446 43.9846218,78.0573046 40.8869365,77.8422907 C40.7602526,77.5470497 39.9863878,77.3441602 38.9067411,77.1873174 C34.5110514,77.1873174 30.1137428,77.1719685 25.7202791,77.1937665 C23.4664788,77.204988 21.3695157,77.3842737 19.4188664,77.6427547 C17.6807061,77.8731176 17.7282632,78.3037903 17.6034006,78.4046546 C15.0112368,78.8275884 13.6567711,79.2046043 12.1090414,79.5226753 C12.6127416,79.9643115 11.1137833,80.2551672 10.417224,80.7166667 C3.94399874,80.1143182 10.7037807,80.3539678 3.74405668,80.034736 C3.19421603,79.9115577 2.32159442,79.9419975 1.65599783,79.7928937 C1.48641135,79.7990849 0.173431521,79.6622344 0,79.6639112 L0,82.0930394 L0,82.6143868 L0.0479618093,211.994583 Z" id="layer_2"></path>
        </g>
    </g>
</svg>