<?xml version="1.0" encoding="UTF-8"?>
<svg width="2054px" height="585px" viewBox="0 0 2054 585" version="1.1" xmlns="http://www.w3.org/2000/svg" xmlns:xlink="http://www.w3.org/1999/xlink">
    <!-- Generator: Sketch 53.2 (72643) - https://sketchapp.com -->
    <title>Group 200</title>
    <desc>Created with Sketch.</desc>
    <defs>
        <polygon id="path-1" points="0.170137156 0.798928571 502.515994 0.798928571 502.515994 487.045093 0.170137156 487.045093"></polygon>
        <polygon id="path-3" points="0 585 2054 585 2054 1 0 1"></polygon>
    </defs>
    <g id="Page-1" stroke="none" stroke-width="1" fill="none" fill-rule="evenodd">
        <g id="Group-200">
            <g id="Group-3" transform="translate(34.000000, 0.000000)">
                <mask id="mask-2" fill="white">
                    <use xlink:href="#path-1"></use>
                </mask>
                <g id="Clip-2"></g>
                <path d="M251.307134,459.632307 C254.702617,459.632307 268.607928,459.47095 278.560824,442.295379 C290.04079,422.466379 320.761824,409.557807 333.086169,414.057879 C333.086169,414.057879 335.331859,417.356736 329.403238,425.729379 C338.188376,417.948379 330.840479,420.404593 350.710341,399.338521 C370.598169,378.27245 383.910617,387.075379 383.910617,387.075379 C387.180341,383.597236 388.419962,374.991521 388.419962,374.991521 C395.80379,342.702164 421.817859,335.315593 421.817859,335.315593 C416.086859,295.639664 441.921272,280.292807 441.921272,280.292807 C439.855238,271.902236 439.04679,278.24895 435.974686,264.336379 C427.854272,227.67245 441.094859,213.598521 441.094859,213.598521 C441.094859,213.598521 438.310203,209.618379 433.926617,204.813521 C427.369203,197.660021 424.279134,190.703736 424.279134,190.703736 C405.846514,152.856521 418.350514,142.83445 418.350514,142.83445 C399.486721,134.856236 391.492066,124.439736 388.222341,113.790164 C384.934652,103.140593 381.449341,100.074807 381.449341,100.074807 C369.771755,85.9112357 374.299066,78.5425929 374.299066,78.5425929 C380.838514,76.3732357 387.611514,80.8553786 387.611514,80.8553786 C399.684341,88.4212357 400.097548,85.7678071 400.097548,85.7678071 C399.271134,80.6402357 389.659583,78.20195 389.659583,78.20195 C314.024755,58.7853071 322.648203,39.7272357 322.648203,39.7272357 C322.648203,39.7272357 323.025479,36.6793786 332.475341,39.7272357 C341.889272,42.8288786 345.78779,40.7850214 345.78779,40.7850214 C345.78779,40.7850214 340.847272,32.39445 328.145652,23.7887357 C315.444031,15.20095 308.671031,7.41995 311.132307,0.876021429 C311.132307,0.876021429 351.105583,-2.18976429 377.353203,28.0915929 C377.353203,28.0915929 377.964031,26.6752357 377.76641,25.6353786 C377.550824,24.5955214 379.401272,15.8105214 389.659583,26.8545214 C389.659583,26.8545214 393.342514,32.7888786 404.606893,36.4642357 C415.889238,40.1575214 434.950652,60.00445 440.897238,90.4650929 C440.897238,90.4650929 441.723652,99.4652357 444.148997,101.724236 C444.148997,101.724236 448.281066,94.14045 451.155548,92.7061643 C451.55079,95.5747357 463.857169,113.790164 467.737721,119.724521 C471.636238,125.658879 476.75641,136.900093 476.75641,136.900093 C480.475272,145.075521 485.164272,170.050021 476.343203,194.181879 C476.343203,194.181879 477.169617,199.291521 476.163548,203.379236 C476.163548,203.379236 479.038031,197.660021 480.654928,191.52845 C482.720962,183.74745 488.433997,184.769379 488.433997,184.769379 C488.433997,184.769379 493.769755,184.357021 496.03341,199.68595 C497.937755,212.576593 500.955962,220.967164 500.955962,220.967164 C500.955962,220.967164 509.345859,247.788307 487.212341,274.143307 C487.212341,274.143307 494.200928,272.117379 496.231031,273.964021 C498.2791,275.792736 499.3211,282.533879 494.99141,299.33295 C494.99141,299.33295 491.937272,311.183736 491.524066,314.859093 C491.524066,314.859093 489.044824,328.377236 474.905962,334.921164 C460.7671,341.447164 458.108203,344.118521 457.084169,347.793879 C457.084169,347.793879 457.694997,348.40345 463.246341,346.359593 C468.761755,344.315736 471.007445,346.359593 471.007445,346.359593 C471.007445,346.359593 476.971997,350.877593 464.25241,370.509379 C464.25241,370.509379 459.761031,378.075236 456.670962,384.206807 C453.598859,390.356307 442.5321,403.641379 405.846514,409.360593 C405.846514,409.360593 404.409272,414.470236 416.500066,411.40445 C428.590859,408.356593 429.632859,413.66345 429.632859,413.66345 C429.632859,413.66345 434.537445,432.900807 379.796514,451.080379 C379.796514,451.080379 367.705721,454.558521 349.255134,450.05845 C349.255134,450.05845 352.129617,451.887164 357.465376,452.927021 C362.801134,453.966879 368.065031,460.60045 354.393272,466.839593 C339.625617,473.580736 326.313169,485.431521 307.251755,482.18645 C288.208307,478.905521 279.027928,461.60445 265.679548,466.732021 C272.632203,476.861664 285.118238,481.30795 285.118238,481.30795 L279.495031,486.919593 C279.495031,486.919593 268.086928,482.867736 261.026479,473.670379 C262.445755,478.349736 264.8711,482.078879 264.8711,482.078879 L256.121893,482.078879 C256.121893,482.078879 252.061686,475.857664 251.343066,469.403379 C250.678341,475.929379 246.564238,482.18645 246.564238,482.18645 L237.815031,482.18645 C237.815031,482.18645 240.240376,478.457307 241.695583,473.795879 C234.599203,482.957379 223.209066,487.045093 223.209066,487.045093 L217.585859,481.43345 C217.585859,481.43345 230.053928,476.987164 236.988617,466.839593 C223.676169,461.72995 214.49579,479.013093 195.452341,482.294021 C176.372962,485.557021 163.060514,473.706236 148.292859,466.947164 C134.639066,460.708021 139.884997,454.07445 145.220755,453.052521 C150.556514,452.012664 153.413031,450.18395 153.413031,450.18395 C134.962445,454.684021 122.871652,451.18795 122.871652,451.18795 C68.1486862,432.99045 73.0712379,413.753093 73.0712379,413.753093 C73.0712379,413.753093 74.0952724,408.446236 86.1860655,411.52995 C98.2768586,414.577807 96.8216517,409.468164 96.8216517,409.468164 C60.1360655,403.74895 49.0872724,390.44595 46.015169,384.314379 C42.9430655,378.164879 38.4157552,370.599021 38.4157552,370.599021 C25.7321,350.967236 31.6607207,346.467164 31.6607207,346.467164 C31.6607207,346.467164 33.9243759,344.423307 39.4577552,346.467164 C45.0091,348.52895 45.6019621,347.919379 45.6019621,347.919379 C44.5779276,344.226093 41.919031,341.572664 27.780169,335.010807 C13.6233414,328.484807 11.180031,314.984593 11.180031,314.984593 C10.7488586,311.309236 7.67675517,299.422593 7.67675517,299.422593 C3.38299655,282.64145 4.40703103,275.918236 6.4551,274.053664 C8.50316897,272.22495 15.4737897,274.250879 15.4737897,274.250879 C-6.65972759,247.860021 1.73016897,221.092664 1.73016897,221.092664 C1.73016897,221.092664 4.76634138,212.702093 6.65272069,199.81145 C8.91637586,184.464593 14.2521345,184.87695 14.2521345,184.87695 C14.2521345,184.87695 19.9831345,183.855021 22.0312034,191.636021 C23.6481,197.785521 26.5405483,203.486807 26.5405483,203.486807 C25.5344793,199.399093 26.3429276,194.28945 26.3429276,194.28945 C17.5218586,170.157593 22.2108586,145.201021 25.9297207,137.025593 C25.9297207,137.025593 31.0498931,125.76645 34.9484103,119.832093 C38.8469276,113.897736 51.1353414,95.6823071 51.5485483,92.8316643 C54.423031,94.26595 58.519169,101.831807 58.519169,101.831807 C60.9624793,99.5907357 61.7888931,90.5726643 61.7888931,90.5726643 C67.7534448,60.1120214 86.8148586,40.2650929 98.0792379,36.5718071 C109.361583,32.89645 113.044514,26.9620929 113.044514,26.9620929 C123.302824,15.9180929 125.135307,24.7210214 124.937686,25.74295 C124.7221,26.74695 125.332928,28.1991643 125.332928,28.1991643 C151.580548,-2.08219286 191.535859,0.983592857 191.535859,0.983592857 C194.0151,7.52752143 187.2421,15.3085214 174.540479,23.8963071 C161.820893,32.5020214 156.898341,40.8925929 156.898341,40.8925929 C156.898341,40.8925929 160.814824,42.9185214 170.228755,39.8706643 C179.660652,36.78695 180.055893,39.8706643 180.055893,39.8706643 C180.055893,39.8706643 188.679341,58.8570214 113.044514,78.3095214 C113.044514,78.3095214 103.414997,80.7836643 102.588583,85.8753786 C102.588583,85.8753786 103.00179,88.5288071 115.092583,80.9808786 C115.092583,80.9808786 121.865583,76.4808071 128.405031,78.6322357 C128.405031,78.6322357 132.914376,86.0188071 121.254755,100.200307 C121.254755,100.200307 117.751479,103.266093 114.481755,113.897736 C111.1761,124.547307 103.217376,134.981736 84.3356172,142.942021 C84.3356172,142.942021 96.8216517,152.982021 78.4069966,190.829236 C78.4069966,190.829236 75.3169276,197.785521 68.7774793,204.921093 C64.3579621,209.743879 61.5912724,213.706093 61.5912724,213.706093 C61.5912724,213.706093 74.8138931,227.762093 66.7294103,264.44395 C63.6573069,278.356521 62.8308931,272.009807 60.7828241,280.400379 C60.7828241,280.400379 86.6172379,295.729307 80.8682724,335.423164 C80.8682724,335.423164 106.900307,342.791807 114.284134,375.117021 C114.284134,375.117021 115.487824,383.722736 118.775514,387.165021 C118.775514,387.165021 132.087962,378.380021 151.993755,399.446093 C171.863617,420.512164 164.47979,418.073879 173.282893,425.819021 C167.354272,417.446379 169.617928,414.183379 169.617928,414.183379 C181.906341,409.683307 212.663307,422.57395 224.125307,442.40295 C234.042272,459.524736 247.660134,459.632307 251.307134,459.632307" id="Fill-1" fill="#007AC2" mask="url(#mask-2)"></path>
            </g>
            <path d="M158,46 C160.862751,44.6805081 164.571724,43.3790914 169.090909,42.5295554 C171.323495,35.8236444 177.78719,22.3575965 194.351535,20.3512457 C194.351535,20.3512457 194.351535,23.8578407 184.070838,30.6722032 C178.201299,34.5583781 176.094746,38.7699072 175.374557,41.6619443 C178.453365,41.4088911 181.856257,41.3365901 185.56523,41.5534929 C187.761806,36.6370298 191.056671,31.9193942 202.14758,24.2735711 C215.579103,15.0371275 219,9 219,9 C164.355667,17.4230581 158.504132,39.5471422 158,46" id="Fill-4" fill="#EDAE25"></path>
            <path d="M188.164491,45.7481704 C177.228605,44.0927497 159.853496,43.7834953 149.133449,60.2467452 C156.615898,58.0637728 169.51233,55.1349516 178.091964,57.8090927 C178.091964,57.8090927 178.307804,61.1199341 162.713374,62.3569518 C152.137221,63.2119493 145.913838,70.4339495 143,75 C144.996519,74.7817028 162.245721,72.6533047 180.771976,65.0674758 C200.467363,56.9540952 205,46.8032737 205,46.8032737 C205,46.8032737 201.708442,47.8401856 188.164491,45.7481704" id="Fill-6" fill="#EDAE25"></path>
            <path d="M99.3690502,113 C100.087737,112.007499 102.836713,109.517225 111.838261,103.111085 C111.047706,93.294352 110.20325,63.0862433 129.374213,57.4199672 C129.374213,57.4199672 115.054384,78.6414343 118.953258,98.1666276 C119.150897,98.0403094 119.330569,97.8959456 119.528207,97.7515819 C143.927615,81.0775721 147,36 147,36 C94.4460474,54.7492383 98.6683308,106.774315 99.3690502,113" id="Fill-8" fill="#EDAE25"></path>
            <path d="M118.266427,104.588365 C102.910891,111.513888 97.0423042,124.180778 94.990099,135.017607 C102.80288,127.966491 119.328533,113.846318 127.915392,112.769812 C127.915392,112.769812 129.553555,112.985113 128.545455,114.815174 C127.645365,116.447875 102.136814,134.317878 94,146.231213 C94.0360036,150.034869 94.3780378,152.869668 94.5580558,154 C94.5940594,152.600542 96.0882088,148.473935 110.453645,141.620179 C128.545455,133.044012 138.410441,119.928578 141.272727,113.810435 C144.135014,107.656407 146.007201,102.345643 149.89559,99.0443577 C153.80198,95.7789555 154,92.1188344 154,92.1188344 C151.551755,89.4275688 148.671467,90.8629105 118.266427,104.588365" id="Fill-10" fill="#EDAE25"></path>
            <path d="M76.7294445,137.39818 C76.7294445,137.39818 75.8516967,165.521592 78.234155,175.597798 C84.0022117,170.901566 89,168.202583 89,168.202583 C89,168.202583 87.1549384,156.093141 87.5669424,141.518628 C87.9789465,126.926122 84.9157859,106 84.9157859,106 C83.8768192,111.955758 77.338494,118.32536 65.4799425,139.665326 C53.6393043,161.023285 64.6738477,191 64.6738477,191 C67.1100455,186.555673 70.4777308,182.63315 73.9708087,179.322396 C72.3048792,171.549323 68.8655411,150.587214 76.7294445,137.39818" id="Fill-12" fill="#EDAE25"></path>
            <path d="M113.973211,161 C113.973211,161 101.997925,170.217984 92.5009076,174.719374 C84.6319505,178.449608 66.2529611,189.371306 68.134275,214.622127 C70.5763651,210.802223 74.3932616,205.278606 77.8664564,202.732003 C83.4380398,198.661026 93.9480721,191.092953 94.9791768,188.618085 C94.9791768,188.618085 93.9480721,197.405658 84.0530847,204.363981 C84.0530847,204.363981 72.9822762,213.994443 70.2326636,226.225309 C70.7391712,228.090427 71.3542161,230.009346 72.0777983,232 C72.0777983,232 81.5748155,218.280626 88.7925485,212.344531 C96.0283711,206.42637 114.805331,179.418035 113.973211,161" id="Fill-14" fill="#EDAE25"></path>
            <path d="M94.526403,231 C94.526403,231 92.281505,231.626598 91.0602805,233.649616 C89.8210968,235.70844 83.4635457,243.460358 80.177015,246.736573 C77.1239538,249.780051 64.6782393,257.263427 66.114974,288.754476 C67.479872,289.73913 68.9345659,290.88491 70.4251782,292.102302 C71.0537496,284.332481 72.7059945,274.664962 76.9264028,268.595908 C84.9002804,256.923274 84.074158,261.846547 86.7500764,256.923274 C89.4080356,252.035806 85.7264029,267.342711 82.224362,273.483376 C80.0153824,277.404092 77.4472191,288.933504 76.0643619,297.276215 C77.1957905,298.457801 78.3092599,299.693095 79.3329334,301 C78.6864028,286.892583 85.9239539,285.800512 92.281505,267.772379 C99.0341582,248.544757 94.526403,231 94.526403,231" id="Fill-16" fill="#EDAE25"></path>
            <path d="M62.8545455,266.131104 C58.3818182,260.846018 51.9454545,252.151782 50.3636364,244.161021 C50.3636364,244.161021 48.0909091,236.152222 50.8,235.935768 C53.4909091,235.719314 54.1090909,242.934448 54.1090909,242.934448 C54.1090909,242.934448 56.1090909,253.847338 64.7272727,260.936208 C66.0545455,257.617246 67.5272727,254.713154 69,252.16982 C68.5272727,229.712714 61.1818182,218.475143 57.6545455,214.957765 C53.9090909,211.241971 51.8363636,202.800264 51.6181818,200.130664 C51.4181818,197.461065 50.5818182,196 49.7454545,196 C48.9272727,196 47.6727273,197.244611 47.6727273,200.347118 C47.6727273,203.41355 45.8181818,208.157501 45.8181818,208.157501 C40.2,220.296964 40,239.236692 40,239.236692 C41.1818182,258.988121 54.8727273,273.238011 60.1454545,278 C60.7818182,273.670919 61.7272727,269.720634 62.8545455,266.131104" id="Fill-18" fill="#EDAE25"></path>
            <path d="M81.4621039,328.767663 C78.0663275,326.23012 74.2058659,323.530607 70.1666792,321.101044 C57.9240115,313.704377 59.1572146,304.058115 59.1572146,304.058115 C59.5325372,299.738893 61.1946804,304.867969 61.1946804,304.867969 C64.0006641,310.536948 73.3479855,318.149576 81.4799764,323.998522 C81.7838091,320.993064 82.766797,317.447703 84,313.974328 C80.1931559,310.069032 75.1352363,305.533849 69.5590139,302.186452 C57.5129439,295.023742 51.6150164,286.403295 51.6150164,286.403295 C51.6150164,286.403295 48.7375427,282.282038 47.1111445,283.109889 C47.1111445,283.109889 46.5034792,285.359483 48.1298774,290.902485 C49.7741481,296.445486 49.1486104,317.177751 59.9793499,324.79038 C66.4849426,329.379553 75.9037541,334.184687 82.4987094,338 C81.9804067,335.048532 81.605084,331.863106 81.4621039,328.767663" id="Fill-20" fill="#EDAE25"></path>
            <path d="M97.3650389,355.373082 C95.417824,347.618035 93.6148473,338.167699 94.6966333,332.685061 C96.7520268,322.188694 99.6367897,321.178735 100.033445,314.776312 C100.448129,308.40996 102.106868,321.972275 99.8351171,334.52463 C99.8351171,334.52463 99.1499859,345.129206 101.638094,357.447106 C103.747577,358.529206 105.911149,359.719515 107.966542,361 C105.550553,349.728129 107.461709,339.682638 107.461709,339.682638 C110.652978,307.129475 98.6992417,295.929744 96.6438482,294.21642 C96.4455208,294.07214 96.3373422,294 96.3373422,294 C97.3650389,300.979542 90.5858463,313.549933 90.5858463,313.549933 C83.1034927,328.987887 86.1685532,343.145357 89.990864,352.234993 C92.2085254,353.100673 94.7326929,354.146703 97.3650389,355.373082" id="Fill-22" fill="#EDAE25"></path>
            <path d="M123.479586,395.064809 C87.2007271,386.596114 91.4571085,372.960079 91.4571085,372.960079 C91.4571085,372.960079 92.2721602,371.309402 93.7211411,374.180146 C94.8078768,376.279377 105.385437,384.048329 119.042082,388.06737 C117.194631,384.909552 115.799987,382.146461 114.767588,379.778097 C102.161455,363.522508 82.7994477,359.126681 78.4525051,357.368351 C73.2723984,355.340888 73.0731635,356.166227 73.0731635,356.166227 C73.0731635,356.166227 72.6384693,356.991565 73.8882153,359.844367 C75.119849,362.715111 81.3323546,373.139501 83.9948569,380.316361 C86.5849103,387.188205 93.920376,397.397289 130,404 C127.51862,400.770413 125.345149,397.792016 123.479586,395.064809" id="Fill-24" fill="#EDAE25"></path>
            <path d="M139.538693,404.855862 C140.174616,404.909914 140.863532,404.945948 141.570113,405 C140.987184,400.54973 139.521028,392.83833 136.147104,385.253051 C130.90074,373.541813 132.525876,371.884222 132.525876,371.884222 C132.525876,371.884222 137.948885,377.127253 147.735032,402.621718 C147.61138,400.027228 147.717368,397.937223 148,396.22558 C139.909648,369.487923 131.236366,356.659613 129.275604,353.596673 C127.067538,350.101319 125.230428,351.146322 125.230428,351.146322 C125.230428,351.146322 124.258879,351.740893 124.258879,354.029088 C124.258879,356.28125 123.64062,362.839543 123.234336,367.992488 C122.881046,372.622931 120.884955,389.775391 139.538693,404.855862" id="Fill-26" fill="#EDAE25"></path>
            <path d="M176.839261,441.82253 C173.178469,439.644589 167.106911,436.545894 160.285337,435.288709 C149.285102,433.27013 144.588574,434.881452 140.320626,430.649519 C140.320626,430.649519 154.392354,426.205105 171.624864,431.942118 C167.249771,425.691607 160.83892,419.547336 152.124449,418.538047 C133.374049,416.306986 130.927568,421.76069 120.96307,421.37114 C120.96307,421.37114 115.05223,420.344144 119.927334,424.788558 C124.78458,429.179852 141.624225,449.826017 178,446.674201 C177.749995,444.868105 177.321414,443.239076 176.839261,441.82253" id="Fill-28" fill="#EDAE25"></path>
            <path d="M198.738246,446.625899 C187.654685,434.904077 180.59827,415.931826 180.59827,415.931826 C183.859189,416.751285 188.93767,425.302158 188.93767,425.302158 C197.50872,436.988352 205.010616,442.261391 210,444.666324 C205.634289,439.856458 198.934258,431.109627 190.55922,416.751285 C180.402258,399.275437 164.756974,395 164.756974,395 C164.756974,395 162.511751,397.030832 165.754851,402.125728 C169.01577,407.184995 172.882543,415.931826 175.929632,425.480301 C178.51342,433.603631 183.805731,440.675916 196.421747,447 C197.152335,446.8753 197.918562,446.7506 198.738246,446.625899" id="Fill-30" fill="#EDAE25"></path>
            <path d="M216.754264,469.486619 C213.079349,469.702412 208.794937,468.659412 208.794937,467.022981 C208.794937,465.368567 216.539147,465.170757 216.539147,465.170757 C224.785296,465.170757 232.296463,463.120722 236.742213,461.628154 C223.458742,448.968292 207.342897,451.845533 203.685909,453.499947 C199.993068,455.136378 193.862235,457.600016 190.366585,458.40924 C186.888861,459.236447 185.060367,461.682102 185.060367,461.682102 C185.060367,461.682102 184.253678,462.922912 188.538091,463.947929 C192.84043,464.972946 202.861294,471.752446 205.926711,473.80248 C208.974201,475.852515 219.837607,484.070635 244.558129,469.702412 L248,468.155895 C240.184084,466.95105 220.088576,469.306791 216.754264,469.486619" id="Fill-32" fill="#EDAE25"></path>
            <path d="M234.873885,436.981125 C242.012493,444.947934 252.738251,452.335339 260.144557,456.916255 C249.936347,444.513381 226.182629,417.915101 213.904224,422.53223 C213.904224,422.53223 211.86972,423.365123 213.904224,426.443209 C215.938727,429.557507 225.093992,439.479806 227.949435,444.640126 C230.733492,449.637488 240.620464,462.80083 263,463 C246.135039,455.558276 234.873885,436.981125 234.873885,436.981125" id="Fill-34" fill="#EDAE25"></path>
            <path d="M108.731627,149.914232 C103.317919,156.202305 95.7423617,162.545216 92.181668,165.451622 C92.1271676,165.616135 92.0545004,165.817207 92,166 C92,166 103.408753,162.033396 111.492981,154.319539 C111.492981,154.319539 113.182494,153.295899 114,149.804557 C113.981833,144.320772 110.112304,148.287376 108.731627,149.914232" id="Fill-36" fill="#EDAE25"></path>
            <path d="M73.2021209,248 C73.2021209,248 76.7841209,243.184205 79.1061209,241.416609 C81.4281209,239.612941 89.7801209,227.564434 90.7521209,221.936987 C91.6881209,216.309541 78.0081209,237.430501 73.2021209,248" id="Fill-38" fill="#EDAE25"></path>
            <path d="M84.8664501,312 C84.8664501,312 87.0444501,306.27102 89.3844501,302.697143 C91.7244501,299.159184 91.0404501,290 91.0404501,290 C91.0404501,290 87.7464501,294.4 86.9184501,302.014694 C86.1084501,309.683265 84.8664501,312 84.8664501,312" id="Fill-40" fill="#EDAE25"></path>
            <path d="M412,46 C409.136404,44.6792176 405.444346,43.394621 400.923826,42.5261614 C398.690582,35.795599 392.206968,22.3344743 375.637733,20.3442543 C375.637733,20.3442543 375.637733,23.8542787 385.921464,30.6572127 C391.792737,34.5471883 393.881901,38.7809291 394.620313,41.6757946 C391.540596,41.4224939 388.154709,41.3501222 384.444641,41.5672372 C382.229407,36.6459658 378.93357,31.9056235 367.857396,24.2704156 C354.421907,15.006846 351,9 351,9 C405.642456,17.4132029 411.477709,39.5408313 412,46" id="Fill-42" fill="#EDAE25"></path>
            <path d="M381.840395,44.7664564 C392.761463,43.0746583 410.141613,42.7835963 420.864771,59.2467929 C413.398143,57.0456362 400.479977,54.1168244 391.879861,56.7727655 C391.879861,56.7727655 391.68195,60.119979 407.262914,61.3569927 C417.842136,62.2119874 424.067324,69.4157729 427,74 C425.002902,73.7817035 407.748694,71.6715037 389.217063,64.0675079 C369.497969,55.9541536 365,45.8033649 365,45.8033649 C365,45.8033649 368.274521,46.8220821 381.840395,44.7664564" id="Fill-44" fill="#EDAE25"></path>
            <path d="M470.630706,112 C469.929726,111.007499 467.161753,108.49918 458.156853,102.09304 C458.965676,92.294352 459.7745,62.0862433 440.614374,56.4199672 C440.614374,56.4199672 454.939534,77.6414343 451.039208,97.1666276 C450.841496,97.0222639 450.679731,96.8959456 450.464045,96.7515819 C426.055555,80.0775721 423,35 423,35 C475.555541,53.7492383 471.331686,105.756269 470.630706,112" id="Fill-46" fill="#EDAE25"></path>
            <path d="M451.733573,104.597959 C467.089109,111.524653 472.957696,124.193684 474.991899,135.032344 C467.215122,127.997982 450.671467,113.857477 442.084608,112.798734 C442.084608,112.798734 440.446445,112.996127 441.472547,114.826497 C442.354635,116.459474 467.863186,134.314552 476,146.247845 C475.981998,150.052144 475.60396,152.869477 475.441944,154 C475.423942,152.600305 473.911791,148.473001 459.546355,141.653976 C441.472547,133.058416 431.607561,119.940765 428.745275,113.803643 C425.864986,107.666521 424.010801,102.354859 420.10441,99.0530156 C416.19802,95.7870616 416,92.1083771 416,92.1083771 C418.466247,89.4346016 421.346535,90.8701858 451.733573,104.597959" id="Fill-48" fill="#EDAE25"></path>
            <path d="M494.267193,137.416173 C494.267193,137.416173 495.162609,165.521592 492.780804,175.597798 C487.014327,170.901566 482,168.202583 482,168.202583 C482,168.202583 483.844556,156.093141 483.450573,141.536622 C483.038682,126.944115 486.101003,106 486.101003,106 C487.121777,111.955758 493.658311,118.307367 505.513613,139.665326 C517.368915,161.023285 506.319487,191 506.319487,191 C503.883957,186.555673 500.499286,182.63315 497.025073,179.322396 C498.690546,171.531329 502.128942,150.569221 494.267193,137.416173" id="Fill-50" fill="#EDAE25"></path>
            <path d="M457.025645,161 C457.025645,161 468.978468,170.200051 478.490094,174.719374 C486.356172,178.431675 504.746522,189.371306 502.865896,214.622127 C500.424699,210.802223 496.591116,205.278606 493.137275,202.732003 C487.549646,198.643092 477.043459,191.092953 476.012731,188.618085 C476.012731,188.618085 477.043459,197.405658 486.934826,204.363981 C486.934826,204.363981 497.983502,213.976509 500.768275,226.225309 C500.24387,228.090427 499.62905,230.009346 498.905732,232 C498.905732,232 489.430272,218.280626 482.215179,212.362465 C474.982004,206.408436 456.211913,179.400101 457.025645,161" id="Fill-52" fill="#EDAE25"></path>
            <path d="M475.473597,231 C475.473597,231 477.718495,231.608696 478.939719,233.631714 C480.196862,235.690537 486.536454,243.442455 489.822985,246.71867 C492.876046,249.762148 505.321761,257.245524 503.885026,288.754476 C502.520128,289.757033 501.047475,290.867008 499.574822,292.102302 C498.94625,284.314578 497.276046,274.664962 493.091556,268.578005 C485.09972,256.923274 485.907883,261.828645 483.267883,256.923274 C480.591964,252.035806 484.273597,267.342711 487.775638,273.483376 C490.002577,277.404092 492.57074,288.933504 493.971556,297.258312 C492.804209,298.457801 491.69074,299.693095 490.667067,301 C491.331556,286.892583 484.076046,285.782609 477.718495,267.772379 C470.965842,248.56266 475.473597,231 475.473597,231" id="Fill-54" fill="#EDAE25"></path>
            <path d="M507.145455,266.149142 C511.618182,260.846018 518.054545,252.151782 519.618182,244.161021 C519.618182,244.161021 521.909091,236.134184 519.218182,235.935768 C516.527273,235.719314 515.872727,242.934448 515.872727,242.934448 C515.872727,242.934448 513.909091,253.847338 505.290909,260.936208 C503.945455,257.617246 502.472727,254.695117 501,252.16982 C501.472727,229.712714 508.8,218.475143 512.363636,214.939727 C516.090909,211.241971 518.181818,202.800264 518.381818,200.112626 C518.581818,197.443027 519.418182,196 520.254545,196 C521.090909,196 522.327273,197.244611 522.327273,200.347118 C522.327273,203.41355 524.2,208.139463 524.2,208.139463 C529.8,220.296964 530,239.236692 530,239.236692 C528.818182,258.988121 515.109091,273.219974 509.854545,278 C509.218182,273.670919 508.272727,269.720634 507.145455,266.149142" id="Fill-56" fill="#EDAE25"></path>
            <path d="M489.520954,328.752013 C492.900104,326.233106 496.797749,323.534277 500.838427,321.087338 C513.049855,313.692547 511.851955,304.048731 511.851955,304.048731 C511.440736,299.748597 509.831616,304.876372 509.831616,304.876372 C506.988839,310.543913 497.638067,318.154611 489.520954,324.002074 C489.19913,320.997377 488.215779,317.434923 487,313.96243 C490.808249,310.058124 495.850157,305.542083 501.446316,302.195535 C513.478954,295.01665 519.396937,286.39839 519.396937,286.39839 C519.396937,286.39839 522.257594,282.29617 523.884592,283.105818 C523.884592,283.105818 524.510361,285.372835 522.847604,290.91443 C521.220606,296.456026 521.846374,317.183032 511.029516,324.757746 C504.503643,329.363747 495.099234,334.185655 488.501845,338 C489.020339,335.067273 489.377921,331.864662 489.520954,328.752013" id="Fill-58" fill="#EDAE25"></path>
            <path d="M473.627612,355.374596 C475.574263,347.603606 477.376717,338.173843 476.295244,332.67465 C474.240446,322.199139 471.356519,321.171421 470.978004,314.788751 C470.545415,308.424112 468.887157,321.982777 471.158249,334.549785 C471.158249,334.549785 471.843182,345.133477 469.355795,357.430032 C467.246923,358.529871 465.083978,359.70183 463.011155,361 C465.426444,349.749193 463.533867,339.670344 463.533867,339.670344 C460.361547,307.143972 472.275771,295.929225 474.348594,294.234392 C474.564888,294.090151 474.673035,294 474.673035,294 C473.627612,300.995694 480.422865,313.544672 480.422865,313.544672 C487.885026,328.996502 484.838878,343.150161 481.017675,352.237352 C478.800656,353.102799 476.259195,354.166577 473.627612,355.374596" id="Fill-60" fill="#EDAE25"></path>
            <path d="M446.535251,395.046867 C482.795935,386.596114 478.559789,372.960079 478.559789,372.960079 C478.559789,372.960079 477.708939,371.327344 476.278787,374.180146 C475.210699,376.279377 464.638438,384.030386 450.952428,388.049428 C452.817057,384.909552 454.229105,382.146461 455.242884,379.778097 C467.842702,363.522508 487.176906,359.126681 491.557877,357.368351 C496.699183,355.340888 496.934524,356.166227 496.934524,356.166227 C496.934524,356.166227 497.350897,356.973623 496.083674,359.86231 C494.852657,362.697169 488.661367,373.139501 485.982096,380.316361 C483.411443,387.188205 476.097755,397.397289 440,404 C442.49824,400.770413 444.670622,397.792016 446.535251,395.046867" id="Fill-62" fill="#EDAE25"></path>
            <path d="M430.455396,404.855862 C429.819917,404.909914 429.131482,404.945948 428.425395,405 C429.007917,400.531712 430.473048,392.856347 433.862268,385.253051 C439.104966,373.541813 437.480965,371.902239 437.480965,371.902239 C437.480965,371.902239 432.044093,377.109236 422.282435,402.621718 C422.406,400.045245 422.282435,397.937223 422,396.22558 C430.0847,369.487923 438.769575,356.659613 440.711315,353.596673 C442.917838,350.101319 444.753665,351.146322 444.753665,351.146322 C444.753665,351.146322 445.742187,351.740893 445.742187,354.011071 C445.742187,356.263232 446.342362,362.839543 446.766014,367.97447 C447.119058,372.604914 449.113755,389.775391 430.455396,404.855862" id="Fill-64" fill="#EDAE25"></path>
            <path d="M393.161013,440.840236 C396.82267,438.644589 402.895663,435.528187 409.718848,434.288709 C420.70382,432.27013 425.401458,433.881452 429.688277,429.631812 C429.688277,429.631812 415.595362,425.205105 398.376642,430.924411 C402.734907,424.6739 409.165134,418.547336 417.881665,417.538047 C436.618633,415.306986 439.04783,420.76069 449.050405,420.37114 C449.050405,420.37114 454.94478,419.326437 450.068525,423.788558 C445.210131,428.179852 428.366508,448.826017 392,445.674201 C392.250064,443.868105 392.660884,442.256783 393.161013,440.840236" id="Fill-66" fill="#EDAE25"></path>
            <path d="M371.277906,446.625771 C382.342013,434.899931 389.415202,415.921179 389.415202,415.921179 C386.136948,416.723098 381.059218,425.276902 381.059218,425.276902 C372.471618,436.967101 365.006464,442.259767 360,444.647704 C364.382883,439.836189 371.081924,431.104181 379.437908,416.723098 C389.593368,399.241261 405.254157,395 405.254157,395 C405.254157,395 407.481232,396.995888 404.238611,402.092529 C400.99599,407.17135 397.111972,415.921179 394.065334,425.472927 C391.481927,433.59904 386.208215,440.673749 373.576247,447 C372.863583,446.875257 372.079653,446.732694 371.277906,446.625771" id="Fill-68" fill="#EDAE25"></path>
            <path d="M353.244081,469.488972 C356.918801,469.704745 361.220912,468.661842 361.220912,467.007582 C361.220912,465.389284 353.441261,465.191492 353.441261,465.191492 C345.213474,465.191492 337.702705,463.141648 333.275116,461.631237 C346.557884,448.972552 362.637023,451.849525 366.329669,453.485804 C370.022314,455.122083 376.134897,457.603473 379.630362,458.412622 C383.089976,459.239752 384.936299,461.68518 384.936299,461.68518 C384.936299,461.68518 385.76087,462.925875 381.476685,463.932816 C377.174574,464.957738 367.136315,471.736608 364.07106,473.786452 C361.023732,475.854277 350.178827,484.071633 325.423763,469.704745 L322,468.14039 C329.815502,466.953639 349.909945,469.309161 353.244081,469.488972" id="Fill-70" fill="#EDAE25"></path>
            <path d="M335.112729,436.992404 C327.990837,444.95576 317.263377,452.339962 309.838047,456.93699 C320.047876,444.521395 343.823212,417.916547 356.103566,422.531674 C356.103566,422.531674 358.120543,423.364206 356.103566,426.477155 C354.05089,429.553906 344.876324,439.471903 342.038277,444.629986 C339.253778,449.643281 329.383087,462.800916 307,463 C323.849788,455.543403 335.112729,436.992404 335.112729,436.992404" id="Fill-72" fill="#EDAE25"></path>
            <path d="M461.277089,149.917334 C466.681555,156.204195 474.269644,162.545882 477.854425,165.451727 C477.909016,165.616209 477.963606,165.798967 478,166 C478,166 466.590571,162.052437 458.492969,154.340067 C458.492969,154.340067 456.800662,153.298349 456,149.825956 C456.018197,144.306677 459.894127,148.290792 461.277089,149.917334" id="Fill-74" fill="#EDAE25"></path>
            <path d="M497.789746,248 C497.789746,248 494.225746,243.18507 491.903746,241.417793 C489.545746,239.632482 481.211746,227.568108 480.257746,221.941673 C479.303746,216.297205 492.983746,237.432402 497.789746,248" id="Fill-76" fill="#EDAE25"></path>
            <path d="M485.13125,312 C485.13125,312 482.93525,306.27102 480.61325,302.715102 C478.29125,299.159184 478.95725,290 478.95725,290 C478.95725,290 482.26925,294.382041 483.07925,302.014694 C483.90725,309.683265 485.13125,312 485.13125,312" id="Fill-78" fill="#EDAE25"></path>
            <path d="M447,239.982083 C447,328.938794 374.705074,401 285.5,401 C196.312896,401 124,328.938794 124,239.982083 C124,151.061206 196.312896,79 285.5,79 C374.705074,79 447,151.061206 447,239.982083" id="Fill-80" fill="#007AC2"></path>
            <path d="M301.641756,362.270576 C299.663055,362.270576 297.559571,362.341884 295.349131,362.502327 C280.446481,363.536293 270.339063,367.814773 267.272967,371.344518 C266.559922,372.16456 266.221225,372.931121 266.274704,373.59072 C266.542096,377.370044 278.37865,381.79114 296.650438,380.525423 C315.04701,379.259706 325.974431,373.198526 325.742691,369.419203 C325.475299,366.121208 316.366144,362.270576 301.641756,362.270576 M290.678683,385 C276.257339,385 262.584694,381.4346 262.014257,373.893779 C261.889474,372.057598 262.584694,370.239244 264.064263,368.54568 C268.627754,363.286715 280.803004,359.239986 295.081739,358.241674 C311.891784,357.011611 329.343571,360.452222 329.985312,369.133971 L329.985312,369.151798 C330.573574,377.762238 313.38918,383.645148 296.935657,384.786076 C294.867825,384.928692 292.764341,385 290.678683,385" id="Fill-82" fill="#FFFFFF"></path>
            <path d="M272.942209,395 L272.242893,390.771058 C272.888415,390.663543 286.749212,388.172767 291.985114,374.858768 C263.295238,389.373357 226.841164,383.907987 225.227359,383.657118 L225.890812,379.428176 C226.231504,379.499853 259.153137,384.373887 286.067827,372.887651 C284.974025,372.90557 283.880224,372.90557 282.804354,372.90557 C191.319512,372.90557 157.626838,329.809785 156.174413,327.910345 L159.617199,325.312054 C159.922029,325.760035 191.122269,365.397406 273.12152,368.425759 C130.496974,335.221397 131.967331,208.156027 132.003193,206.812084 L136.270812,206.919599 C136.252881,208.263543 134.872181,338.393103 285.368511,366.615915 C164.602065,284.922075 212.119672,103.34636 212.639676,101.464839 L216.763845,102.593752 C216.261772,104.457353 167.650364,290.423283 295.194794,367.816505 C306.993505,356.52738 404.700464,255.749543 328.295738,92.827763 L332.186803,91 C375.096098,182.549425 363.261525,254.065134 345.778631,297.931447 C331.881973,332.78438 312.26527,356.240672 302.654162,366.382965 C331.07507,357.925081 429.373757,319.434542 429.732381,192.387091 L434,192.387091 C433.69517,308.79051 352.969032,352.585146 315.098395,366.723431 C355.120772,361.706042 380.78028,347.531919 395.842465,335.669378 C414.634334,320.850162 421.394386,306.371412 421.46611,306.210139 L425.375106,308.002063 C425.070276,308.611317 418.238499,323.412614 398.711453,338.859004 C382.77064,351.456233 355.335946,366.615915 312.193545,371.364515 C324.924678,372.887651 344.07517,373.496905 365.341541,368.40784 L366.327755,372.565105 C337.422705,379.464014 312.749412,376.328146 301.452773,374.070321 C305.648667,378.030475 313.287347,383.406248 325.426751,386.022458 L324.512261,390.215561 C311.996302,387.509755 303.909344,382.116062 299.139652,377.833363 C300.466558,383.890068 302.02657,389.875096 303.030716,391.236958 L299.552069,393.763572 C299.049996,393.082641 298.529992,391.882051 298.009988,390.394754 C297.812745,392.168759 297.615502,393.243914 297.597571,393.405187 L293.365814,392.63466 C293.383745,392.562983 294.334097,387.025936 294.22651,380.055349 C287.125766,392.509225 273.12152,394.964162 272.942209,395" id="Fill-84" fill="#FFFFFF"></path>
            <path d="M285.464106,87.2716899 C230.92242,87.2716899 182.985321,116.114571 156.118291,159.369918 C190.918005,127.386089 232.609461,108.953208 277.495528,105.830208 C319.635665,102.940536 361.07586,113.781295 398.280505,137.383279 C370.390482,106.619932 330.152752,87.2716899 285.464106,87.2716899 L285.464106,87.2716899 Z M148.849656,172.47216 C142.334805,185.664144 137.704415,199.933024 135.263589,214.937783 C172.288761,169.133781 223.330734,141.834452 279.756881,137.885831 C334.513933,134.009003 387.242947,152.729056 429.634346,190.528127 C424.537328,175.559264 417.161009,161.613453 407.918177,149.1394 C368.541915,120.422157 323.602007,107.032743 277.800631,110.101898 C229.432798,113.494122 184.851835,135.050003 148.849656,172.47216 L148.849656,172.47216 Z M134.132913,223.355525 C133.576548,228.650267 133.289392,234.03475 133.289392,239.455129 C133.289392,264.564769 139.391456,288.256494 150.1957,309.148288 C180.616284,275.028614 231.658257,252.431733 287.474197,248.519009 C342.141514,244.678078 395.014106,259.34182 429.867661,287.771891 C434.946732,272.587648 437.710608,256.344458 437.710608,239.455129 C437.710608,225.329835 435.772305,211.671197 432.164908,198.676644 C389.755562,158.346866 335.680505,138.316589 280.061984,142.175469 C222.523108,146.195883 170.727351,175.020815 134.132913,223.355525 L134.132913,223.355525 Z M152.349369,313.186651 C160.156422,327.240151 170.117144,339.947531 181.800803,350.842135 C199.353211,323.865875 241.852294,304.374047 291.135436,300.892081 C339.054587,297.589598 383.348394,310.332875 405.046617,333.593841 C414.863761,321.155686 422.76055,307.173978 428.342144,292.079477 C394.33211,263.685303 341.962041,249.147199 287.797248,252.808647 C232.412041,256.667527 181.908486,279.210563 152.349369,313.186651 L152.349369,313.186651 Z M185.01336,353.749756 C193.663933,361.359826 203.175975,368.018636 213.387959,373.528757 C216.11594,355.16767 249.946502,339.2296 293.612156,336.178393 C335.877924,333.288721 371.216055,343.770514 377.802695,360.462412 C386.812213,353.552325 395.032053,345.655083 402.336583,336.950169 C381.643406,314.33534 338.408486,301.825391 291.458486,305.181719 C243.844438,308.520099 201.417144,327.958082 185.01336,353.749756 L185.01336,353.749756 Z M214.35711,377.04662 L213.280275,377.261999 L215.415998,377.028671 L214.35711,377.04662 Z M217.461984,375.646654 C237.939794,385.931017 261.037901,391.72831 285.464106,391.72831 C318.540883,391.72831 349.194782,381.120878 374.177351,363.118757 C369.923853,347.719135 334.549828,337.632204 293.935206,340.450083 C252.010436,343.411549 217.426089,359.403464 217.461984,375.646654 L217.461984,375.646654 Z M285.464106,396 C199.173739,396 129,325.786341 129,239.455129 C129,153.177762 199.173739,83 285.464106,83 C371.790367,83 442,153.177762 442,239.455129 C442,325.786341 371.790367,396 285.464106,396 L285.464106,396 Z" id="Fill-86" fill="#FFFFFF"></path>
            <path d="M293.870929,372 C293.08055,370.383939 216.808991,209.442235 264.896359,85.472411 L268.884179,87.0166469 C226.724653,195.795498 281.817651,333.87892 295.020571,364.135171 C333.767098,169.848744 283.883414,87.1064281 283.380446,86.2804414 L287.026967,84 C287.547898,84.8439429 339.425492,170.908161 297.912639,371.515182 L295.792987,371.066276 L293.870929,372 Z" id="Fill-88" fill="#FFFFFF"></path>
            <path d="M135.467872,272 L132,269.45883 C166.570914,221.663199 221.571728,191.781919 282.861429,187.51059 C342.785544,183.401463 400.283945,204.235456 441,244.912205 L437.981334,247.976027 C398.109787,208.164358 341.49183,187.65477 283.184858,191.799941 C223.134965,195.99918 169.302088,225.213629 135.467872,272" id="Fill-90" fill="#FFFFFF"></path>
            <path d="M295.399306,373 L294.967825,372.910412 C253.599593,365.402965 221.634049,345.604087 199.934155,314.051306 C150.835223,242.578254 171.114826,133.388789 171.330567,132.277902 L175.537505,133.084191 C175.321765,134.177161 155.40173,241.66446 203.511851,311.650356 C224.438675,342.09225 255.325517,361.264014 295.273458,368.628121 C303.363725,366.460099 426.353762,329.639562 385.345098,124.824207 L389.552036,124 C412.007022,236.056271 385.470946,297.746348 359.240503,329.72915 C330.690849,364.578758 297.251079,372.587897 295.812809,372.892495 L295.399306,373 Z" id="Fill-92" fill="#FFFFFF"></path>
            <path d="M55.1885702,552.804465 C61.7759439,559.788578 72.1685579,554.316489 76.5122756,546.072355 L95,511.889798 L76.3686817,473.801177 C68.9735919,468.923098 61.9195379,466.403057 55.027027,469.103101 L8,534.768171 C19.4336703,531.240113 38.6932123,535.34418 55.1885702,552.804465" id="Fill-94" fill="#007AC2"></path>
            <path d="M16.2697444,531.680655 C28.0331934,531.680655 43.1320107,537.377171 56.4555513,551.528326 C58.4101488,553.565371 60.723388,554.376583 63.4490652,554.034071 C67.6810378,553.457209 72.1999237,549.9059 74.6745517,545.200867 L92.6604349,511.814958 L74.7104159,475.076037 C67.1968714,470.172707 61.4227394,468.748578 56.1327738,470.641408 L12.3605494,531.915006 C13.6157955,531.752763 14.9248378,531.680655 16.2697444,531.680655 M62.2117512,558 C58.9481114,558 56.0251812,556.70206 53.6581457,554.196314 C37.842045,537.431252 19.1568104,533.357162 8.46928653,536.638066 L3,538.350626 L53.6760778,467.432611 L54.1961084,467.216288 C62.9648989,463.773141 71.5902327,468.351986 77.2747043,472.119618 L77.7230065,472.408049 L77.9381915,472.87675 L97,511.92312 L96.5337657,512.788413 L78.0637161,547.039615 C74.9973293,552.86232 69.4742465,557.11668 63.9511637,557.873811 C63.3594048,557.963946 62.785578,558 62.2117512,558" id="Fill-96" fill="#007AC2"></path>
            <path d="M73.2644934,549 C78.8351091,541.794209 77.918653,521.987246 51,497" id="Fill-98" fill="#007AC2"></path>
            <path d="M74.9038488,551 L71.873316,548.634603 C76.8469551,542.062049 75.313862,522.759685 50,498.852922 L52.6026929,496 C82.1414741,523.861129 80.1092345,544.156599 74.9038488,551" id="Fill-100" fill="#007AC2"></path>
            <path d="M514.793481,552.804465 C508.206107,559.788578 497.849391,554.316489 493.469775,546.072355 L475,511.889798 L493.631318,473.801177 C501.008459,468.923098 508.062513,466.403057 514.972973,469.103101 L562,534.768171 C550.56633,531.240113 531.306788,535.34418 514.793481,552.804465" id="Fill-102" fill="#007AC2"></path>
            <path d="M477.339565,511.843183 L495.307516,545.203694 C497.818008,549.907688 502.336894,553.458212 506.568867,554.034947 C509.115223,554.341338 511.589851,553.548327 513.526517,551.511732 C528.392217,535.75966 545.481496,530.298701 557.639451,531.902745 L513.867226,470.660705 C508.595193,468.768294 502.803129,470.174085 495.289584,475.094355 L477.339565,511.843183 Z M507.770317,558 C507.214422,558 506.640595,557.963954 506.066768,557.873839 C500.561618,557.134898 495.002671,552.863455 491.90042,547.024013 L473,511.915275 L492.276994,472.426956 L492.707364,472.138588 C498.391835,468.389811 506.963373,463.757909 515.803892,467.218319 L516.323922,467.434594 L516.664632,467.903191 L567,538.354967 L561.512781,536.642785 C550.84319,533.344582 532.140023,537.435795 516.323922,554.197154 C513.956887,556.684323 511.033957,558 507.770317,558 L507.770317,558 Z" id="Fill-104" fill="#007AC2"></path>
            <path d="M496.728458,549 C491.174054,541.794209 492.072825,521.987246 519,497" id="Fill-106" fill="#007AC2"></path>
            <path d="M495.089192,551 C489.882352,544.138542 487.885208,523.825016 517.39658,496 L520,498.852922 C494.500748,522.88608 492.949395,541.791202 498.120572,548.634603 L495.089192,551 Z" id="Fill-108" fill="#007AC2"></path>
            <path d="M472.196315,446.359297 C415.220124,491.037897 351.651794,516.044978 284.616754,516.044978 C217.420055,516.044978 153.725989,490.912143 96.6240625,446 L51,496.89444 C120.603639,551.848938 200.14039,583 284.616754,583 C369.003308,583 448.450248,551.938762 518,497.127983 L472.196315,446.359297" id="Fill-110" fill="#007AC2"></path>
            <path d="M53.662195,497.07625 C124.322794,552.066607 204.132781,581.118117 284.607851,581.118117 C364.97507,581.118117 444.713156,552.138163 515.31983,497.308805 L472.08942,449.634991 C413.148666,495.215808 350.073611,518.310327 284.607851,518.310327 C218.980315,518.310327 155.779433,495.090586 96.7128525,449.277214 L53.662195,497.07625 Z M284.607851,585 C202.622862,585 121.374857,555.197158 49.5997948,498.847247 L48,497.559249 L49.3661169,496.020807 L96.2454967,444 L97.6835145,445.126998 C156.462491,491.119259 219.339819,514.446333 284.607851,514.446333 C349.732082,514.446333 412.483583,491.244481 471.136733,445.466887 L472.556776,444.357777 L521,497.791804 L519.364255,499.061913 C447.661093,555.286602 366.484989,585 284.607851,585 L284.607851,585 Z" id="Fill-112" fill="#007AC2"></path>
            <path d="M517.241929,544.766989 C510.588884,551.832092 500.087863,546.298963 495.682468,537.95421 L477,503.367643 L495.86228,464.888061 C503.324479,459.931674 510.445035,457.372376 517.421741,460.12993 L565,526.545509 C553.456069,522.976911 533.982427,527.122252 517.241929,544.766989" id="Fill-114" fill="#FFFFFF"></path>
            <path d="M521,489 C494.134551,514.478335 493.227775,534.640396 498.757328,542 C498.757328,542 495.023546,538.600478 484,515.85261 L521,489" id="Fill-116" fill="#FFFFFF"></path>
            <path d="M500.073682,540.729534 C502.586435,543.57921 505.817117,545.563162 508.904213,545.977989 C511.668241,546.482994 514.001511,545.509054 515.939921,543.452959 L515.939921,543.434923 C530.998489,527.545272 548.192896,522.296818 560.541281,523.649512 L516.280937,461.714143 C510.914415,459.838406 505.099188,461.263245 497.507085,466.205088 L479.379369,503.34106 L494.09692,530.647452 C494.545626,520.457153 500.576233,505.523407 519.870584,487.451409 L522.526922,490.301085 C496.627621,514.595477 495.048177,533.659451 500.289061,540.549175 L500.073682,540.729534 Z M510.160589,550 C509.568298,550 508.976006,549.963928 508.383714,549.873749 C502.819762,549.11624 497.219913,544.805653 494.114869,538.88987 L475,503.413203 L494.473833,463.535771 L494.922539,463.22916 C500.648026,459.405544 509.263178,454.698168 518.255243,458.269281 L518.775742,458.467676 L519.116758,458.954646 L570,530.160482 L564.453996,528.429033 C553.361988,525.020243 534.875307,529.114398 518.775742,546.140312 C516.388626,548.665341 513.427168,550 510.160589,550 L510.160589,550 Z" id="Fill-118" fill="#007AC2"></path>
            <path d="M52.7385621,544.767247 C59.4068627,551.831786 69.8856209,546.299098 74.3071895,537.955012 L93,503.371208 L74.127451,464.876677 C66.6503268,459.938709 59.5326797,457.379615 52.5588235,460.118926 L5,526.547223 C16.5571895,522.960888 36.0228758,527.12392 52.7385621,544.767247" id="Fill-120" fill="#FFFFFF"></path>
            <path d="M49,489 C75.8880884,514.460252 76.7766571,534.640396 71.2497598,542 C71.2497598,542 74.9639769,538.600478 86,515.85261 L49,489" id="Fill-122" fill="#FFFFFF"></path>
            <path d="M13.4356118,523.694539 C25.3106118,523.694539 40.5579683,529.387512 54.0473943,543.503943 C55.9667674,545.538422 58.3525302,546.502123 61.0611782,546.020273 C64.1644637,545.609808 67.4112538,543.646714 69.904645,540.80915 L69.7073263,540.630687 C74.9631798,533.79555 73.3666918,514.932001 47.4461858,490.928714 L50.1189577,488.108997 C69.4203172,505.990999 75.4475076,520.767744 75.8780211,530.833063 L90.6231118,503.831596 L72.4697885,467.068197 C64.8461103,462.178308 58.9624245,460.786296 53.6886329,462.642312 L9.45336103,523.926541 C10.7449018,523.765924 12.0723187,523.694539 13.4356118,523.694539 M59.8413897,550 C56.5407855,550 53.5989426,548.697219 51.1952417,546.198736 C35.1227341,529.316127 16.6824018,525.265014 5.5608006,528.655813 L0,530.369059 L51.1952417,459.41213 L51.7513218,459.215821 C60.6486027,455.771483 69.3126888,460.357985 75.0528701,464.123556 L75.5013218,464.426943 L75.7345166,464.890947 L95,503.902981 L94.5336103,504.77745 L75.8600831,539.024519 C72.7567976,544.878109 67.1421828,549.125531 61.5993202,549.875076 C60.989426,549.964307 60.4154079,550 59.8413897,550" id="Fill-124" fill="#007AC2"></path>
            <path d="M474.736415,438.358255 C417.149575,483.408879 352.91257,508.540498 285.116827,508.540498 C217.213244,508.540498 152.814478,483.265576 95.1197974,438 L49,489.284268 C119.347968,544.616822 199.743079,576 285.116827,576 C370.400708,576 450.723925,544.706386 521,489.481308 L474.736415,438.358255" id="Fill-126" fill="#FFFFFF"></path>
            <path d="M51.6715205,488.840578 C122.942431,544.621357 203.420589,574.101633 284.616661,574.101633 C365.705046,574.101633 446.12936,544.693216 517.310532,489.056156 L473.733153,440.676884 C414.32577,486.918342 350.700643,510.344472 284.616661,510.344472 C218.371148,510.344472 154.620386,486.810553 95.1053166,440.335553 L51.6715205,488.840578 Z M284.616661,578 C201.930918,578 119.981036,547.783166 47.6153065,490.619095 L46,489.325628 L94.6566204,435 L96.0924484,436.131784 C155.302404,482.786432 218.748053,506.446106 284.616661,506.446106 C350.359634,506.446106 413.643752,482.912186 472.746021,436.473116 L474.181849,435.341332 L475.402303,436.706658 L523,489.541206 L521.366746,490.816709 C449.090755,547.855025 367.212665,578 284.616661,578 L284.616661,578 Z" id="Fill-128" fill="#007AC2"></path>
            <polygon id="Fill-130" fill="#007AC2" points="104 471.705187 87.5090909 495 82 491.312541 98.4909091 468"></polygon>
            <path d="M98,501.550196 L103.663206,505 L109.017839,496.129074 C109.326411,496.293351 109.616832,496.494133 109.87095,496.640156 C111.794988,497.808344 114.75365,498.739244 117.312984,498.136897 C119.618199,497.589309 121.796355,496.092568 123.520728,493.208605 C124.791319,491.127771 125.426615,488.590613 124.682412,486.235984 C123.865603,483.589309 121.687447,481.745763 118.565423,479.847458 C116.605083,478.642764 114.499532,477.602347 112.829612,477 L98,501.550196 L98,501.550196 Z M115.897182,484.739244 C116.242057,484.794003 116.677688,484.976532 117.058865,485.195567 C118.892147,486.308996 118.80139,488.280313 117.603404,490.288136 C116.496175,492.076923 114.735499,493.354628 112.448435,491.949153 C112.230619,491.821382 112.012804,491.675359 111.831291,491.492829 L115.897182,484.739244 Z" id="Fill-132" fill="#007AC2"></path>
            <path d="M116,512.542091 L121.733637,515.585523 L126.913558,506.065952 L127.485136,506.366756 C128.753323,507.021448 129.02125,508.08311 127.788786,511.250402 C126.717078,514.046113 125.913298,516.947989 125.859712,517.779625 L131.897,521 C131.932723,519.761394 133.075878,515.850938 133.98683,513.1437 C134.862058,510.47185 134.844196,508.560858 133.59387,506.968365 L133.629594,506.879893 C136.844718,507.056836 139.434678,505.198928 140.756451,502.757105 C141.953192,500.545308 142.417598,498.652011 141.560232,496.334048 C140.64928,493.839142 138.166491,492.105094 135.415774,490.636461 C133.361667,489.53941 131.146804,488.601609 129.289177,488 L116,512.542091 L116,512.542091 Z M132.807951,495.16622 C133.111602,495.16622 133.558147,495.360858 133.951106,495.555496 C135.701563,496.599464 135.665839,498.333512 134.68344,500.156032 C133.683179,501.943164 131.897,503.057909 130.039373,502.04933 L129.289177,501.660054 L132.807951,495.16622 Z" id="Fill-134" fill="#007AC2"></path>
            <polygon id="Fill-136" fill="#007AC2" points="152.757079 517.561086 147.123696 514.900452 144.351714 520.800905 150.700447 523.80543 148.28614 529 136 523.171946 148.14307 497 160 502.628959 157.603577 507.823529 151.684054 505.0181 149.412817 509.904977 155.0462 512.60181"></polygon>
            <path d="M153.977444,523.971123 C154.861654,525.068247 156.630075,526.218457 158.181955,526.837801 C160.473684,527.775665 161.917293,527.174016 162.476692,525.829155 C163.162406,524.21886 162.368421,523.033259 160.581955,520.732838 C157.333835,516.485907 157.821053,513.300709 158.633083,511.371895 C160.419549,507.071877 164.840602,504.488328 170.993985,506.965704 C172.816541,507.691221 174.386466,508.859127 175,509.655427 L171.986466,514.468615 C171.390977,513.690011 170.416541,512.805234 168.864662,512.18589 C166.825564,511.371895 165.381955,512.008934 164.876692,513.212231 C164.407519,514.344746 164.678195,515.300306 166.98797,518.18468 C169.803008,521.670702 169.893233,524.926682 168.774436,527.598709 C166.717293,532.535767 161.592481,534.287625 155.962406,532.022596 C153.670677,531.102427 151.757895,529.73987 151,528.855093 L153.977444,523.971123" id="Fill-138" fill="#007AC2"></path>
            <path d="M170.698425,531.09801 C171.640157,532.151854 173.487402,533.242038 175.062992,533.78713 C177.417323,534.622937 178.829921,533.932487 179.318898,532.551588 C179.916535,530.843633 179.065354,529.680771 177.145669,527.427724 C173.668504,523.212347 173.976378,519.978135 174.700787,517.924955 C176.258268,513.418862 180.532283,510.548045 186.870866,512.764752 C188.71811,513.418862 190.329921,514.527216 191,515.308514 L188.247244,520.396039 C187.613386,519.63291 186.581102,518.760763 185.005512,518.215671 C182.886614,517.470712 181.510236,518.215671 181.05748,519.469382 C180.659055,520.668584 180.930709,521.63158 183.411811,524.466058 C186.454331,527.881967 186.707874,531.225198 185.729921,534.023336 C183.918898,539.183539 178.884252,541.254889 173.143307,539.238049 C170.788976,538.402241 168.79685,537.11219 168,536.240043 L170.698425,531.09801" id="Fill-140" fill="#007AC2"></path>
            <polygon id="Fill-142" fill="#007AC2" points="202.930636 524.269591 198.025048 522.982456 199.635838 517 216 521.31462 214.38921 527.315205 209.428709 526.009942 203.498073 548 197 546.277778"></polygon>
            <path d="M220.005601,551.795673 C225.596881,552.941139 230.312849,549.361556 232.456471,538.748092 C233.528282,533.432412 233.72478,524.716127 226.15065,523.176906 C219.380378,521.816665 214.985954,528.528383 213.5926,535.490672 C212.181382,542.435063 212.913786,550.363839 219.969874,551.795673 L220.005601,551.795673 L220.005601,551.795673 Z M221.202457,546.229421 C219.344651,545.871463 219.023108,542.345573 220.255691,536.743526 C221.202457,531.785803 222.899491,528.313608 224.77516,528.707362 C226.704419,529.101116 226.632965,532.895474 225.668335,537.727911 C224.507207,543.455244 223.006672,546.605277 221.256047,546.247319 L221.202457,546.229421 Z" id="Fill-144" fill="#007AC2"></path>
            <path d="M237.224335,554.775545 L236,526 L242.742712,526.800804 L242.441065,537.122273 C242.370089,540.272101 242.139417,543.546498 242.068441,547.016648 L242.157161,547.016648 C242.991128,543.635476 243.931559,540.610218 244.87199,537.407003 L247.835234,527.405855 L253.016477,528.010907 L253.353612,538.421355 C253.442332,541.571183 253.495564,544.72101 253.406844,548.369116 L253.495564,548.369116 C254.187579,544.881171 254.844106,541.9093 255.518378,538.688289 L257.683143,528.562572 L264,529.309989 L255.961977,557 L249.183777,556.181401 L248.811153,548.76062 C248.686946,546.233639 248.686946,542.959242 248.740177,539.311137 L248.669202,539.311137 C247.711027,542.76349 246.87706,545.895522 246.025349,548.422503 L243.665399,555.540758 L237.224335,554.775545" id="Fill-146" fill="#007AC2"></path>
            <path d="M275.007435,552.12138 L275.713755,557.767714 L282,558 L277.885688,529.303758 L270.027881,529 L263,557.303142 L269.286245,557.553296 L270.434015,551.942699 L275.007435,552.12138 L275.007435,552.12138 Z M271.263941,546.92175 L272.305762,541.561306 C272.58829,540.024646 273.135688,536.879852 273.488848,535.110906 L273.577138,535.110906 C273.771375,536.879852 274.018587,539.988909 274.177509,541.614911 L274.671933,547.064695 L271.263941,546.92175 Z" id="Fill-148" fill="#007AC2"></path>
            <path d="M286.862819,558 L293.423841,557.802576 L293.100284,546.836574 L293.729423,546.800679 C295.167455,546.764784 295.958373,547.554479 296.497635,550.928634 C296.964995,553.943836 297.719962,556.905195 298.097446,557.658995 L305,557.461571 C304.424787,556.366766 303.43614,552.364444 302.842952,549.528719 C302.249763,546.728888 301.279092,545.041811 299.355724,544.270063 L299.355724,544.162377 C302.249763,542.708619 303.579943,539.783156 303.490066,536.983325 C303.418165,534.452709 302.842952,532.532313 300.919584,530.934974 C298.852412,529.212001 295.832545,528.924839 292.668874,529.014578 C290.332072,529.086368 287.923368,529.37353 286,529.768378 L286.862819,558 L286.862819,558 Z M292.704825,534.291181 C292.956481,534.165547 293.477767,534.111704 293.909177,534.093757 C295.940397,534.111704 296.803217,535.673148 296.857143,537.737126 C296.929044,539.819051 295.904447,541.685604 293.783349,541.757395 L292.92053,541.79329 L292.704825,534.291181 Z" id="Fill-150" fill="#007AC2"></path>
            <path d="M308.847439,556.997474 C309.990042,556.997474 311.966926,557.032996 313.925674,556.837623 C318.26031,556.411353 321.035202,555.239112 322.848858,553.320899 C325.406112,550.74552 326.421758,546.340734 325.841389,540.941319 C325.297292,535.666232 323.810095,532.007418 321.017066,529.947115 C318.858816,528.330843 316.065787,527.744722 312.184565,528.099947 C309.699857,528.348604 307.414651,528.828157 306,529.254427 L308.847439,556.997474 L308.847439,556.997474 Z M313.055119,533.357272 C313.36344,533.179659 313.671762,533.161898 313.99822,533.126376 C316.863795,532.859957 318.441675,536.074741 319.003908,541.314305 C319.711234,548.329992 318.133354,551.100744 315.830012,551.313879 C315.52169,551.349402 315.158959,551.384924 314.923184,551.33164 L313.055119,533.357272 Z" id="Fill-152" fill="#007AC2"></path>
            <path d="M330.117878,548.833018 C331.449878,549.283683 333.573878,549.373817 335.229878,549.121444 C337.677878,548.688805 338.595878,547.426941 338.343878,545.984811 C338.055878,544.218201 336.741878,543.623323 334.023878,542.541725 C328.983878,540.576823 327.705878,537.584402 327.363878,535.475287 C326.589878,530.788364 328.965878,526.245654 335.517878,525.164056 C337.443878,524.839577 339.387878,525.03787 340.359878,525.398402 L340.359878,531.166923 C339.441878,530.788364 338.127878,530.517964 336.489878,530.80639 C334.293878,531.166923 333.447878,532.46484 333.645878,533.780784 C333.843878,534.988568 334.563878,535.709633 338.073878,536.989524 C342.357878,538.539814 344.139878,541.297888 344.643878,544.218201 C345.507878,549.57211 342.105878,553.772314 336.111878,554.763778 C333.663878,555.178391 331.305878,554.998124 330.225878,554.601539 L330.117878,548.833018" id="Fill-154" fill="#007AC2"></path>
            <polygon id="Fill-156" fill="#007AC2" points="355.267857 527.831184 350.464286 529.030481 349 523.015826 365.035714 519 366.482143 525.014654 361.642857 526.232122 367 548.400938 360.642857 550"></polygon>
            <polygon id="Fill-158" fill="#007AC2" points="373.341904 516.453699 376.720639 527.158356 381.364142 525.693699 378.003475 514.989041 384.327311 513 393 540.539178 386.658096 542.528219 383.225156 531.588493 378.563586 533.035068 381.996525 543.974795 375.690757 546 367 518.424658"></polygon>
            <polygon id="Fill-160" fill="#007AC2" points="404.952978 522.305587 399.076803 524.497149 401.402038 530.435576 407.981191 527.978905 410 533.22805 397.238245 538 387 511.630559 399.329154 507 401.365987 512.266819 395.219436 514.564424 397.112069 519.495439 403.00627 517.303877"></polygon>
            <path d="M436,521.108818 C435.066781,522.046255 432.715786,523.726567 430.723722,524.664004 C427.439508,526.185128 424.711636,526.326628 422.235015,525.495316 C418.789282,524.363316 415.75632,520.985006 413.800149,516.669258 C409.654501,507.595576 413.189967,500.998143 419.11232,498.256582 C421.23001,497.266083 422.952876,496.983083 423.957882,497.00077 L425.41155,502.466205 C424.442438,502.448517 423.365646,502.731517 422.163229,503.279829 C418.663657,504.907078 417.335614,508.232326 420.242951,514.316822 C422.845197,519.746882 425.967892,520.843506 427.99585,519.906069 C428.211208,519.799944 428.462459,519.693819 428.606032,519.516944 L426.093518,514.281447 L424.22708,515.165822 L421.947871,510.3902 L429.252107,506.994202 L436,521.108818" id="Fill-162" fill="#007AC2"></path>
            <path d="M448.455662,515.934731 C453.580431,513.195556 454.911777,507.412853 449.62287,497.906303 C446.996654,493.144077 441.45242,486.3588 434.485652,490.064743 C428.32134,493.358914 429.287933,501.3437 432.734841,507.556078 C436.18175,513.786359 441.963073,519.390031 448.419187,515.952634 L448.455662,515.934731 L448.455662,515.934731 Z M445.756496,510.903958 C444.060398,511.83492 441.488895,509.310582 438.789728,504.244003 C436.272938,499.839839 435.306345,496.09809 437.057155,495.167128 C438.844441,494.218264 441.233568,497.172276 443.640933,501.486925 C446.504238,506.625116 447.379643,510.044609 445.792971,510.868152 L445.756496,510.903958 Z" id="Fill-164" fill="#007AC2"></path>
            <path d="M464.883117,498.839729 L468.615174,503.191874 L474,499.851016 L454.735475,478 L448,482.207675 L457.703349,510 L463.070403,506.659142 L460.973342,501.277652 L464.883117,498.839729 L464.883117,498.839729 Z M458.894053,496.600451 L456.796992,491.489842 C456.210526,490.027088 454.913192,487.083521 454.237867,485.386005 L454.308954,485.331828 C455.481887,486.740406 457.40123,489.196388 458.414217,490.478555 L461.861928,494.758465 L458.894053,496.600451 Z" id="Fill-166" fill="#007AC2"></path>
            <polygon id="Fill-168" fill="#007AC2" points="461 474.65533 466.407091 471 479.1891 489.824068 484.933027 485.974493 488 490.495095 476.884439 498"></polygon>
            <path d="M399,192.498455 C362.420875,168.531957 326.434343,159.443689 294.380471,158.206824 C281.900112,135.11868 264.96633,112.048461 242.250281,90 C242.250281,90 261.823793,114.575967 275.47138,158.368154 C216.589226,161.523056 175,188.895414 175,188.895414 C194.124579,192.050315 208.005612,211.553344 208.005612,211.553344 C234.223345,196.495859 259.219978,187.748177 281.953984,183.105452 C290.93266,224.997528 292.746352,279.545061 272.652076,343.682779 C272.652076,343.682779 302.102132,356.087279 311.763187,380 C311.763187,380 348.845118,282.771665 304.723906,179.663741 C361.163861,174.124737 399,192.498455 399,192.498455" id="Fill-170" fill="#EDAE25"></path>
            <path d="M756.862647,133.005143 C747.22469,124.257393 734.907525,119.073541 721.907072,119.073541 C693.532638,119.073541 668.197038,141.752893 668.197038,173.017999 C668.197038,204.607097 694.251889,226.944459 721.907072,226.944459 C736.885464,226.944459 748.64521,221.382618 758.103354,212.454873 L769,224.80252 C756.862647,235.854204 739.025234,243 721.907072,243 C675.857057,243 650,206.569041 650,173.017999 C650,139.430959 675.857057,103 721.907072,103 C739.924297,103 757.581898,110.307791 768.460562,120.333505 L756.862647,133.005143 Z" id="Fill-172" fill="#FFFFFF"></path>
            <mask id="mask-4" fill="white">
                <use xlink:href="#path-3"></use>
            </mask>
            <g id="Clip-175"></g>
            <path d="M786.1328,241 L801.8672,241 L801.8672,148.485264 L786.1328,148.485264 L786.1328,241 Z M794,108 C800.1072,108 805,112.975643 805,119.204145 C805,125.396851 800.1072,130.390392 794,130.390392 C787.8928,130.390392 783,125.396851 783,119.204145 C783,112.975643 787.8928,108 794,108 L794,108 Z" id="Fill-174" fill="#FFFFFF" mask="url(#mask-4)"></path>
            <path d="M831.822857,126 L847.860408,126 L847.860408,148.394454 L862.658776,148.394454 L862.658776,162.42234 L847.860408,162.42234 L847.860408,219.304253 C847.860408,224.28478 849.458776,226.05842 855.690612,226.05842 L863,226.05842 L863,240.820844 C860.683265,241 856.947755,241 853.194286,241 C836.797551,241 831.822857,235.320766 831.822857,221.095809 L831.822857,162.42234 L819,162.42234 L819,148.394454 L831.822857,148.394454 L831.822857,126 Z" id="Fill-176" fill="#FFFFFF" mask="url(#mask-4)"></path>
            <path d="M882.1328,241 L897.832,241 L897.832,148.485264 L882.1328,148.485264 L882.1328,241 Z M890,108 C896.0896,108 901,112.975643 901,119.204145 C901,125.396851 896.0896,130.390392 890,130.390392 C883.8752,130.390392 879,125.396851 879,119.204145 C879,112.975643 883.8752,108 890,108 L890,108 Z" id="Fill-177" fill="#FFFFFF" mask="url(#mask-4)"></path>
            <path d="M965.841387,160.940704 C948.363391,160.940704 933.058919,175.899344 933.058919,194.57074 C933.058919,213.080712 948.022094,228.021416 966.380277,228.021416 C983.319382,228.021416 999.881265,215.053674 999.881265,193.691875 C999.881265,178.213091 987.594575,160.940704 965.841387,160.940704 L965.841387,160.940704 Z M917,148.134386 L933.058919,148.134386 L933.058919,162.734306 L933.400216,162.734306 C941.070415,151.685718 954.973774,146 968.697503,146 C994.887552,146 1017,166.823718 1017,193.494579 C1017,222.676482 993.827735,242.980056 967.978983,242.980056 C951.955991,242.980056 940.172265,236.218177 933.400216,226.604471 L933.058919,226.604471 L933.058919,280 L917,280 L917,148.134386 Z" id="Fill-178" fill="#FFFFFF" mask="url(#mask-4)"></path>
            <path d="M1043.03002,194.580729 C1043.03002,212.376919 1058.27305,228.038284 1076,228.038284 C1093.72695,228.038284 1108.96998,212.376919 1108.96998,194.580729 C1108.96998,175.385241 1093.72695,160.943777 1076,160.943777 C1058.27305,160.943777 1043.03002,175.385241 1043.03002,194.580729 M1076,146 C1105.07434,146 1126,168.424635 1126,194.580729 C1126,221.113557 1106.12866,243 1076,243 C1045.85347,243 1026,221.113557 1026,194.580729 C1026,168.424635 1046.92566,146 1076,146" id="Fill-179" fill="#FFFFFF" mask="url(#mask-4)"></path>
            <path d="M1140.1504,241 L1155.8672,241 L1155.8672,148.485264 L1140.1504,148.485264 L1140.1504,241 Z M1148,108 C1154.1248,108 1159,112.975643 1159,119.204145 C1159,125.396851 1154.1248,130.390392 1148,130.390392 C1141.8928,130.390392 1137,125.396851 1137,119.204145 C1137,112.975643 1141.8928,108 1148,108 L1148,108 Z" id="Fill-180" fill="#FFFFFF" mask="url(#mask-4)"></path>
            <path d="M1239.89875,186.978631 C1239.89875,173.091528 1234.18308,160.965015 1218.26214,160.965015 C1203.22469,160.965015 1194.10125,171.115356 1194.10125,188.793116 L1194.10125,241 L1178,241 L1178,148.137859 L1194.10125,148.137859 L1194.10125,159.006808 L1194.46186,159.006808 C1199.29404,150.635023 1209.67961,146 1220.04716,146 C1238.11373,146 1256,155.809002 1256,180.942322 L1256,241 L1239.89875,241 L1239.89875,186.978631 Z" id="Fill-181" fill="#FFFFFF" mask="url(#mask-4)"></path>
            <path d="M1280.84082,126 L1296.87837,126 L1296.87837,148.394454 L1311.65878,148.394454 L1311.65878,162.42234 L1296.87837,162.42234 L1296.87837,219.304253 C1296.87837,224.28478 1298.45878,226.05842 1304.70857,226.05842 L1312,226.05842 L1312,240.820844 C1309.70122,241 1305.94776,241 1302.21224,241 C1285.81551,241 1280.84082,235.320766 1280.84082,221.095809 L1280.84082,162.42234 L1268,162.42234 L1268,148.394454 L1280.84082,148.394454 L1280.84082,126 Z" id="Fill-182" fill="#FFFFFF" mask="url(#mask-4)"></path>
            <path d="M1399.74372,187.468935 C1398.13818,172.169194 1385.61856,160.941013 1368.96783,160.941013 C1349.26837,160.941013 1339.79747,174.841716 1338.17389,187.468935 L1399.74372,187.468935 Z M1413.86889,222.893306 C1401.36731,236.758136 1388.09001,243 1371.83615,243 C1338.71508,243 1321,219.144601 1321,194.410318 C1321,168.079697 1339.97787,146 1369.14822,146 C1397.95778,146 1418,167.900333 1418,200.634246 L1338.17389,200.634246 C1340.68142,216.472078 1353.56184,228.04105 1371.63772,228.04105 C1383.09299,228.04105 1393.32155,222.696006 1401.5477,213.100037 L1413.86889,222.893306 Z" id="Fill-183" fill="#FFFFFF" mask="url(#mask-4)"></path>
            <path d="M756.860813,326.005143 C747.239383,317.257393 734.920357,312.09154 721.899955,312.09154 C693.539217,312.09154 668.181804,334.752893 668.181804,366.017999 C668.181804,397.625096 694.240592,419.944459 721.899955,419.944459 C736.898595,419.944459 748.660118,414.400617 758.101708,405.472872 L769,417.80252 C756.860813,428.854204 739.020704,436 721.899955,436 C675.860964,436 650,399.58704 650,366.017999 C650,332.430959 675.860964,296 721.899955,296 C739.919903,296 757.580172,303.325791 768.478465,313.333505 L756.860813,326.005143 Z" id="Fill-184" fill="#FFFFFF" mask="url(#mask-4)"></path>
            <path d="M846.898752,380.179045 C846.898752,366.338859 841.183079,354.253316 825.262136,354.253316 C810.242718,354.253316 801.101248,364.369363 801.101248,381.969496 L801.101248,434 L785,434 L785,299 L801.101248,299 L801.101248,352.28382 L801.461859,352.28382 C806.294036,343.958223 816.661581,339.320955 827.029126,339.320955 C845.0957,339.320955 863,349.096817 863,374.145225 L863,434 L846.898752,434 L846.898752,380.179045 Z" id="Fill-185" fill="#FFFFFF" mask="url(#mask-4)"></path>
            <path d="M888,341.137859 L904.190551,341.137859 L904.190551,354.324319 L904.534646,354.324319 C912.611811,339.89826 920.344882,339 934,339 L934,355.941188 C931.66378,355.402231 929.146457,355.042927 926.629134,355.042927 C913.173228,355.042927 904.190551,364.312973 904.190551,381.236195 L904.190551,434 L888,434 L888,341.137859 Z" id="Fill-186" fill="#FFFFFF" mask="url(#mask-4)"></path>
            <path d="M951.1504,434 L966.8848,434 L966.8848,341.485264 L951.1504,341.485264 L951.1504,434 Z M959,301 C965.1248,301 970,305.957745 970,312.186247 C970,318.378953 965.1248,323.372494 959,323.372494 C952.8928,323.372494 948,318.378953 948,312.186247 C948,305.957745 952.8928,301 959,301 L959,301 Z" id="Fill-187" fill="#FFFFFF" mask="url(#mask-4)"></path>
            <path d="M1002.05422,406.812095 C1003.13855,416.786573 1011.54217,421.953209 1021.40964,421.953209 C1035.93976,421.953209 1039.89759,414.113557 1039.89759,408.606066 C1039.89759,402.542445 1035.93976,398.810986 1023.39759,395.402441 L1007.06024,390.971333 C993.271084,387.239874 988.084337,378.144442 988.084337,367.129462 C988.084337,351.826891 999.722892,339 1021.40964,339 C1045.26506,339 1053.5241,353.961716 1053.5241,367.82911 L1038.46988,367.82911 C1037.18675,357.334381 1031.8012,352.167746 1021.06627,352.167746 C1010.83735,352.167746 1004.20482,358.231367 1004.20482,365.514888 C1004.20482,370.681524 1007.06024,374.59238 1014.59639,376.727205 L1036.48193,382.970224 C1051.1747,387.239874 1056,395.240984 1056,407.188829 C1056,426.025522 1039.33735,436 1022.13253,436 C1000.26506,436 987.524096,424.428888 987,406.812095 L1002.05422,406.812095 Z" id="Fill-188" fill="#FFFFFF" mask="url(#mask-4)"></path>
            <path d="M1078.83558,319 L1094.86659,319 L1094.86659,341.380025 L1109.64096,341.380025 L1109.64096,355.428015 L1094.86659,355.428015 L1094.86659,412.318791 C1094.86659,417.282175 1096.44635,419.074011 1102.69359,419.074011 L1110,419.074011 L1110,433.820816 C1107.68421,434 1103.93227,434 1100.19829,434 C1083.80824,434 1078.83558,428.319882 1078.83558,414.092708 L1078.83558,355.428015 L1066,355.428015 L1066,341.380025 L1078.83558,341.380025 L1078.83558,319 Z" id="Fill-189" fill="#FFFFFF" mask="url(#mask-4)"></path>
            <path d="M1129.1504,434 L1144.8672,434 L1144.8672,341.485264 L1129.1504,341.485264 L1129.1504,434 Z M1137.0176,301 C1143.1248,301 1148,305.957745 1148,312.186247 C1148,318.378953 1143.1248,323.372494 1137.0176,323.372494 C1130.8928,323.372494 1126,318.378953 1126,312.186247 C1126,305.957745 1130.8928,301 1137.0176,301 L1137.0176,301 Z" id="Fill-190" fill="#FFFFFF" mask="url(#mask-4)"></path>
            <path d="M1207.29036,384.91716 C1187.69294,384.91716 1181.10059,394.351701 1181.10059,403.427515 C1181.10059,412.503328 1187.69294,421.93787 1207.29036,421.93787 C1226.90575,421.93787 1233.4981,412.503328 1233.4981,403.427515 C1233.4981,394.351701 1226.90575,384.91716 1207.29036,384.91716 L1207.29036,384.91716 Z M1232.95921,371.769786 C1232.95921,356.452108 1217.63694,353.080067 1205.15279,353.080067 C1196.44083,353.080067 1188.21386,355.214497 1179.5019,359.483358 L1172.53233,346.138683 C1186.63314,340.273484 1197.6623,339 1206.05093,339 C1228.32481,339 1249,348.452478 1249,370.514238 L1249,433.86557 L1234.01902,433.86557 L1234.01902,423.892936 C1225.82798,432.430658 1216.7388,436 1204.45224,436 C1181.8191,436 1164,423.372781 1164,402.710059 C1164,385.813979 1178.42413,370.872966 1204.25465,370.872966 C1214.0803,370.872966 1224.40892,373.706916 1232.95921,381.365754 L1232.95921,371.769786 Z" id="Fill-191" fill="#FFFFFF" mask="url(#mask-4)"></path>
            <path d="M1334.89875,379.996596 C1334.89875,366.109493 1329.16505,353.98298 1313.24411,353.98298 C1298.22469,353.98298 1289.10125,364.133321 1289.10125,381.793116 L1289.10125,434 L1273,434 L1273,341.137859 L1289.10125,341.137859 L1289.10125,352.006808 L1289.44383,352.006808 C1294.27601,343.652988 1304.66158,339 1315.02913,339 C1333.0957,339 1351,348.809002 1351,373.942322 L1351,434 L1334.89875,434 L1334.89875,379.996596 Z" id="Fill-192" fill="#FFFFFF" mask="url(#mask-4)"></path>
            <path d="M1524.84467,326.005143 C1515.22469,317.257393 1502.90752,312.09154 1489.88909,312.09154 C1461.53264,312.09154 1436.17906,334.752893 1436.17906,366.017999 C1436.17906,397.625096 1462.25189,419.944459 1489.88909,419.944459 C1504.88546,419.944459 1516.64521,414.400617 1526.10335,405.472872 L1537,417.80252 C1524.84467,428.854204 1507.00725,436 1489.88909,436 C1443.85706,436 1418,399.58704 1418,366.017999 C1418,332.430959 1443.85706,296 1489.88909,296 C1507.90632,296 1525.56392,303.325791 1536.46056,313.333505 L1524.84467,326.005143 Z" id="Fill-193" fill="#FFFFFF" mask="url(#mask-4)"></path>
            <path d="M1562.03002,387.598668 C1562.03002,405.394859 1577.29092,421.056223 1595,421.056223 C1612.72695,421.056223 1627.96998,405.394859 1627.96998,387.598668 C1627.96998,368.385241 1612.72695,353.961716 1595,353.961716 C1577.29092,353.961716 1562.03002,368.385241 1562.03002,387.598668 M1595,339 C1624.07434,339 1645,361.442574 1645,387.598668 C1645,414.131496 1625.12866,436 1595,436 C1564.87134,436 1545,414.131496 1545,387.598668 C1545,361.442574 1565.92566,339 1595,339" id="Fill-194" fill="#FFFFFF" mask="url(#mask-4)"></path>
            <path d="M1672.93725,299 L1672.93725,405.048408 C1672.93725,415.540451 1678.07714,419.085544 1683.21704,419.085544 L1688,419.085544 L1688,434 L1681.4502,434 C1666.74439,434 1657,425.656499 1657,406.28382 L1657,299 L1672.93725,299 Z" id="Fill-195" fill="#FFFFFF" mask="url(#mask-4)"></path>
            <path d="M1715.95509,299 L1715.95509,405.048408 C1715.95509,415.540451 1721.09499,419.085544 1726.21704,419.085544 L1731,419.085544 L1731,434 L1724.4502,434 C1709.74439,434 1700,425.656499 1700,406.28382 L1700,299 L1715.95509,299 Z" id="Fill-196" fill="#FFFFFF" mask="url(#mask-4)"></path>
            <path d="M1813.74372,380.486871 C1812.12014,365.169194 1799.60052,353.95895 1782.94979,353.95895 C1763.26837,353.95895 1753.77943,367.841716 1752.17389,380.486871 L1813.74372,380.486871 Z M1827.86889,415.893306 C1815.34927,429.758136 1802.09001,436 1785.81811,436 C1752.71508,436 1735,412.162537 1735,387.428254 C1735,361.097633 1753.97787,339 1783.14822,339 C1811.93974,339 1832,360.900333 1832,393.634246 L1752.17389,393.634246 C1754.68142,409.472078 1767.5438,421.058987 1785.63772,421.058987 C1797.09299,421.058987 1807.30351,415.713942 1815.5477,406.100037 L1827.86889,415.893306 Z" id="Fill-197" fill="#FFFFFF" mask="url(#mask-4)"></path>
            <path d="M1894.14984,353.956638 C1872.41071,353.956638 1860.10384,371.226713 1860.10384,386.685493 C1860.10384,408.044433 1876.86633,420.831103 1893.62882,420.831103 C1911.97233,420.831103 1926.95616,406.071734 1926.95616,387.582173 C1926.95616,368.913276 1911.64894,353.956638 1894.14984,353.956638 L1894.14984,353.956638 Z M1926.95616,341.134101 L1943,341.134101 L1943,421.028373 C1943,455.20985 1926.59684,473 1890.59253,473 C1874.20733,473 1859.76249,466.938437 1847.29393,453.039882 L1860.10384,442.907388 C1869.9134,455.20985 1881.32195,458.940043 1890.95185,458.940043 C1915.90693,458.940043 1926.95616,446.476178 1926.95616,425.834582 L1926.95616,419.252944 L1926.59684,419.252944 C1917.86525,429.744111 1908.77434,434.908994 1890.79015,434.908994 C1859.58282,434.908994 1843,408.205835 1843,386.685493 C1843,359.820931 1865.11642,339 1891.31117,339 C1905.03737,339 1918.94323,344.702891 1926.59684,355.732066 L1926.95616,355.732066 L1926.95616,341.134101 Z" id="Fill-198" fill="#FFFFFF" mask="url(#mask-4)"></path>
            <path d="M2035.74372,380.486871 C2034.12014,365.169194 2021.60052,353.95895 2004.96783,353.95895 C1985.26837,353.95895 1975.79747,367.841716 1974.19193,380.486871 L2035.74372,380.486871 Z M2049.88693,415.893306 C2037.34927,429.758136 2024.10805,436 2007.81811,436 C1974.71508,436 1957,412.162537 1957,387.428254 C1957,361.097633 1975.97787,339 2005.14822,339 C2033.95778,339 2054,360.900333 2054,393.634246 L1974.19193,393.634246 C1976.69946,409.472078 1989.56184,421.058987 2007.63772,421.058987 C2019.11103,421.058987 2029.30351,415.713942 2037.5477,406.100037 L2049.88693,415.893306 Z" id="Fill-199" fill="#FFFFFF" mask="url(#mask-4)"></path>
        </g>
    </g>
</svg>