<?xml version="1.0" encoding="UTF-8"?>
<svg width="206px" height="66px" viewBox="0 0 206 66" version="1.1" xmlns="http://www.w3.org/2000/svg" xmlns:xlink="http://www.w3.org/1999/xlink">
    <!-- Generator: Sketch 53 (72520) - https://sketchapp.com -->
    <title>Group 214</title>
    <desc>Created with Sketch.</desc>
    <defs>
        <polygon id="path-1" points="0 65.1863 205.545 65.1863 205.545 0.0003 0 0.0003"></polygon>
    </defs>
    <g id="Page-1" stroke="none" stroke-width="1" fill="none" fill-rule="evenodd">
        <g id="Desktop-HD-Copy-2" transform="translate(-152.000000, -31.000000)">
            <g id="Group-214" transform="translate(152.000000, 31.000000)">
                <path d="M99.3679,15.3619 L99.3679,25.3349 C99.3679,26.4739 99.1129,27.4719 98.6039,28.3289 C98.0939,29.1869 97.3579,29.8439 96.3949,30.2999 C95.4319,30.7569 94.2929,30.9849 92.9799,30.9849 C90.9969,30.9849 89.4579,30.4779 88.3619,29.4619 C87.2649,28.4459 86.7169,27.0569 86.7169,25.2929 L86.7169,15.3619 L89.9749,15.3619 L89.9749,24.7969 C89.9749,25.9849 90.2139,26.8569 90.6919,27.4119 C91.1699,27.9669 91.9599,28.2439 93.0639,28.2439 C94.1319,28.2439 94.9069,27.9649 95.3879,27.4059 C95.8689,26.8479 96.1109,25.9709 96.1109,24.7759 L96.1109,15.3619 L99.3679,15.3619 Z" id="Fill-1" fill="#FEFEFE"></path>
                <path d="M112.3489,30.7745 L109.1339,30.7745 L109.1339,23.8905 C109.1339,23.0405 108.9819,22.4025 108.6799,21.9765 C108.3779,21.5515 107.8969,21.3395 107.2359,21.3395 C106.3359,21.3395 105.6859,21.6395 105.2859,22.2405 C104.8849,22.8415 104.6849,23.8375 104.6849,25.2295 L104.6849,30.7745 L101.4699,30.7745 L101.4699,18.9885 L103.9259,18.9885 L104.3579,20.4955 L104.5369,20.4955 C104.8949,19.9265 105.3889,19.4965 106.0179,19.2045 C106.6469,18.9125 107.3619,18.7675 108.1639,18.7675 C109.5339,18.7675 110.5739,19.1375 111.2839,19.8795 C111.9939,20.6205 112.3489,21.6905 112.3489,23.0895 L112.3489,30.7745 Z" id="Fill-3" fill="#FEFEFE"></path>
                <mask id="mask-2" fill="white">
                    <use xlink:href="#path-1"></use>
                </mask>
                <g id="Clip-6"></g>
                <path d="M114.567,30.7743 L117.782,30.7743 L117.782,18.9883 L114.567,18.9883 L114.567,30.7743 Z M114.43,15.9413 C114.43,14.8943 115.013,14.3703 116.18,14.3703 C117.346,14.3703 117.93,14.8943 117.93,15.9413 C117.93,16.4403 117.784,16.8293 117.493,17.1063 C117.201,17.3843 116.763,17.5223 116.18,17.5223 C115.013,17.5223 114.43,16.9953 114.43,15.9413 L114.43,15.9413 Z" id="Fill-5" fill="#FEFEFE" mask="url(#mask-2)"></path>
                <path d="M125.0891,28.424 C125.6511,28.424 126.3261,28.301 127.1131,28.055 L127.1131,30.448 C126.3121,30.807 125.3281,30.986 124.1611,30.986 C122.8751,30.986 121.9391,30.661 121.3521,30.011 C120.7651,29.361 120.4721,28.385 120.4721,27.085 L120.4721,21.403 L118.9331,21.403 L118.9331,20.043 L120.7041,18.968 L121.6311,16.479 L123.6871,16.479 L123.6871,18.989 L126.9871,18.989 L126.9871,21.403 L123.6871,21.403 L123.6871,27.085 C123.6871,27.542 123.8151,27.88 124.0721,28.097 C124.3281,28.315 124.6671,28.424 125.0891,28.424" id="Fill-7" fill="#FEFEFE" mask="url(#mask-2)"></path>
                <path d="M133.345,21.0548 C132.663,21.0548 132.129,21.2708 131.742,21.7028 C131.356,22.1348 131.134,22.7488 131.078,23.5428 L135.59,23.5428 C135.576,22.7488 135.369,22.1348 134.968,21.7028 C134.568,21.2708 134.027,21.0548 133.345,21.0548 M133.798,30.9858 C131.9,30.9858 130.418,30.4618 129.35,29.4148 C128.281,28.3678 127.747,26.8848 127.747,24.9658 C127.747,22.9908 128.241,21.4638 129.228,20.3858 C130.215,19.3068 131.581,18.7668 133.324,18.7668 C134.99,18.7668 136.286,19.2418 137.214,20.1908 C138.142,21.1388 138.606,22.4498 138.606,24.1228 L138.606,25.6828 L131.005,25.6828 C131.04,26.5968 131.31,27.3098 131.816,27.8228 C132.323,28.3358 133.032,28.5928 133.946,28.5928 C134.656,28.5928 135.327,28.5188 135.959,28.3708 C136.592,28.2238 137.253,27.9878 137.941,27.6648 L137.941,30.1528 C137.379,30.4338 136.778,30.6428 136.139,30.7798 C135.499,30.9168 134.719,30.9858 133.798,30.9858" id="Fill-8" fill="#FEFEFE" mask="url(#mask-2)"></path>
                <path d="M145.3284,28.424 C146.1504,28.424 146.7534,28.185 147.1364,27.707 C147.5194,27.229 147.7284,26.418 147.7634,25.272 L147.7634,24.924 C147.7634,23.659 147.5684,22.752 147.1784,22.204 C146.7884,21.656 146.1544,21.382 145.2754,21.382 C144.5584,21.382 144.0014,21.686 143.6054,22.294 C143.2074,22.902 143.0094,23.786 143.0094,24.945 C143.0094,26.105 143.2094,26.974 143.6104,27.554 C144.0104,28.134 144.5834,28.424 145.3284,28.424 M144.2004,30.986 C142.8164,30.986 141.7284,30.448 140.9374,29.373 C140.1464,28.297 139.7514,26.807 139.7514,24.903 C139.7514,22.97 140.1534,21.464 140.9584,20.386 C141.7634,19.307 142.8724,18.767 144.2844,18.767 C145.7674,18.767 146.8994,19.344 147.6794,20.496 L147.7844,20.496 C147.6234,19.618 147.5424,18.834 147.5424,18.145 L147.5424,14.371 L150.7684,14.371 L150.7684,30.775 L148.3014,30.775 L147.6794,29.246 L147.5424,29.246 C146.8114,30.406 145.6974,30.986 144.2004,30.986" id="Fill-9" fill="#FEFEFE" mask="url(#mask-2)"></path>
                <path d="M161.7498,24.0592 L161.7498,28.0762 L163.8788,28.0762 C164.7788,28.0762 165.4428,27.9032 165.8718,27.5592 C166.3008,27.2152 166.5148,26.6872 166.5148,25.9782 C166.5148,24.6982 165.6008,24.0592 163.7738,24.0592 L161.7498,24.0592 Z M161.7498,21.4652 L163.6468,21.4652 C164.5328,21.4652 165.1738,21.3282 165.5718,21.0542 C165.9688,20.7802 166.1668,20.3272 166.1668,19.6952 C166.1668,19.1042 165.9508,18.6812 165.5188,18.4242 C165.0868,18.1672 164.4028,18.0392 163.4678,18.0392 L161.7498,18.0392 L161.7498,21.4652 Z M158.4818,15.3622 L163.2788,15.3622 C165.4638,15.3622 167.0508,15.6722 168.0378,16.2952 C169.0258,16.9162 169.5198,17.9062 169.5198,19.2622 C169.5198,20.1832 169.3028,20.9392 168.8708,21.5292 C168.4388,22.1192 167.8638,22.4742 167.1478,22.5942 L167.1478,22.6992 C168.1238,22.9172 168.8288,23.3252 169.2608,23.9222 C169.6928,24.5192 169.9098,25.3132 169.9098,26.3052 C169.9098,27.7102 169.4018,28.8072 168.3858,29.5942 C167.3698,30.3812 165.9908,30.7742 164.2488,30.7742 L158.4818,30.7742 L158.4818,15.3622 Z" id="Fill-10" fill="#FEFEFE" mask="url(#mask-2)"></path>
                <path d="M171.654,30.7743 L174.869,30.7743 L174.869,18.9883 L171.654,18.9883 L171.654,30.7743 Z M171.517,15.9413 C171.517,14.8943 172.1,14.3703 173.267,14.3703 C174.433,14.3703 175.017,14.8943 175.017,15.9413 C175.017,16.4403 174.871,16.8293 174.579,17.1063 C174.287,17.3843 173.85,17.5223 173.267,17.5223 C172.1,17.5223 171.517,16.9953 171.517,15.9413 L171.517,15.9413 Z" id="Fill-11" fill="#FEFEFE" mask="url(#mask-2)"></path>
                <path d="M182.7126,21.3395 C181.9186,21.3395 181.3386,21.5835 180.9736,22.0715 C180.6076,22.5605 180.4176,23.3675 180.4036,24.4915 L180.4036,24.8395 C180.4036,26.1045 180.5916,27.0115 180.9676,27.5595 C181.3436,28.1075 181.9396,28.3815 182.7546,28.3815 C183.4156,28.3815 183.9406,28.0775 184.3306,27.4695 C184.7206,26.8615 184.9156,25.9775 184.9156,24.8185 C184.9156,23.6585 184.7196,22.7885 184.3256,22.2095 C183.9316,21.6295 183.3946,21.3395 182.7126,21.3395 M183.7456,18.7675 C185.1376,18.7675 186.2266,19.3105 187.0136,20.3955 C187.8006,21.4815 188.1946,22.9705 188.1946,24.8605 C188.1946,26.8075 187.7886,28.3155 186.9766,29.3825 C186.1656,30.4515 185.0606,30.9855 183.6616,30.9855 C182.2766,30.9855 181.1906,30.4835 180.4036,29.4785 L180.1826,29.4785 L179.6446,30.7745 L177.1886,30.7745 L177.1886,14.3715 L180.4036,14.3715 L180.4036,18.1875 C180.4036,18.6725 180.3616,19.4485 180.2776,20.5175 L180.4036,20.5175 C181.1556,19.3505 182.2696,18.7675 183.7456,18.7675" id="Fill-12" fill="#FEFEFE" mask="url(#mask-2)"></path>
                <polygon id="Fill-13" fill="#FEFEFE" mask="url(#mask-2)" points="189.764 30.7743 192.979 30.7743 192.979 14.3703 189.764 14.3703"></polygon>
                <path d="M200.2839,21.0548 C199.6019,21.0548 199.0679,21.2708 198.6809,21.7028 C198.2949,22.1348 198.0729,22.7488 198.0169,23.5428 L202.5289,23.5428 C202.5149,22.7488 202.3079,22.1348 201.9069,21.7028 C201.5069,21.2708 200.9659,21.0548 200.2839,21.0548 M200.7369,30.9858 C198.8389,30.9858 197.3569,30.4618 196.2889,29.4148 C195.2199,28.3678 194.6859,26.8848 194.6859,24.9658 C194.6859,22.9908 195.1799,21.4638 196.1669,20.3858 C197.1539,19.3068 198.5199,18.7668 200.2629,18.7668 C201.9289,18.7668 203.2249,19.2418 204.1529,20.1908 C205.0809,21.1388 205.5449,22.4498 205.5449,24.1228 L205.5449,25.6828 L197.9439,25.6828 C197.9789,26.5968 198.2489,27.3098 198.7549,27.8228 C199.2619,28.3358 199.9709,28.5928 200.8849,28.5928 C201.5949,28.5928 202.2659,28.5188 202.8979,28.3708 C203.5309,28.2238 204.1919,27.9878 204.8799,27.6648 L204.8799,30.1528 C204.3179,30.4338 203.7169,30.6428 203.0779,30.7798 C202.4379,30.9168 201.6579,30.9858 200.7369,30.9858" id="Fill-14" fill="#FEFEFE" mask="url(#mask-2)"></path>
                <path d="M96.5076,46.9157 C96.5076,48.3077 96.0066,49.4047 95.0056,50.2047 C94.0036,51.0067 92.6106,51.4077 90.8256,51.4077 C89.1806,51.4077 87.7256,51.0977 86.4606,50.4787 L86.4606,47.4437 C87.5006,47.9077 88.3816,48.2337 89.1016,48.4237 C89.8226,48.6137 90.4806,48.7077 91.0786,48.7077 C91.7956,48.7077 92.3456,48.5707 92.7286,48.2967 C93.1116,48.0237 93.3026,47.6157 93.3026,47.0747 C93.3026,46.7727 93.2186,46.5037 93.0496,46.2677 C92.8806,46.0327 92.6336,45.8057 92.3066,45.5877 C91.9796,45.3697 91.3136,45.0227 90.3086,44.5447 C89.3666,44.1017 88.6606,43.6767 88.1896,43.2687 C87.7186,42.8607 87.3426,42.3867 87.0616,41.8447 C86.7806,41.3037 86.6406,40.6717 86.6406,39.9477 C86.6406,38.5847 87.1026,37.5117 88.0266,36.7327 C88.9506,35.9527 90.2276,35.5617 91.8586,35.5617 C92.6596,35.5617 93.4246,35.6577 94.1516,35.8467 C94.8786,36.0367 95.6396,36.3037 96.4336,36.6477 L95.3796,39.1877 C94.5576,38.8517 93.8776,38.6157 93.3396,38.4827 C92.8026,38.3487 92.2736,38.2817 91.7526,38.2817 C91.1346,38.2817 90.6596,38.4267 90.3296,38.7147 C89.9996,39.0027 89.8346,39.3777 89.8346,39.8417 C89.8346,40.1307 89.9006,40.3827 90.0346,40.5957 C90.1676,40.8107 90.3806,41.0177 90.6726,41.2177 C90.9646,41.4187 91.6546,41.7787 92.7446,42.2987 C94.1846,42.9877 95.1726,43.6777 95.7066,44.3697 C96.2406,45.0617 96.5076,45.9107 96.5076,46.9157" id="Fill-15" fill="#FEFEFE" mask="url(#mask-2)"></path>
                <path d="M100.6887,45.2819 C100.6887,46.4489 100.8797,47.3309 101.2637,47.9279 C101.6467,48.5259 102.2697,48.8239 103.1347,48.8239 C103.9917,48.8239 104.6087,48.5279 104.9847,47.9329 C105.3607,47.3399 105.5487,46.4559 105.5487,45.2819 C105.5487,44.1159 105.3587,43.2409 104.9797,42.6579 C104.5997,42.0739 103.9777,41.7819 103.1137,41.7819 C102.2557,41.7819 101.6377,42.0729 101.2577,42.6519 C100.8787,43.2319 100.6887,44.1079 100.6887,45.2819 M108.8377,45.2819 C108.8377,47.2009 108.3317,48.7009 107.3197,49.7839 C106.3077,50.8659 104.8987,51.4079 103.0917,51.4079 C101.9607,51.4079 100.9627,51.1589 100.0987,50.6639 C99.2337,50.1689 98.5697,49.4569 98.1057,48.5289 C97.6427,47.6009 97.4097,46.5179 97.4097,45.2819 C97.4097,43.3569 97.9127,41.8589 98.9177,40.7919 C99.9227,39.7219 101.3357,39.1879 103.1557,39.1879 C104.2867,39.1879 105.2847,39.4339 106.1497,39.9269 C107.0137,40.4189 107.6787,41.1249 108.1427,42.0459 C108.6057,42.9669 108.8377,44.0459 108.8377,45.2819" id="Fill-16" fill="#FEFEFE" mask="url(#mask-2)"></path>
                <path d="M115.4216,51.4069 C111.7526,51.4069 109.9186,49.3929 109.9186,45.3659 C109.9186,43.3629 110.4176,41.8329 111.4156,40.7749 C112.4136,39.7179 113.8436,39.1879 115.7056,39.1879 C117.0696,39.1879 118.2926,39.4559 119.3746,39.9899 L118.4266,42.4769 C117.9196,42.2739 117.4496,42.1069 117.0136,41.9769 C116.5776,41.8469 116.1416,41.7809 115.7056,41.7809 C114.0336,41.7809 113.1966,42.9689 113.1966,45.3449 C113.1966,47.6499 114.0336,48.8029 115.7056,48.8029 C116.3246,48.8029 116.8976,48.7199 117.4246,48.5549 C117.9516,48.3899 118.4786,48.1329 119.0056,47.7799 L119.0056,50.5309 C118.4856,50.8619 117.9606,51.0909 117.4296,51.2179 C116.8986,51.3439 116.2296,51.4069 115.4216,51.4069" id="Fill-17" fill="#FEFEFE" mask="url(#mask-2)"></path>
                <path d="M120.719,51.1973 L123.934,51.1973 L123.934,39.4113 L120.719,39.4113 L120.719,51.1973 Z M120.582,36.3633 C120.582,35.3163 121.166,34.7923 122.333,34.7923 C123.499,34.7923 124.082,35.3163 124.082,36.3633 C124.082,36.8623 123.936,37.2503 123.645,37.5283 C123.353,37.8063 122.916,37.9453 122.333,37.9453 C121.166,37.9453 120.582,37.4163 120.582,36.3633 L120.582,36.3633 Z" id="Fill-18" fill="#FEFEFE" mask="url(#mask-2)"></path>
                <path d="M131.2073,41.4762 C130.5253,41.4762 129.9913,41.6922 129.6043,42.1242 C129.2183,42.5572 128.9963,43.1692 128.9403,43.9652 L133.4523,43.9652 C133.4383,43.1692 133.2313,42.5572 132.8303,42.1242 C132.4303,41.6922 131.8893,41.4762 131.2073,41.4762 M131.6603,51.4072 C129.7623,51.4072 128.2803,50.8832 127.2123,49.8352 C126.1433,48.7882 125.6093,47.3062 125.6093,45.3882 C125.6093,43.4132 126.1033,41.8862 127.0903,40.8072 C128.0773,39.7282 129.4433,39.1882 131.1863,39.1882 C132.8523,39.1882 134.1483,39.6632 135.0763,40.6122 C136.0043,41.5612 136.4683,42.8722 136.4683,44.5432 L136.4683,46.1042 L128.8673,46.1042 C128.9023,47.0182 129.1723,47.7312 129.6783,48.2442 C130.1853,48.7572 130.8943,49.0142 131.8083,49.0142 C132.5183,49.0142 133.1893,48.9402 133.8213,48.7922 C134.4543,48.6452 135.1153,48.4102 135.8033,48.0852 L135.8033,50.5742 C135.2413,50.8552 134.6403,51.0642 134.0013,51.2012 C133.3613,51.3382 132.5813,51.4072 131.6603,51.4072" id="Fill-19" fill="#FEFEFE" mask="url(#mask-2)"></path>
                <path d="M143.1858,48.8453 C143.7478,48.8453 144.4228,48.7223 145.2098,48.4763 L145.2098,50.8683 C144.4088,51.2273 143.4248,51.4073 142.2578,51.4073 C140.9718,51.4073 140.0358,51.0823 139.4488,50.4323 C138.8618,49.7823 138.5688,48.8063 138.5688,47.5063 L138.5688,41.8243 L137.0298,41.8243 L137.0298,40.4643 L138.8008,39.3893 L139.7278,36.9003 L141.7838,36.9003 L141.7838,39.4093 L145.0838,39.4093 L145.0838,41.8243 L141.7838,41.8243 L141.7838,47.5063 C141.7838,47.9633 141.9118,48.3013 142.1688,48.5183 C142.4248,48.7363 142.7638,48.8453 143.1858,48.8453" id="Fill-20" fill="#FEFEFE" mask="url(#mask-2)"></path>
                <path d="M146.565,51.1973 L149.78,51.1973 L149.78,39.4113 L146.565,39.4113 L146.565,51.1973 Z M146.428,36.3633 C146.428,35.3163 147.011,34.7923 148.178,34.7923 C149.345,34.7923 149.928,35.3163 149.928,36.3633 C149.928,36.8623 149.782,37.2503 149.491,37.5283 C149.199,37.8063 148.761,37.9453 148.178,37.9453 C147.011,37.9453 146.428,37.4163 146.428,36.3633 L146.428,36.3633 Z" id="Fill-21" fill="#FEFEFE" mask="url(#mask-2)"></path>
                <path d="M157.0525,41.4762 C156.3705,41.4762 155.8365,41.6922 155.4495,42.1242 C155.0635,42.5572 154.8415,43.1692 154.7855,43.9652 L159.2975,43.9652 C159.2835,43.1692 159.0765,42.5572 158.6755,42.1242 C158.2755,41.6922 157.7345,41.4762 157.0525,41.4762 M157.5055,51.4072 C155.6075,51.4072 154.1255,50.8832 153.0575,49.8352 C151.9885,48.7882 151.4545,47.3062 151.4545,45.3882 C151.4545,43.4132 151.9485,41.8862 152.9355,40.8072 C153.9225,39.7282 155.2885,39.1882 157.0315,39.1882 C158.6975,39.1882 159.9935,39.6632 160.9215,40.6122 C161.8495,41.5612 162.3135,42.8722 162.3135,44.5432 L162.3135,46.1042 L154.7125,46.1042 C154.7475,47.0182 155.0175,47.7312 155.5235,48.2442 C156.0305,48.7572 156.7395,49.0142 157.6535,49.0142 C158.3635,49.0142 159.0345,48.9402 159.6665,48.7922 C160.2995,48.6452 160.9605,48.4102 161.6485,48.0852 L161.6485,50.5742 C161.0865,50.8552 160.4855,51.0642 159.8465,51.2012 C159.2065,51.3382 158.4265,51.4072 157.5055,51.4072" id="Fill-22" fill="#FEFEFE" mask="url(#mask-2)"></path>
                <path d="M172.3992,47.6959 C172.3992,48.9049 171.9792,49.8259 171.1392,50.4589 C170.2992,51.0909 169.0432,51.4079 167.3702,51.4079 C166.5132,51.4079 165.7822,51.3479 165.1772,51.2319 C164.5732,51.1169 164.0072,50.9469 163.4802,50.7209 L163.4802,48.0649 C164.0782,48.3459 164.7512,48.5819 165.4992,48.7709 C166.2472,48.9619 166.9062,49.0559 167.4762,49.0559 C168.6422,49.0559 169.2262,48.7179 169.2262,48.0449 C169.2262,47.7919 169.1482,47.5859 168.9942,47.4259 C168.8392,47.2689 168.5722,47.0909 168.1932,46.8889 C167.8132,46.6889 167.3072,46.4559 166.6742,46.1879 C165.7682,45.8089 165.1022,45.4579 164.6772,45.1339 C164.2512,44.8109 163.9422,44.4399 163.7492,44.0209 C163.5562,43.6039 163.4592,43.0889 163.4592,42.4769 C163.4592,41.4299 163.8652,40.6209 164.6772,40.0479 C165.4892,39.4749 166.6392,39.1879 168.1292,39.1879 C169.5492,39.1879 170.9302,39.4979 172.2722,40.1169 L171.3032,42.4349 C170.7122,42.1819 170.1602,41.9739 169.6472,41.8139 C169.1342,41.6509 168.6102,41.5699 168.0772,41.5699 C167.1282,41.5699 166.6542,41.8279 166.6542,42.3409 C166.6542,42.6289 166.8062,42.8789 167.1122,43.0889 C167.4182,43.2999 168.0872,43.6119 169.1202,44.0269 C170.0412,44.3989 170.7162,44.7479 171.1452,45.0699 C171.5732,45.3939 171.8892,45.7659 172.0932,46.1879 C172.2972,46.6099 172.3992,47.1119 172.3992,47.6959" id="Fill-23" fill="#FEFEFE" mask="url(#mask-2)"></path>
                <path d="M43.0051,45.1578 L38.1621,45.2618 L36.4341,53.1788 L48.1261,49.4108 C45.7741,49.0048 43.8411,47.3588 43.0051,45.1578" id="Fill-24" fill="#C2489A" mask="url(#mask-2)"></path>
                <path d="M49.8064,39.8746 C49.5224,39.8746 49.2434,39.8536 48.9694,39.8186 L49.1554,45.0246 L45.3744,45.1066 L49.6764,48.9116 L48.1264,49.4106 C48.4944,49.4746 48.8714,49.5086 49.2574,49.5086 C50.3804,49.5086 51.4374,49.2286 52.3664,48.7326 L53.2854,38.8516 C52.2794,39.4976 51.0874,39.8746 49.8064,39.8746" id="Fill-25" fill="#C2489A" mask="url(#mask-2)"></path>
                <path d="M45.3743,45.1061 L43.0053,45.1581 C43.8413,47.3581 45.7743,49.0051 48.1263,49.4111 L49.6763,48.9121 L45.3743,45.1061 Z" id="Fill-26" fill="#99145B" mask="url(#mask-2)"></path>
                <path d="M42.5608,42.6178 C42.5898,40.6048 43.4828,38.8048 44.8808,37.5798 C44.3428,36.9448 43.9238,36.2038 43.6568,35.3918 C43.3878,35.4278 43.1148,35.4468 42.8378,35.4468 C40.9298,35.4468 39.2148,34.6088 38.0308,33.2768 L36.7408,33.3048 L37.1678,45.2838 L38.1618,45.2638 L39.3568,39.7838 L42.5608,42.6178 Z" id="Fill-27" fill="#C2489A" mask="url(#mask-2)"></path>
                <path d="M42.5583,42.7194 C42.5583,42.6854 42.5603,42.6524 42.5603,42.6174 L39.3573,39.7834 L38.1623,45.2624 L43.0053,45.1574 C42.7173,44.4014 42.5583,43.5784 42.5583,42.7194" id="Fill-28" fill="#99145B" mask="url(#mask-2)"></path>
                <path d="M44.8811,37.5807 C43.4831,38.8047 42.5901,40.6037 42.5611,42.6187 L45.3741,45.1057 L49.1551,45.0237 L48.9701,39.8177 C47.3391,39.6057 45.8991,38.7827 44.8811,37.5807" id="Fill-29" fill="#99145B" mask="url(#mask-2)"></path>
                <path d="M42.5583,42.7194 C42.5583,43.5784 42.7173,44.4014 43.0053,45.1574 L45.3743,45.1074 L42.5603,42.6174 C42.5603,42.6524 42.5583,42.6854 42.5583,42.7194" id="Fill-30" fill="#750A36" mask="url(#mask-2)"></path>
                <path d="M41.7737,22.423 L41.3697,19.916 L42.2607,19.759 C41.5097,18.716 41.0567,17.44 41.0247,16.059 L38.4177,16.644 L37.5497,12.484 L36.4977,11.869 L36.5677,25.649 L37.5767,25.077 C38.5537,23.694 40.0477,22.713 41.7737,22.423" id="Fill-31" fill="#D83637" mask="url(#mask-2)"></path>
                <path d="M59.5964,27.8546 L67.4604,30.8436 L66.7904,32.6876 L68.4864,31.9186 C69.3194,30.8146 69.8144,29.4346 69.8144,27.9366 C69.8144,26.5186 69.3704,25.2076 68.6174,24.1346 L62.9944,24.4796 L59.5964,27.8546 Z" id="Fill-32" fill="#F58951" mask="url(#mask-2)"></path>
                <path d="M49.1863,9.5734 C50.0823,9.8184 50.9023,10.2524 51.5993,10.8314 L52.5643,10.5754 L55.2113,1.4844 C54.0993,0.5774 52.6863,0.0344 51.1463,0.0344 C49.0213,0.0344 47.1343,1.0684 45.9523,2.6654 L47.6633,2.2814 L49.1863,9.5734 Z" id="Fill-33" fill="#F58951" mask="url(#mask-2)"></path>
                <path d="M53.6194,18.0328 C53.5344,18.2828 53.4364,18.5258 53.3244,18.7618 L55.0524,29.4848 C55.0844,29.5298 55.1164,29.5748 55.1474,29.6198 L56.2514,26.5828 L56.9664,26.8548 C57.0914,26.0848 57.3494,25.3608 57.7154,24.7068 L57.5224,20.5998 L57.2474,21.6038 L53.6194,18.0328 Z" id="Fill-34" fill="#F58951" mask="url(#mask-2)"></path>
                <path d="M57.7151,24.7067 C57.3491,25.3607 57.0911,26.0847 56.9661,26.8547 L59.5961,27.8547 L62.9941,24.4797 L57.7201,24.8037 L57.7151,24.7067 Z" id="Fill-35" fill="#F05A31" mask="url(#mask-2)"></path>
                <path d="M53.9368,16.5778 L55.4888,15.0368 L57.3458,16.8518 L57.1708,13.1328 L54.2718,12.3358 C53.9338,12.5238 53.5768,12.6818 53.2048,12.8078 C53.6928,13.7298 53.9708,14.7838 53.9708,15.9028 C53.9708,16.1308 53.9588,16.3558 53.9368,16.5778" id="Fill-36" fill="#F58951" mask="url(#mask-2)"></path>
                <path d="M52.2947,11.5016 L52.5647,10.5756 L51.5987,10.8316 C51.8467,11.0376 52.0797,11.2616 52.2947,11.5016" id="Fill-37" fill="#F05A31" mask="url(#mask-2)"></path>
                <path d="M52.6042,11.8766 C52.8292,12.1686 53.0302,12.4796 53.2052,12.8086 C53.5762,12.6826 53.9342,12.5246 54.2722,12.3356 L52.6042,11.8766 Z" id="Fill-38" fill="#F05A31" mask="url(#mask-2)"></path>
                <path d="M53.9368,16.5778 C53.8858,17.0818 53.7768,17.5688 53.6198,18.0328 L57.2468,21.6048 L57.5218,20.5998 L57.3458,16.8518 L55.4888,15.0368 L53.9368,16.5778 Z" id="Fill-39" fill="#F05A31" mask="url(#mask-2)"></path>
                <path d="M53.5779,29.9313 L49.0449,30.7333 C48.7959,31.5983 48.3769,32.3893 47.8249,33.0653 L48.7279,33.0463 L48.8319,35.9443 C48.9719,35.9353 49.1139,35.9293 49.2569,35.9293 C50.4499,35.9293 51.5679,36.2463 52.5379,36.7993 L54.6529,30.9823 L53.5779,29.9313 Z" id="Fill-40" fill="#D83637" mask="url(#mask-2)"></path>
                <path d="M52.157,37.8483 L52.538,36.7993 C51.569,36.2453 50.45,35.9283 49.257,35.9283 C49.114,35.9283 48.973,35.9343 48.832,35.9453 L48.97,39.8183 C49.244,39.8543 49.523,39.8743 49.806,39.8743 C51.087,39.8743 52.28,39.4973 53.285,38.8503 L53.337,38.2963 L52.157,37.8483 Z" id="Fill-41" fill="#D83637" mask="url(#mask-2)"></path>
                <path d="M48.7283,33.0455 L47.8253,33.0645 C46.8023,34.3185 45.3283,35.1775 43.6563,35.3925 C43.9233,36.2035 44.3423,36.9445 44.8813,37.5805 C45.9543,36.6395 47.3253,36.0395 48.8313,35.9435 L48.7283,33.0455 Z" id="Fill-42" fill="#A71D26" mask="url(#mask-2)"></path>
                <path d="M44.8811,37.5807 C45.8991,38.7827 47.3391,39.6057 48.9701,39.8177 L48.8321,35.9427 C47.3251,36.0397 45.9551,36.6407 44.8811,37.5807" id="Fill-43" fill="#801418" mask="url(#mask-2)"></path>
                <path d="M55.0525,29.4845 L55.0815,29.6655 L53.5785,29.9315 L54.6525,30.9825 L55.1485,29.6205 C55.1165,29.5745 55.0845,29.5295 55.0525,29.4845" id="Fill-44" fill="#D92526" mask="url(#mask-2)"></path>
                <path d="M43.5251,31.7101 L43.2771,31.7541 L41.8141,22.6761 L37.5761,25.0771 C36.8171,26.1521 36.3691,27.4671 36.3691,28.8901 C36.3691,30.5771 36.9981,32.1151 38.0311,33.2771 L43.3291,33.1621 C43.3421,32.6621 43.4081,32.1761 43.5251,31.7101" id="Fill-45" fill="#D83637" mask="url(#mask-2)"></path>
                <path d="M42.8376,35.4469 C43.1156,35.4469 43.3876,35.4259 43.6566,35.3919 C43.4426,34.7439 43.3256,34.0499 43.3256,33.3279 C43.3256,33.2719 43.3286,33.2179 43.3296,33.1629 L38.0306,33.2759 C39.2146,34.6079 40.9296,35.4469 42.8376,35.4469" id="Fill-46" fill="#A71D26" mask="url(#mask-2)"></path>
                <path d="M41.7737,22.423 C40.0477,22.713 38.5537,23.694 37.5767,25.077 L41.8147,22.676 L41.7737,22.423 Z" id="Fill-47" fill="#B41F24" mask="url(#mask-2)"></path>
                <path d="M49.0457,30.733 L43.5257,31.71 C43.4077,32.176 43.3417,32.662 43.3297,33.162 L47.8257,33.065 C48.3777,32.389 48.7957,31.597 49.0457,30.733" id="Fill-48" fill="#B41F24" mask="url(#mask-2)"></path>
                <path d="M47.8254,33.0651 L43.3294,33.1621 C43.3284,33.2171 43.3254,33.2721 43.3254,33.3271 C43.3254,34.0491 43.4434,34.7431 43.6564,35.3921 C45.3294,35.1781 46.8034,34.3181 47.8254,33.0651" id="Fill-49" fill="#8A171A" mask="url(#mask-2)"></path>
                <polygon id="Fill-50" fill="#D83637" mask="url(#mask-2)" points="68.0955 44.5768 64.9955 42.3738 64.2635 50.2488 60.1865 49.9318 69.7615 53.4018"></polygon>
                <path d="M64.571,42.0719 L63.624,41.3989 L63.366,42.1089 L54.751,38.8339 C55.51,39.9349 55.957,41.2739 55.957,42.7189 C55.957,45.3309 54.501,47.5969 52.367,48.7329 L52.312,49.3209 L60.186,49.9319 L56.682,48.6619 L64.571,42.0719 Z" id="Fill-51" fill="#D83637" mask="url(#mask-2)"></path>
                <path d="M55.9568,42.7194 C55.9568,41.2744 55.5098,39.9354 54.7508,38.8344 L53.8078,38.4764 C53.6398,38.6094 53.4658,38.7344 53.2848,38.8504 L52.3668,48.7334 C54.5008,47.5974 55.9568,45.3304 55.9568,42.7194" id="Fill-52" fill="#A71D26" mask="url(#mask-2)"></path>
                <path d="M53.2849,38.8502 C53.4659,38.7352 53.6399,38.6102 53.8079,38.4752 L53.3359,38.2962 L53.2849,38.8502 Z" id="Fill-53" fill="#8A171A" mask="url(#mask-2)"></path>
                <polygon id="Fill-54" fill="#B41F24" mask="url(#mask-2)" points="64.9954 42.3737 64.5704 42.0717 56.6824 48.6617 60.1864 49.9327 64.2634 50.2487"></polygon>
                <path d="M66.4177,33.7125 L64.7637,38.2635 L65.3727,38.3105 L65.0617,41.6615 L67.2067,39.8695 L68.0957,44.5765 L68.7147,45.0175 L69.8647,31.2945 L68.4867,31.9195 C67.9317,32.6545 67.2267,33.2695 66.4177,33.7125" id="Fill-55" fill="#E95C59" mask="url(#mask-2)"></path>
                <path d="M66.4177,33.7125 C67.2267,33.2695 67.9317,32.6545 68.4867,31.9195 L66.7907,32.6885 L66.4177,33.7125 Z" id="Fill-56" fill="#EE3C28" mask="url(#mask-2)"></path>
                <polygon id="Fill-57" fill="#C22026" mask="url(#mask-2)" points="65.0613 41.6617 64.9953 42.3747 68.0953 44.5767 67.2073 39.8697"></polygon>
                <polygon id="Fill-58" fill="#C22026" mask="url(#mask-2)" points="65.3728 38.3102 64.7638 38.2622 63.6238 41.3992 64.5708 42.0722 65.0618 41.6622"></polygon>
                <polygon id="Fill-59" fill="#A01C20" mask="url(#mask-2)" points="64.571 42.0719 64.996 42.3739 65.062 41.6619"></polygon>
                <polygon id="Fill-60" fill="#E95C59" mask="url(#mask-2)" points="53.0432 17.4655 49.6482 14.1235 42.9312 15.6315 48.1952 18.7085 52.5712 17.9345"></polygon>
                <path d="M42.9309,15.631 L41.0249,16.059 C41.0569,17.44 41.5099,18.716 42.2599,19.759 L48.1949,18.709 L42.9309,15.631 Z" id="Fill-61" fill="#C22026" mask="url(#mask-2)"></path>
                <path d="M51.5994,10.8312 C50.9014,10.2522 50.0824,9.8182 49.1864,9.5732 L49.5614,11.3712 L51.5994,10.8312 Z" id="Fill-62" fill="#EE3C28" mask="url(#mask-2)"></path>
                <path d="M53.3245,18.7614 C53.4375,18.5264 53.5355,18.2824 53.6195,18.0324 L53.0435,17.4654 L52.5715,17.9344 L53.1745,17.8274 L53.3245,18.7614 Z" id="Fill-63" fill="#EE3C28" mask="url(#mask-2)"></path>
                <path d="M53.9368,16.5778 C53.9588,16.3558 53.9708,16.1308 53.9708,15.9028 C53.9708,14.7838 53.6928,13.7298 53.2048,12.8078 C52.5578,13.0268 51.8658,13.1478 51.1458,13.1478 C50.7228,13.1478 50.3088,13.1048 49.9068,13.0268 L50.1138,14.0188 L49.6488,14.1228 L53.0428,17.4658 L53.9368,16.5778 Z" id="Fill-64" fill="#EE3C28" mask="url(#mask-2)"></path>
                <path d="M49.907,13.0265 C50.308,13.1055 50.722,13.1475 51.146,13.1475 C51.866,13.1475 52.558,13.0275 53.205,12.8085 C53.03,12.4795 52.829,12.1685 52.604,11.8765 L52.217,11.7695 L52.295,11.5015 C52.08,11.2615 51.847,11.0375 51.599,10.8315 L49.561,11.3715 L49.907,13.0265 Z" id="Fill-65" fill="#EC2C24" mask="url(#mask-2)"></path>
                <path d="M53.9368,16.5778 L53.0428,17.4658 L53.6198,18.0328 C53.7768,17.5688 53.8858,17.0818 53.9368,16.5778" id="Fill-66" fill="#EC2C24" mask="url(#mask-2)"></path>
                <path d="M45.4309,9.6891 C44.9409,8.7661 44.6619,7.7121 44.6619,6.5911 C44.6619,5.1191 45.1419,3.7601 45.9519,2.6661 L35.9669,4.9071 L37.5489,12.4851 L41.1509,14.5901 C41.6129,12.2881 43.2669,10.4261 45.4309,9.6891" id="Fill-67" fill="#E95C59" mask="url(#mask-2)"></path>
                <path d="M41.0251,16.0587 C41.0241,16.0067 41.0211,15.9557 41.0211,15.9027 C41.0211,15.4537 41.0661,15.0147 41.1511,14.5897 L37.5501,12.4847 L38.4181,16.6437 L41.0251,16.0587 Z" id="Fill-68" fill="#C22026" mask="url(#mask-2)"></path>
                <path d="M45.4309,9.6891 C46.0799,9.4681 46.7739,9.3471 47.4959,9.3471 C48.0809,9.3471 48.6469,9.4261 49.1859,9.5741 L47.6639,2.2821 L45.9519,2.6661 C45.1419,3.7601 44.6619,5.1191 44.6619,6.5911 C44.6619,7.7121 44.9409,8.7661 45.4309,9.6891" id="Fill-69" fill="#EE3C28" mask="url(#mask-2)"></path>
                <path d="M49.6482,14.1232 L47.5162,12.0242 C46.6482,11.4302 45.9302,10.6282 45.4312,9.6892 C43.2662,10.4262 41.6132,12.2882 41.1512,14.5902 L42.9302,15.6312 L49.6482,14.1232 Z" id="Fill-70" fill="#D12629" mask="url(#mask-2)"></path>
                <path d="M41.1511,14.5905 C41.0661,15.0145 41.0211,15.4535 41.0211,15.9035 C41.0211,15.9555 41.0241,16.0065 41.0251,16.0595 L42.9311,15.6315 L41.1511,14.5905 Z" id="Fill-71" fill="#AD1E23" mask="url(#mask-2)"></path>
                <path d="M47.5168,12.0245 L47.4278,11.9365 L49.5618,11.3715 L49.1858,9.5735 C48.6468,9.4265 48.0808,9.3465 47.4958,9.3465 C46.7738,9.3465 46.0798,9.4675 45.4308,9.6885 C45.9298,10.6275 46.6478,11.4305 47.5168,12.0245" id="Fill-72" fill="#D12026" mask="url(#mask-2)"></path>
                <path d="M49.907,13.0265 C49.036,12.8555 48.226,12.5105 47.517,12.0245 L49.648,14.1235 L50.114,14.0185 L49.907,13.0265 Z" id="Fill-73" fill="#D12026" mask="url(#mask-2)"></path>
                <path d="M49.5613,11.3712 L47.4273,11.9372 L47.5163,12.0242 C48.2253,12.5102 49.0353,12.8552 49.9073,13.0262 L49.5613,11.3712 Z" id="Fill-74" fill="#D12026" mask="url(#mask-2)"></path>
                <path d="M62.844,34.4772 C60.265,34.2762 58.11,32.5432 57.263,30.1722 L56.007,31.4192 C56.189,32.0232 56.288,32.6632 56.288,33.3282 C56.288,34.9092 55.733,36.3582 54.809,37.4912 L58.531,37.7782 L57.375,36.9572 L62.844,34.4772 Z" id="Fill-75" fill="#E95C59" mask="url(#mask-2)"></path>
                <path d="M62.844,34.4772 L66.79,32.6872 L67.461,30.8432 L59.596,27.8542 L57.263,30.1722 C58.11,32.5432 60.265,34.2762 62.844,34.4772" id="Fill-76" fill="#EE3C28" mask="url(#mask-2)"></path>
                <path d="M55.1477,29.6202 C55.5197,30.1662 55.8117,30.7712 56.0067,31.4192 L57.2627,30.1722 C57.0137,29.4742 56.8767,28.7222 56.8767,27.9362 C56.8767,27.5682 56.9077,27.2072 56.9657,26.8552 L56.2517,26.5832 L55.1477,29.6202 Z" id="Fill-77" fill="#EE3C28" mask="url(#mask-2)"></path>
                <path d="M56.8767,27.9362 C56.8767,28.7212 57.0127,29.4742 57.2627,30.1722 L59.5957,27.8542 L56.9657,26.8542 C56.9077,27.2072 56.8767,27.5672 56.8767,27.9362" id="Fill-78" fill="#EC2C24" mask="url(#mask-2)"></path>
                <path d="M56.0071,31.4196 L55.5571,31.8666 L54.6531,30.9826 L52.5381,36.7996 C52.8481,36.9766 53.1431,37.1776 53.4201,37.4006 L53.4211,37.3826 L54.8091,37.4906 C55.7331,36.3586 56.2871,34.9086 56.2871,33.3276 C56.2871,32.6636 56.1891,32.0236 56.0071,31.4196" id="Fill-79" fill="#C22026" mask="url(#mask-2)"></path>
                <path d="M52.157,37.8483 L53.337,38.2963 L53.42,37.4003 C53.143,37.1773 52.848,36.9763 52.538,36.7993 L52.157,37.8483 Z" id="Fill-80" fill="#951A1D" mask="url(#mask-2)"></path>
                <path d="M54.6526,30.9821 L55.5566,31.8661 L56.0066,31.4191 C55.8116,30.7711 55.5196,30.1661 55.1476,29.6201 L54.6526,30.9821 Z" id="Fill-81" fill="#C22026" mask="url(#mask-2)"></path>
                <path d="M54.8093,37.4899 C54.6213,37.7199 54.4183,37.9359 54.2013,38.1379 C54.3993,38.3569 54.5823,38.5909 54.7513,38.8339 L63.3663,42.1089 L63.6243,41.3989 L58.5313,37.7789 L54.8093,37.4899 Z" id="Fill-82" fill="#C22026" mask="url(#mask-2)"></path>
                <path d="M53.8079,38.4762 L54.7509,38.8332 C54.5829,38.5902 54.3999,38.3572 54.2019,38.1382 C54.0749,38.2562 53.9439,38.3682 53.8079,38.4762" id="Fill-83" fill="#951A1D" mask="url(#mask-2)"></path>
                <path d="M53.4197,37.401 C53.6987,37.626 53.9607,37.872 54.2017,38.137 C54.4177,37.935 54.6217,37.719 54.8087,37.49 L53.4217,37.382 L53.4197,37.401 Z" id="Fill-84" fill="#A01C20" mask="url(#mask-2)"></path>
                <path d="M53.4197,37.401 L53.3367,38.297 L53.8077,38.475 C53.9437,38.369 54.0747,38.255 54.2017,38.137 C53.9607,37.872 53.6987,37.626 53.4197,37.401" id="Fill-85" fill="#7A1315" mask="url(#mask-2)"></path>
                <path d="M62.844,34.4772 L57.375,36.9572 L58.531,37.7782 L64.764,38.2622 L66.418,33.7122 C65.504,34.2142 64.458,34.4992 63.346,34.4992 C63.177,34.4992 63.01,34.4912 62.844,34.4772" id="Fill-86" fill="#D12629" mask="url(#mask-2)"></path>
                <path d="M63.3459,34.4987 C64.4579,34.4987 65.5039,34.2137 66.4179,33.7127 L66.7909,32.6877 L62.8439,34.4777 C63.0099,34.4897 63.1769,34.4987 63.3459,34.4987" id="Fill-87" fill="#D12026" mask="url(#mask-2)"></path>
                <polygon id="Fill-88" fill="#AD1E23" mask="url(#mask-2)" points="58.531 37.7789 63.624 41.3989 64.764 38.2629"></polygon>
                <path d="M50.3835,26.8073 L46.9845,23.4833 L48.0405,22.4353 C47.8605,22.4503 47.6795,22.4593 47.4965,22.4593 C46.2135,22.4593 45.0195,22.0803 44.0135,21.4293 L42.3875,22.3513 C42.5365,22.3413 42.6865,22.3333 42.8375,22.3333 C45.7025,22.3333 48.1295,24.2213 48.9805,26.8353 C49.2515,26.8003 49.5265,26.7803 49.8065,26.7803 C50.0015,26.7803 50.1935,26.7903 50.3835,26.8073" id="Fill-89" fill="#E95C59" mask="url(#mask-2)"></path>
                <path d="M44.0134,21.4293 C43.3314,20.9873 42.7364,20.4203 42.2604,19.7593 L41.3694,19.9163 L41.7734,22.4233 C41.9754,22.3893 42.1794,22.3653 42.3864,22.3513 L44.0134,21.4293 Z" id="Fill-90" fill="#C22026" mask="url(#mask-2)"></path>
                <path d="M55.0525,29.4845 L53.3245,18.7615 C52.3505,20.7935 50.3705,22.2385 48.0395,22.4345 L46.9845,23.4835 L50.3835,26.8075 C52.3025,26.9785 53.9805,27.9935 55.0525,29.4845" id="Fill-91" fill="#EE3C28" mask="url(#mask-2)"></path>
                <path d="M50.3835,26.8073 C50.1935,26.7903 50.0015,26.7803 49.8065,26.7803 C49.5265,26.7803 49.2515,26.8003 48.9805,26.8353 C49.1915,27.4813 49.3065,28.1723 49.3065,28.8903 C49.3065,29.5303 49.2145,30.1483 49.0455,30.7333 L53.5785,29.9313 L50.3835,26.8073 Z" id="Fill-92" fill="#C22026" mask="url(#mask-2)"></path>
                <path d="M55.0525,29.4845 C53.9805,27.9935 52.3025,26.9785 50.3835,26.8075 L53.5785,29.9315 L55.0815,29.6655 L55.0525,29.4845 Z" id="Fill-93" fill="#C22026" mask="url(#mask-2)"></path>
                <path d="M48.9807,26.8346 C48.1297,24.2206 45.7017,22.3336 42.8377,22.3336 C42.6867,22.3336 42.5367,22.3406 42.3877,22.3506 L41.8147,22.6756 L43.2777,31.7536 L43.5257,31.7096 C44.1727,29.1386 46.3257,27.1756 48.9807,26.8346" id="Fill-94" fill="#C22026" mask="url(#mask-2)"></path>
                <path d="M41.7737,22.423 L41.8147,22.676 L42.3877,22.351 C42.1797,22.365 41.9747,22.389 41.7737,22.423" id="Fill-95" fill="#A01C20" mask="url(#mask-2)"></path>
                <path d="M49.3064,28.8898 C49.3064,28.1718 49.1904,27.4808 48.9804,26.8348 C46.3254,27.1758 44.1714,29.1378 43.5254,31.7098 L49.0454,30.7328 C49.2144,30.1478 49.3064,29.5298 49.3064,28.8898" id="Fill-96" fill="#A01C20" mask="url(#mask-2)"></path>
                <path d="M48.0398,22.4347 L52.5708,17.9347 L48.1948,18.7087 L48.4988,18.8867 L44.0138,21.4297 C45.0188,22.0807 46.2138,22.4597 47.4958,22.4597 C47.6788,22.4597 47.8598,22.4497 48.0398,22.4347" id="Fill-97" fill="#D12629" mask="url(#mask-2)"></path>
                <path d="M44.0134,21.4293 L48.4994,18.8873 L48.1944,18.7093 L42.2604,19.7593 C42.7364,20.4203 43.3314,20.9873 44.0134,21.4293" id="Fill-98" fill="#AD1E23" mask="url(#mask-2)"></path>
                <path d="M53.3245,18.7614 L53.1745,17.8274 L52.5715,17.9344 L48.0405,22.4344 C50.3705,22.2384 52.3505,20.7934 53.3245,18.7614" id="Fill-99" fill="#D12026" mask="url(#mask-2)"></path>
                <path d="M63.7854,14.9142 L63.7744,14.9502 L59.3974,13.7452 L58.2934,17.7792 L62.0964,21.4972 C62.5004,21.4172 62.9184,21.3742 63.3454,21.3742 C65.5214,21.3742 67.4444,22.4642 68.6174,24.1342 L69.6824,24.0692 L69.1194,12.0902 L68.1564,12.1492 L67.3444,17.7832 L63.7854,14.9142 Z" id="Fill-100" fill="#FAAC2B" mask="url(#mask-2)"></path>
                <path d="M63.3459,21.3737 C62.9179,21.3737 62.5009,21.4167 62.0959,21.4967 L64.0619,23.4197 L62.9939,24.4797 L68.6169,24.1347 C67.4439,22.4637 65.5209,21.3737 63.3459,21.3737" id="Fill-101" fill="#F16A2A" mask="url(#mask-2)"></path>
                <path d="M57.7151,24.7067 C58.6291,23.0697 60.2161,21.8707 62.0961,21.4977 L58.2931,17.7787 L57.5221,20.5997 L57.7151,24.7067 Z" id="Fill-102" fill="#F16A2A" mask="url(#mask-2)"></path>
                <path d="M57.7151,24.7067 L57.7201,24.8037 L62.9941,24.4797 L64.0621,23.4197 L62.0961,21.4977 C60.2161,21.8707 58.6291,23.0697 57.7151,24.7067" id="Fill-103" fill="#EF4A2B" mask="url(#mask-2)"></path>
                <polygon id="Fill-104" fill="#F16A2A" mask="url(#mask-2)" points="57.3459 16.8522 58.2939 17.7792 59.3979 13.7462 57.1709 13.1332"></polygon>
                <polygon id="Fill-105" fill="#EF4A2B" mask="url(#mask-2)" points="57.5222 20.5992 58.2942 17.7792 57.3462 16.8512"></polygon>
                <polygon id="Fill-106" fill="#FAAC2B" mask="url(#mask-2)" points="68.1565 12.1491 69.3105 4.1411 66.6225 5.1731 64.5255 12.3721"></polygon>
                <polygon id="Fill-107" fill="#F37D2A" mask="url(#mask-2)" points="63.7854 14.9142 67.3444 17.7832 68.1564 12.1492 64.5254 12.3722"></polygon>
                <path d="M57.6301,6.5909 C57.6301,7.3539 57.5001,8.0859 57.2631,8.7669 L66.6221,5.1729 L67.1271,3.4389 L55.5691,0.2579 L55.2111,1.4849 C56.6861,2.6869 57.6301,4.5269 57.6301,6.5909" id="Fill-108" fill="#FAAC2B" mask="url(#mask-2)"></path>
                <polygon id="Fill-109" fill="#FAAC2B" mask="url(#mask-2)" points="60.9084 12.5944 59.9284 11.8044 59.6924 12.6694"></polygon>
                <path d="M56.9597,9.4108 L56.5167,9.0528 L57.2627,8.7668 C57.4997,8.0858 57.6307,7.3538 57.6307,6.5908 C57.6307,4.5268 56.6857,2.6868 55.2117,1.4848 L52.5647,10.5758 L56.9597,9.4108 Z" id="Fill-110" fill="#F16A2A" mask="url(#mask-2)"></path>
                <path d="M54.2722,12.3356 L57.1702,13.1326 L57.1562,12.8256 L59.6922,12.6696 L59.9282,11.8046 L56.9902,9.4356 C56.4042,10.6646 55.4492,11.6786 54.2722,12.3356" id="Fill-111" fill="#F16A2A" mask="url(#mask-2)"></path>
                <path d="M52.6042,11.8766 L54.2722,12.3356 C55.4502,11.6796 56.4042,10.6636 56.9902,9.4356 L56.9602,9.4116 L52.5642,10.5756 L52.2952,11.5016 C52.4032,11.6226 52.5052,11.7476 52.6042,11.8766" id="Fill-112" fill="#EF4A2B" mask="url(#mask-2)"></path>
                <path d="M52.2166,11.7697 L52.6046,11.8767 C52.5046,11.7477 52.4026,11.6217 52.2946,11.5017 L52.2166,11.7697 Z" id="Fill-113" fill="#EC2824" mask="url(#mask-2)"></path>
                <polygon id="Fill-114" fill="#F37D2A" mask="url(#mask-2)" points="59.3972 13.7457 63.7752 14.9497 63.7852 14.9147 60.9082 12.5947 59.6922 12.6697"></polygon>
                <polygon id="Fill-115" fill="#EF542A" mask="url(#mask-2)" points="57.1565 12.8248 57.1715 13.1328 59.3975 13.7458 59.6925 12.6688"></polygon>
                <path d="M57.0061,9.3986 L60.8661,8.3756 L59.9281,11.8046 L60.9081,12.5946 L64.5251,12.3726 L66.6221,5.1726 L57.2631,8.7666 C57.1871,8.9826 57.1021,9.1936 57.0061,9.3986" id="Fill-116" fill="#F37D2A" mask="url(#mask-2)"></path>
                <path d="M57.2629,8.7667 L56.5159,9.0537 L56.9599,9.4107 L57.0059,9.3987 C57.1029,9.1937 57.1879,8.9827 57.2629,8.7667" id="Fill-117" fill="#EF542A" mask="url(#mask-2)"></path>
                <path d="M59.9285,11.8048 L60.8665,8.3758 L57.0065,9.3988 C57.0005,9.4108 56.9955,9.4238 56.9895,9.4358 L59.9285,11.8048 Z" id="Fill-118" fill="#EF542A" mask="url(#mask-2)"></path>
                <path d="M57.0061,9.3986 L56.9601,9.4106 L56.9901,9.4356 C56.9951,9.4236 57.0001,9.4106 57.0061,9.3986" id="Fill-119" fill="#FAAC2B" mask="url(#mask-2)"></path>
                <polygon id="Fill-120" fill="#F06129" mask="url(#mask-2)" points="64.5256 12.3722 60.9086 12.5942 63.7856 14.9142"></polygon>
                <path d="M26.8669,23.5094 L29.9639,24.9384 L25.2489,28.1944 C27.2819,29.1204 28.7569,31.0794 29.0279,33.4144 L34.2179,30.8134 L34.2169,30.8324 C34.4779,30.1214 34.6209,29.3514 34.6209,28.5474 C34.6209,27.3454 34.3009,26.2204 33.7449,25.2514 L28.3119,22.7534 L26.8669,23.5094 Z" id="Fill-121" fill="#27C0D8" mask="url(#mask-2)"></path>
                <path d="M14.6365,13.1285 L14.7895,13.7835 L12.0125,14.4785 C12.8255,15.1995 13.4665,16.1145 13.8675,17.1525 C14.2365,17.0865 14.6145,17.0495 15.0005,17.0495 C15.3655,17.0495 15.7225,17.0825 16.0705,17.1405 L15.4655,15.9415 L21.1405,12.9695 L21.4195,10.4315 L19.1805,12.9955 L18.3345,10.4895 L18.2375,10.5105 C17.3895,11.7675 16.1205,12.7095 14.6365,13.1285" id="Fill-122" fill="#27C0D8" mask="url(#mask-2)"></path>
                <path d="M8.2512,45.2076 C7.6842,45.3716 7.0872,45.4626 6.4682,45.4626 C4.9472,45.4626 3.5492,44.9286 2.4442,44.0356 L0.7152,53.9806 L12.7522,49.5216 C10.6252,48.9546 8.9272,47.3156 8.2512,45.2076" id="Fill-123" fill="#A7C350" mask="url(#mask-2)"></path>
                <path d="M18.3767,39.8834 L16.3617,42.6834 L12.8347,40.0604 C12.4287,42.3684 10.8347,44.2594 8.7147,45.0554 L13.7577,49.1494 L12.7517,49.5214 C13.2767,49.6614 13.8277,49.7364 14.3957,49.7364 C15.6887,49.7364 16.8907,49.3504 17.9007,48.6874 L17.1867,48.6004 L18.3767,39.8834 Z" id="Fill-124" fill="#A7C350" mask="url(#mask-2)"></path>
                <path d="M8.7146,45.0553 C8.5626,45.1133 8.4076,45.1623 8.2506,45.2083 C8.9276,47.3163 10.6246,48.9553 12.7516,49.5213 L13.7566,49.1493 L8.7146,45.0553 Z" id="Fill-125" fill="#76973C" mask="url(#mask-2)"></path>
                <path d="M8.073,44.5348 C7.982,44.0958 7.933,43.6398 7.933,43.1748 C7.933,41.1508 8.835,39.3438 10.252,38.1388 L6.739,35.5278 L6.758,35.5018 L1.278,34.9818 C0.475,36.0758 0,37.4308 0,38.8998 C0,40.9798 0.955,42.8338 2.444,44.0358 L3.064,40.4688 L8.073,44.5348 Z" id="Fill-126" fill="#A7C350" mask="url(#mask-2)"></path>
                <path d="M8.2512,45.2076 C8.1812,44.9876 8.1212,44.7646 8.0732,44.5336 L3.0642,40.4686 L2.4442,44.0356 C3.5492,44.9286 4.9472,45.4626 6.4682,45.4626 C7.0872,45.4626 7.6842,45.3716 8.2512,45.2076" id="Fill-127" fill="#76973C" mask="url(#mask-2)"></path>
                <path d="M7.9333,43.1744 C7.9333,43.6404 7.9823,44.0954 8.0733,44.5334 L8.7153,45.0554 C10.8343,44.2594 12.4283,42.3674 12.8343,40.0604 L10.2513,38.1394 C8.8353,39.3434 7.9333,41.1514 7.9333,43.1744" id="Fill-128" fill="#76973C" mask="url(#mask-2)"></path>
                <path d="M8.2512,45.2076 C8.4082,45.1616 8.5632,45.1116 8.7152,45.0556 L8.0732,44.5336 C8.1212,44.7646 8.1812,44.9876 8.2512,45.2076" id="Fill-129" fill="#527434" mask="url(#mask-2)"></path>
                <path d="M14.219,11.3458 L18.237,10.5098 C18.26,10.4758 18.283,10.4398 18.305,10.4048 L15.004,0.6208 C14.343,0.3908 13.636,0.2628 12.898,0.2628 C10.626,0.2628 8.63,1.4528 7.478,3.2498 L12.057,2.1038 L14.219,11.3458 Z" id="Fill-130" fill="#27C0D8" mask="url(#mask-2)"></path>
                <path d="M18.2371,10.5104 L14.2191,11.3464 L14.6361,13.1284 C16.1201,12.7094 17.3891,11.7684 18.2371,10.5104" id="Fill-131" fill="#1490A3" mask="url(#mask-2)"></path>
                <path d="M18.3606,29.234 C18.4006,29.199 18.4396,29.163 18.4806,29.129 C18.4336,29.159 18.3876,29.19 18.3406,29.219 L18.3606,29.234 Z" id="Fill-132" fill="#006B63" mask="url(#mask-2)"></path>
                <path d="M20.7913,26.5079 C20.3863,27.3389 19.8143,28.0709 19.1183,28.6569 C19.9013,28.1469 20.8003,27.8039 21.7663,27.6769 C21.8463,27.0639 22.0093,26.4769 22.2443,25.9289 L20.8643,26.6519 L20.7913,26.5079 Z" id="Fill-133" fill="#27C0D8" mask="url(#mask-2)"></path>
                <path d="M21.7659,27.6769 C22.0409,27.6409 22.3209,27.6199 22.6049,27.6199 C23.5479,27.6199 24.4419,27.8259 25.2489,28.1939 L29.9639,24.9389 L26.8669,23.5099 L22.2439,25.9289 C22.0089,26.4769 21.8459,27.0639 21.7659,27.6769" id="Fill-134" fill="#1490A3" mask="url(#mask-2)"></path>
                <path d="M18.2463,29.3351 L18.2413,29.2761 C17.2893,29.8391 16.1823,30.1631 15.0003,30.1631 C14.3233,30.1631 13.6703,30.0571 13.0563,29.8601 L12.3783,36.0351 L12.2853,36.0261 C12.4143,36.2961 12.5253,36.5761 12.6183,36.8651 C13.1833,36.7011 13.7793,36.6111 14.3963,36.6111 C15.2443,36.6111 16.0543,36.7791 16.7963,37.0811 C16.3743,36.2081 16.1363,35.2271 16.1363,34.1881 C16.1363,32.2661 16.9493,30.5361 18.2463,29.3351" id="Fill-135" fill="#65B945" mask="url(#mask-2)"></path>
                <path d="M16.7966,37.0807 C16.0546,36.7787 15.2446,36.6107 14.3956,36.6107 C13.7796,36.6107 13.1836,36.7007 12.6186,36.8647 C12.8246,37.5067 12.9376,38.1887 12.9376,38.8997 C12.9376,39.2967 12.9006,39.6837 12.8346,40.0597 L16.3616,42.6837 L18.3766,39.8837 L18.4646,39.2347 C17.7706,38.6467 17.1996,37.9137 16.7966,37.0807" id="Fill-136" fill="#498D40" mask="url(#mask-2)"></path>
                <path d="M12.2849,36.026 L6.7579,35.503 L6.7389,35.528 L10.2519,38.139 C10.9349,37.559 11.7389,37.12 12.6189,36.865 C12.5259,36.576 12.4149,36.297 12.2849,36.026" id="Fill-137" fill="#498D40" mask="url(#mask-2)"></path>
                <path d="M12.6189,36.8649 C11.7389,37.1199 10.9349,37.5589 10.2519,38.1399 L12.8349,40.0599 C12.9009,39.6839 12.9379,39.2959 12.9379,38.8999 C12.9379,38.1889 12.8249,37.5059 12.6189,36.8649" id="Fill-138" fill="#316B34" mask="url(#mask-2)"></path>
                <path d="M18.3401,29.2189 C18.3081,29.2389 18.2741,29.2569 18.2411,29.2769 L18.2461,29.3349 C18.2831,29.3009 18.3221,29.2679 18.3601,29.2339 L18.3401,29.2189 Z" id="Fill-139" fill="#006433" mask="url(#mask-2)"></path>
                <path d="M6.4685,32.3375 C7.2665,32.3375 8.0305,32.4845 8.7365,32.7535 L11.4015,29.0505 C10.4265,28.3845 9.6415,27.4555 9.1425,26.3635 C8.6325,26.4885 8.0995,26.5555 7.5515,26.5555 C5.0815,26.5555 2.9205,25.2155 1.7345,23.2125 L0.4505,34.9035 L1.2785,34.9825 C2.4575,33.3775 4.3435,32.3375 6.4685,32.3375" id="Fill-140" fill="#65B945" mask="url(#mask-2)"></path>
                <path d="M8.7361,32.7531 C8.0301,32.4851 7.2661,32.3371 6.4681,32.3371 C4.3431,32.3371 2.4571,33.3771 1.2781,34.9831 L6.7581,35.5021 L8.7361,32.7531 Z" id="Fill-141" fill="#498D40" mask="url(#mask-2)"></path>
                <path d="M12.2849,36.026 L12.3779,36.035 L13.0569,29.86 C12.4629,29.67 11.9069,29.396 11.4009,29.05 L8.7359,32.753 C10.2909,33.344 11.5629,34.524 12.2849,36.026" id="Fill-142" fill="#2E803E" mask="url(#mask-2)"></path>
                <path d="M8.7361,32.7531 L6.7581,35.5021 L12.2851,36.0261 C11.5621,34.5241 10.2911,33.3441 8.7361,32.7531" id="Fill-143" fill="#1C6131" mask="url(#mask-2)"></path>
                <polygon id="Fill-144" fill="#65B945" mask="url(#mask-2)" points="30.2205 42.3659 30.1205 42.4319 29.0815 50.0439 26.9905 49.7899 34.9395 53.6779 33.8415 39.9439 33.8045 39.9679 33.5965 44.5769"></polygon>
                <path d="M22.4451,47.567 L30.1201,42.432 L30.1371,42.311 L26.1371,39.691 C25.1211,40.364 23.9081,40.757 22.6051,40.757 C21.7551,40.757 20.9431,40.588 20.2001,40.286 C20.6211,41.158 20.8591,42.138 20.8591,43.174 C20.8591,45.486 19.6801,47.518 17.9001,48.687 L26.9911,49.79 L22.4451,47.567 Z" id="Fill-145" fill="#65B945" mask="url(#mask-2)"></path>
                <path d="M20.8586,43.1744 C20.8586,42.1384 20.6216,41.1574 20.1996,40.2854 C19.6616,40.0674 19.1596,39.7784 18.7036,39.4284 L18.3766,39.8834 L17.1866,48.6004 L17.9006,48.6874 C19.6796,47.5184 20.8586,45.4864 20.8586,43.1744" id="Fill-146" fill="#498D40" mask="url(#mask-2)"></path>
                <path d="M18.3767,39.8834 L18.7047,39.4284 C18.6237,39.3654 18.5437,39.3014 18.4657,39.2354 L18.3767,39.8834 Z" id="Fill-147" fill="#468A3F" mask="url(#mask-2)"></path>
                <polygon id="Fill-148" fill="#2E803E" mask="url(#mask-2)" points="30.1204 42.4323 22.4454 47.5673 26.9904 49.7903 29.0814 50.0433"></polygon>
                <path d="M29.0173,35.0446 C28.8863,36.0656 28.5263,37.0126 27.9893,37.8296 L30.7033,38.1586 L30.1373,42.3116 L30.2203,42.3656 L33.8043,39.9676 L34.2173,30.8326 C33.3983,33.0666 31.4153,34.7236 29.0173,35.0446" id="Fill-149" fill="#0B8F7C" mask="url(#mask-2)"></path>
                <path d="M29.0276,33.4137 C29.0566,33.6677 29.0736,33.9267 29.0736,34.1887 C29.0736,34.4787 29.0536,34.7657 29.0176,35.0447 C31.4156,34.7237 33.3986,33.0657 34.2176,30.8327 L34.2176,30.8127 L29.0276,33.4137 Z" id="Fill-150" fill="#006B63" mask="url(#mask-2)"></path>
                <polygon id="Fill-151" fill="#006433" mask="url(#mask-2)" points="33.5959 44.5768 33.8039 39.9688 30.2199 42.3658"></polygon>
                <path d="M27.989,37.8297 C27.502,38.5687 26.871,39.2037 26.137,39.6897 L30.137,42.3107 L30.704,38.1577 L27.989,37.8297 Z" id="Fill-152" fill="#006433" mask="url(#mask-2)"></path>
                <path d="M7.5515,12.778 C8.2505,12.778 8.9235,12.885 9.5585,13.085 L8.9935,12.433 L9.4255,12.343 C7.6285,11.179 6.4355,9.14 6.4355,6.817 C6.4355,5.501 6.8195,4.277 7.4775,3.25 L0.4325,5.013 L2.7285,14.823 C3.9585,13.561 5.6645,12.778 7.5515,12.778" id="Fill-153" fill="#0B8F7C" mask="url(#mask-2)"></path>
                <path d="M14.7898,13.7838 L14.6368,13.1288 C14.0838,13.2848 13.5008,13.3708 12.8988,13.3708 C11.6198,13.3708 10.4288,12.9918 9.4258,12.3428 L8.9938,12.4328 L9.5578,13.0848 C10.4748,13.3718 11.3078,13.8528 12.0128,14.4788 L14.7898,13.7838 Z" id="Fill-154" fill="#006B63" mask="url(#mask-2)"></path>
                <path d="M9.4255,12.3429 L14.2185,11.3459 L12.0565,2.1039 L7.4775,3.2499 C6.8195,4.2769 6.4355,5.5009 6.4355,6.8169 C6.4355,9.1399 7.6285,11.1789 9.4255,12.3429" id="Fill-155" fill="#006B63" mask="url(#mask-2)"></path>
                <path d="M14.6365,13.1285 L14.2195,11.3455 L9.4255,12.3425 C10.4295,12.9925 11.6195,13.3705 12.8985,13.3705 C13.5005,13.3705 14.0835,13.2845 14.6365,13.1285" id="Fill-156" fill="#004E4D" mask="url(#mask-2)"></path>
                <path d="M8.5447,23.6237 C8.5447,23.6177 8.5437,23.6127 8.5437,23.6067 C8.5437,20.6147 10.5197,18.0917 13.2167,17.3057 L10.9887,14.7347 L3.1657,16.6917 L2.7287,14.8237 C1.5167,16.0677 0.7677,17.7787 0.7677,19.6667 C0.7677,20.9637 1.1207,22.1767 1.7347,23.2117 L1.7597,22.9807 L8.5447,23.6237 Z" id="Fill-157" fill="#0B8F7C" mask="url(#mask-2)"></path>
                <path d="M12.0125,14.4786 L10.9885,14.7346 L13.2165,17.3056 C13.4295,17.2436 13.6465,17.1926 13.8685,17.1526 C13.4675,16.1146 12.8255,15.1996 12.0125,14.4786" id="Fill-158" fill="#006B63" mask="url(#mask-2)"></path>
                <path d="M7.5515,26.5558 C8.0995,26.5558 8.6315,26.4878 9.1425,26.3638 C8.7615,25.5298 8.5465,24.6018 8.5445,23.6238 L1.7595,22.9798 L1.7335,23.2118 C2.9205,25.2148 5.0815,26.5558 7.5515,26.5558" id="Fill-159" fill="#006433" mask="url(#mask-2)"></path>
                <path d="M10.9885,14.735 L9.5585,13.084 C8.9235,12.885 8.2495,12.778 7.5515,12.778 C5.6645,12.778 3.9575,13.561 2.7285,14.823 L3.1655,16.692 L10.9885,14.735 Z" id="Fill-160" fill="#005139" mask="url(#mask-2)"></path>
                <path d="M9.5583,13.0846 L10.9883,14.7356 L12.0123,14.4786 C11.3073,13.8536 10.4753,13.3726 9.5583,13.0846" id="Fill-161" fill="#004134" mask="url(#mask-2)"></path>
                <path d="M26.2439,34.8082 C24.2069,34.1642 22.6029,32.5242 21.9839,30.4492 L20.9529,31.1622 L23.3629,32.9542 L20.5079,36.9212 L22.2289,37.1302 L21.9609,36.9542 L26.2439,34.8082 Z" id="Fill-162" fill="#0B8F7C" mask="url(#mask-2)"></path>
                <path d="M26.2439,34.8082 L29.0279,33.4132 C28.7569,31.0792 27.2819,29.1202 25.2489,28.1932 L21.9839,30.4492 C22.6029,32.5242 24.2069,34.1642 26.2439,34.8082" id="Fill-163" fill="#006B63" mask="url(#mask-2)"></path>
                <path d="M18.4802,29.1285 C18.4392,29.1625 18.4002,29.1985 18.3602,29.2335 L20.9522,31.1615 L21.9842,30.4485 C21.8052,29.8465 21.7072,29.2085 21.7072,28.5475 C21.7072,28.2515 21.7282,27.9615 21.7652,27.6765 C20.8002,27.8035 19.9022,28.1465 19.1182,28.6565 C18.9162,28.8275 18.7022,28.9845 18.4802,29.1285" id="Fill-164" fill="#006B63" mask="url(#mask-2)"></path>
                <path d="M21.7659,27.6769 C21.7289,27.9619 21.7079,28.2519 21.7079,28.5469 C21.7079,29.2089 21.8049,29.8469 21.9839,30.4489 L25.2489,28.1939 C24.4419,27.8259 23.5479,27.6199 22.6049,27.6199 C22.3209,27.6199 22.0409,27.6409 21.7659,27.6769" id="Fill-165" fill="#004E4D" mask="url(#mask-2)"></path>
                <path d="M20.9524,31.1613 L18.5174,32.8423 L18.2464,29.3353 C16.9494,30.5363 16.1364,32.2653 16.1364,34.1883 C16.1364,35.2263 16.3744,36.2083 16.7964,37.0813 C17.4614,37.3513 18.0724,37.7303 18.6064,38.1983 L18.8094,36.7153 L20.5074,36.9213 L23.3634,32.9543 L20.9524,31.1613 Z" id="Fill-166" fill="#006433" mask="url(#mask-2)"></path>
                <path d="M18.4651,39.235 L18.6071,38.198 C18.0721,37.731 17.4621,37.352 16.7971,37.081 C17.2001,37.914 17.7701,38.647 18.4651,39.235" id="Fill-167" fill="#094924" mask="url(#mask-2)"></path>
                <path d="M18.2463,29.3351 L18.5173,32.8431 L20.9523,31.1611 L18.3603,29.2341 C18.3223,29.2671 18.2833,29.3001 18.2463,29.3351" id="Fill-168" fill="#014723" mask="url(#mask-2)"></path>
                <path d="M20.5081,36.9215 L19.1821,38.7645 C19.5881,39.2175 19.9311,39.7305 20.2001,40.2865 C20.9441,40.5885 21.7551,40.7575 22.6051,40.7575 C23.9091,40.7575 25.1211,40.3645 26.1371,39.6905 L22.2291,37.1305 L20.5081,36.9215 Z" id="Fill-169" fill="#006433" mask="url(#mask-2)"></path>
                <path d="M18.7043,39.4284 C19.1593,39.7784 19.6623,40.0674 20.2003,40.2854 C19.9313,39.7304 19.5883,39.2184 19.1823,38.7644 L18.7043,39.4284 Z" id="Fill-170" fill="#094924" mask="url(#mask-2)"></path>
                <path d="M18.6067,38.1979 C18.8097,38.3749 19.0027,38.5629 19.1817,38.7629 L20.5077,36.9219 L18.8087,36.7159 L18.6067,38.1979 Z" id="Fill-171" fill="#09411F" mask="url(#mask-2)"></path>
                <path d="M18.6067,38.1979 L18.4647,39.2349 C18.5437,39.3009 18.6227,39.3659 18.7037,39.4269 L19.1817,38.7629 C19.0027,38.5629 18.8097,38.3749 18.6067,38.1979" id="Fill-172" fill="#073619" mask="url(#mask-2)"></path>
                <path d="M26.2439,34.8082 L21.9609,36.9542 L22.2289,37.1302 L27.9889,37.8292 C28.5269,37.0112 28.8859,36.0652 29.0169,35.0442 C28.7379,35.0822 28.4539,35.1042 28.1639,35.1042 C27.4959,35.1042 26.8509,35.0002 26.2439,34.8082" id="Fill-173" fill="#005139" mask="url(#mask-2)"></path>
                <path d="M28.1643,35.1032 C28.4533,35.1032 28.7383,35.0822 29.0173,35.0442 C29.0533,34.7642 29.0743,34.4782 29.0743,34.1882 C29.0743,33.9262 29.0573,33.6682 29.0273,33.4142 L26.2443,34.8082 C26.8503,35.0002 27.4953,35.1032 28.1643,35.1032" id="Fill-174" fill="#004134" mask="url(#mask-2)"></path>
                <path d="M27.989,37.8297 L22.228,37.1307 L26.137,39.6897 C26.871,39.2037 27.502,38.5687 27.989,37.8297" id="Fill-175" fill="#023B1B" mask="url(#mask-2)"></path>
                <path d="M18.2312,29.1378 L17.7172,22.4978 L14.2332,18.4778 C14.2992,18.8648 14.3362,19.2618 14.3362,19.6668 C14.3362,21.3218 13.7612,22.8398 12.8032,24.0268 L13.6882,24.1108 L13.4602,26.1898 L13.7412,25.7988 L18.2312,29.1378 Z" id="Fill-176" fill="#0B8F7C" mask="url(#mask-2)"></path>
                <path d="M17.5261,20.0299 L16.0701,17.1419 C15.7221,17.0829 15.3651,17.0499 15.0011,17.0499 C14.6141,17.0499 14.2361,17.0869 13.8681,17.1529 C14.0311,17.5759 14.1551,18.0189 14.2331,18.4789 L17.7171,22.4979 L17.5261,20.0299 Z" id="Fill-177" fill="#006B63" mask="url(#mask-2)"></path>
                <path d="M18.4802,29.1285 C18.6822,28.9585 18.8962,28.8015 19.1182,28.6565 C19.8142,28.0705 20.3862,27.3395 20.7912,26.5075 L18.9062,22.7675 L18.6362,23.5575 L17.7172,22.4975 L18.2312,29.1375 L18.3402,29.2185 C18.3882,29.1895 18.4342,29.1585 18.4802,29.1285" id="Fill-178" fill="#006B63" mask="url(#mask-2)"></path>
                <polygon id="Fill-179" fill="#004E4D" mask="url(#mask-2)" points="18.906 22.7672 17.526 20.0292 17.717 22.4972 18.636 23.5572"></polygon>
                <path d="M18.2419,29.2765 L18.2309,29.1375 L13.7409,25.7985 L13.4599,26.1895 L13.0569,29.8605 C13.6709,30.0565 14.3229,30.1635 15.0009,30.1635 C16.1829,30.1635 17.2889,29.8395 18.2419,29.2765" id="Fill-180" fill="#006433" mask="url(#mask-2)"></path>
                <path d="M18.2312,29.1378 L18.2422,29.2768 C18.2742,29.2568 18.3082,29.2388 18.3402,29.2188 L18.2312,29.1378 Z" id="Fill-181" fill="#0B8F7C" mask="url(#mask-2)"></path>
                <path d="M13.6882,24.1115 L12.8032,24.0275 C11.8812,25.1715 10.6042,26.0075 9.1422,26.3635 C9.6412,27.4555 10.4262,28.3845 11.4012,29.0505 L13.4602,26.1895 L13.6882,24.1115 Z" id="Fill-182" fill="#006433" mask="url(#mask-2)"></path>
                <path d="M13.4597,26.1896 L11.4007,29.0506 C11.9067,29.3956 12.4627,29.6706 13.0567,29.8606 L13.4597,26.1896 Z" id="Fill-183" fill="#09411F" mask="url(#mask-2)"></path>
                <path d="M14.3362,19.6671 C14.3362,19.2611 14.3002,18.8651 14.2332,18.4781 L13.2172,17.3061 C10.5192,18.0921 8.5442,20.6141 8.5442,23.6071 L8.5442,23.6241 L12.8032,24.0281 C13.7612,22.8401 14.3362,21.3221 14.3362,19.6671" id="Fill-184" fill="#005139" mask="url(#mask-2)"></path>
                <path d="M13.8679,17.153 C13.6469,17.193 13.4299,17.244 13.2169,17.306 L14.2329,18.478 C14.1549,18.019 14.0309,17.576 13.8679,17.153" id="Fill-185" fill="#004134" mask="url(#mask-2)"></path>
                <path d="M12.8035,24.0275 L8.5445,23.6235 C8.5465,24.6025 8.7615,25.5305 9.1425,26.3635 C10.6035,26.0065 11.8815,25.1715 12.8035,24.0275" id="Fill-186" fill="#023B1B" mask="url(#mask-2)"></path>
                <path d="M19.1184,28.6569 C18.8964,28.8019 18.6824,28.9579 18.4804,29.1289 C18.7024,28.9839 18.9164,28.8269 19.1184,28.6569" id="Fill-187" fill="#005B53" mask="url(#mask-2)"></path>
                <path d="M28.4998,15.1803 L31.4808,21.0943 L29.4988,22.1313 C31.3108,22.5183 32.8408,23.6763 33.7458,25.2513 L34.2848,25.4993 L33.1328,13.5283 L32.9048,15.5983 L28.4998,15.1803 Z" id="Fill-188" fill="#407EC0" mask="url(#mask-2)"></path>
                <path d="M29.4983,22.1315 L28.3113,22.7525 L33.7453,25.2515 C32.8403,23.6765 31.3103,22.5185 29.4983,22.1315" id="Fill-189" fill="#1C66B0" mask="url(#mask-2)"></path>
                <path d="M20.7913,20.7052 L25.1823,22.7322 C25.7223,22.4462 26.3053,22.2352 26.9213,22.1132 L21.8293,19.7712 L28.1593,15.1482 L21.7193,14.5372 L20.0263,19.4912 C20.3223,19.8642 20.5803,20.2712 20.7913,20.7052" id="Fill-190" fill="#27C0D8" mask="url(#mask-2)"></path>
                <path d="M25.1824,22.7321 L26.8664,23.5091 L28.3114,22.7531 L26.9204,22.1131 C26.3054,22.2351 25.7214,22.4461 25.1824,22.7321" id="Fill-191" fill="#1490A3" mask="url(#mask-2)"></path>
                <path d="M20.0256,19.4913 L21.7186,14.5373 L20.9766,14.4673 L21.1406,12.9703 L15.4656,15.9413 L16.0696,17.1413 C17.6606,17.4103 19.0546,18.2703 20.0256,19.4913" id="Fill-192" fill="#1490A3" mask="url(#mask-2)"></path>
                <path d="M21.4578,23.6066 C21.4578,24.6486 21.2178,25.6336 20.7918,26.5076 L20.8638,26.6516 L22.2438,25.9296 C22.8358,24.5526 23.8778,23.4226 25.1828,22.7316 L20.7918,20.7056 C21.2178,21.5796 21.4578,22.5646 21.4578,23.6066" id="Fill-193" fill="#1490A3" mask="url(#mask-2)"></path>
                <path d="M22.2439,25.9293 L26.8669,23.5093 L25.1819,22.7323 C23.8779,23.4233 22.8349,24.5533 22.2439,25.9293" id="Fill-194" fill="#096D85" mask="url(#mask-2)"></path>
                <path d="M20.0256,19.4913 L19.7716,20.2343 L20.7906,20.7053 C20.5796,20.2713 20.3226,19.8643 20.0256,19.4913" id="Fill-195" fill="#1490A3" mask="url(#mask-2)"></path>
                <path d="M17.4592,19.1676 L19.7712,20.2346 L20.0252,19.4916 C19.0542,18.2706 17.6612,17.4106 16.0702,17.1416 L17.5262,20.0296 L17.4592,19.1676 Z" id="Fill-196" fill="#004E4D" mask="url(#mask-2)"></path>
                <path d="M20.7913,26.5079 C21.2173,25.6329 21.4573,24.6489 21.4573,23.6069 C21.4573,22.5649 21.2173,21.5799 20.7913,20.7049 L19.7713,20.2349 L18.9063,22.7669 L20.7913,26.5079 Z" id="Fill-197" fill="#004E4D" mask="url(#mask-2)"></path>
                <polygon id="Fill-198" fill="#004146" mask="url(#mask-2)" points="19.7717 20.2345 17.4597 19.1675 17.5257 20.0295 18.9057 22.7675"></polygon>
                <path d="M21.8289,19.7716 L26.9209,22.1136 C27.3239,22.0336 27.7389,21.9906 28.1639,21.9906 C28.6219,21.9906 29.0679,22.0396 29.4989,22.1316 L31.4809,21.0936 L28.4999,15.1806 L28.1599,15.1476 L21.8289,19.7716 Z" id="Fill-199" fill="#1C66B0" mask="url(#mask-2)"></path>
                <path d="M26.9211,22.1134 L28.3121,22.7524 L29.4991,22.1314 C29.0681,22.0394 28.6221,21.9904 28.1641,21.9904 C27.7391,21.9904 27.3231,22.0334 26.9211,22.1134" id="Fill-200" fill="#0053A0" mask="url(#mask-2)"></path>
                <polygon id="Fill-201" fill="#407EC0" mask="url(#mask-2)" points="23.4675 9.4225 22.4975 12.2605 26.0815 10.3835 28.3965 14.9755 32.9515 11.6485 33.1325 13.5285 34.2145 3.6745 27.8505 3.0705 22.0425 9.7195"></polygon>
                <polygon id="Fill-202" fill="#1C66B0" mask="url(#mask-2)" points="21.1409 12.9703 22.4979 12.2603 23.4679 9.4223 22.0429 9.7183 21.4199 10.4313"></polygon>
                <polygon id="Fill-203" fill="#2458A7" mask="url(#mask-2)" points="28.3962 14.9752 28.4992 15.1802 32.9052 15.5982 33.1322 13.5282 32.9512 11.6482"></polygon>
                <polygon id="Fill-204" fill="#1C66B0" mask="url(#mask-2)" points="28.1594 15.1481 28.3964 14.9751 26.0814 10.3841 22.4974 12.2601 21.7184 14.5371"></polygon>
                <polygon id="Fill-205" fill="#00539F" mask="url(#mask-2)" points="20.9763 14.4669 21.7193 14.5369 22.4973 12.2599 21.1403 12.9699"></polygon>
                <polygon id="Fill-206" fill="#0F4A9F" mask="url(#mask-2)" points="28.4998 15.1803 28.3968 14.9753 28.1598 15.1483"></polygon>
                <path d="M19.3611,6.817 C19.3611,8.142 18.9721,9.374 18.3061,10.405 L18.3341,10.49 L21.4851,9.835 L22.2861,2.543 L27.8501,3.071 L28.3321,2.519 L14.7941,0 L15.0041,0.621 C17.5391,1.507 19.3611,3.946 19.3611,6.817" id="Fill-207" fill="#407EC0" mask="url(#mask-2)"></path>
                <polygon id="Fill-208" fill="#1C66B0" mask="url(#mask-2)" points="21.4192 10.4318 21.4852 9.8348 18.3342 10.4898 19.1792 12.9958"></polygon>
                <path d="M19.3611,6.817 C19.3611,3.946 17.5391,1.507 15.0041,0.621 L18.3061,10.405 C18.9721,9.374 19.3611,8.142 19.3611,6.817" id="Fill-209" fill="#1C66B0" mask="url(#mask-2)"></path>
                <polygon id="Fill-210" fill="#2458A7" mask="url(#mask-2)" points="21.4851 9.8346 22.0421 9.7186 27.8501 3.0706 22.2861 2.5426"></polygon>
                <polygon id="Fill-211" fill="#0F4A9F" mask="url(#mask-2)" points="22.0422 9.7189 21.4852 9.8349 21.4192 10.4319"></polygon>
                <polygon id="Fill-212" fill="#1490A3" mask="url(#mask-2)" points="18.3059 10.4049 18.3349 10.4899 18.2369 10.5109"></polygon>
                <path d="M52.3679,52.2389 C46.2199,52.0059 40.3279,53.9859 35.3789,56.8949 C30.4299,53.9849 24.5419,52.0039 18.3879,52.2389 C11.3289,52.5099 4.6909,54.9469 0.1769,58.9259 L4.4439,64.5909 C7.9479,61.5029 12.9069,59.5279 18.6049,59.3099 C24.9329,59.0659 30.8919,61.4979 35.3749,65.1829 L35.3769,65.1859 L35.3779,65.1859 L35.3789,65.1859 L35.3819,65.1829 C39.8639,61.4979 45.8199,59.0659 52.1509,59.3099 C57.8489,59.5279 62.8089,61.5029 66.3119,64.5909 L70.5789,58.9259 C66.0649,54.9469 59.4279,52.5099 52.3679,52.2389" id="Fill-213" fill="#27C0D8" mask="url(#mask-2)"></path>
            </g>
        </g>
    </g>
</svg>